<svg xmlns="http://www.w3.org/2000/svg" viewBox="0 0 436.23 398.45"><defs><style>.cls-1{opacity:0.3;}.cls-2{fill:#73bcfb;}.cls-3{fill:#fff;stroke:#42a4f8;stroke-miterlimit:10;}.cls-4{fill:#42a4f8;}</style></defs><g id="Layer_2" data-name="Layer 2"><g id="Layer_1-2" data-name="Layer 1"><g class="cls-1"><path class="cls-2" d="M130.89,32a2.43,2.43,0,0,1-2.38-1.93c1.52.14,3.05.34,4.56.56A2.44,2.44,0,0,1,130.89,32Z"/><path class="cls-2" d="M116.34,32a2.41,2.41,0,0,1-2.41-2.3c1.62-.09,3.23-.13,4.84-.13A2.43,2.43,0,0,1,116.34,32Z"/><path class="cls-2" d="M101.8,32a2.33,2.33,0,0,1-1.57-.59c1.23-.24,2.45-.46,3.68-.66A2.43,2.43,0,0,1,101.8,32Z"/><path class="cls-2" d="M172.18,44.77c.95.56,1.89,1.14,2.81,1.73a2.34,2.34,0,0,1-.47,0A2.45,2.45,0,0,1,172.18,44.77Z"/><path class="cls-2" d="M160,41.7a2.43,2.43,0,1,1-2.43,2.42A2.42,2.42,0,0,1,160,41.7Z"/><path class="cls-2" d="M152.7,39.28A2.42,2.42,0,0,1,151.12,35c1.34.45,2.66.93,4,1.43h0a2.69,2.69,0,0,1,0,.4A2.43,2.43,0,0,1,152.7,39.28Z"/><path class="cls-2" d="M145.43,41.7A2.43,2.43,0,1,1,143,44.12,2.43,2.43,0,0,1,145.43,41.7Z"/><path class="cls-2" d="M138.16,34.43a2.43,2.43,0,1,1-2.42,2.42A2.42,2.42,0,0,1,138.16,34.43Z"/><path class="cls-2" d="M130.89,41.7a2.43,2.43,0,1,1-2.43,2.42A2.42,2.42,0,0,1,130.89,41.7Z"/><path class="cls-2" d="M123.61,34.43a2.43,2.43,0,1,1-2.42,2.42A2.42,2.42,0,0,1,123.61,34.43Z"/><path class="cls-2" d="M116.34,41.7a2.43,2.43,0,1,1-2.42,2.42A2.43,2.43,0,0,1,116.34,41.7Z"/><path class="cls-2" d="M109.07,34.43a2.43,2.43,0,1,1-2.42,2.42A2.42,2.42,0,0,1,109.07,34.43Z"/><path class="cls-2" d="M101.8,41.7a2.43,2.43,0,1,1-2.43,2.42A2.42,2.42,0,0,1,101.8,41.7Z"/><path class="cls-2" d="M94.52,34.43a2.43,2.43,0,1,1-2.42,2.42A2.42,2.42,0,0,1,94.52,34.43Z"/><path class="cls-2" d="M87.25,41.7a2.43,2.43,0,1,1-2.42,2.42A2.43,2.43,0,0,1,87.25,41.7Z"/><path class="cls-2" d="M80,39.28a2.49,2.49,0,0,1-1.6-.6c1.34-.65,2.68-1.24,4-1.8A2.42,2.42,0,0,1,80,39.28Z"/><path class="cls-2" d="M72.71,46.55a2.43,2.43,0,0,1-2.43-2.43,2.38,2.38,0,0,1,.53-1.5c.53-.31,1.06-.61,1.6-.9l.3,0a2.43,2.43,0,0,1,0,4.85Z"/><path class="cls-2" d="M189.07,61.09a2.43,2.43,0,0,1-2.43-2.43,2.4,2.4,0,0,1,1.61-2.27q1.62,1.39,3.17,2.85A2.41,2.41,0,0,1,189.07,61.09Z"/><path class="cls-2" d="M181.79,53.82a2.43,2.43,0,0,1-1.86-4c1.32.93,2.61,1.9,3.88,2.89A2.41,2.41,0,0,1,181.79,53.82Z"/><path class="cls-2" d="M174.52,56.24a2.43,2.43,0,1,1-2.42,2.42A2.43,2.43,0,0,1,174.52,56.24Z"/><path class="cls-2" d="M167.25,49a2.43,2.43,0,1,1-2.42,2.42A2.42,2.42,0,0,1,167.25,49Z"/><path class="cls-2" d="M160,56.24a2.43,2.43,0,1,1-2.43,2.42A2.42,2.42,0,0,1,160,56.24Z"/><path class="cls-2" d="M152.7,49a2.43,2.43,0,1,1-2.42,2.42A2.43,2.43,0,0,1,152.7,49Z"/><path class="cls-2" d="M145.43,56.24A2.43,2.43,0,1,1,143,58.66,2.43,2.43,0,0,1,145.43,56.24Z"/><path class="cls-2" d="M138.16,49a2.43,2.43,0,1,1-2.42,2.42A2.42,2.42,0,0,1,138.16,49Z"/><path class="cls-2" d="M130.89,56.24a2.43,2.43,0,1,1-2.43,2.42A2.42,2.42,0,0,1,130.89,56.24Z"/><path class="cls-2" d="M123.61,49a2.43,2.43,0,1,1-2.42,2.42A2.43,2.43,0,0,1,123.61,49Z"/><path class="cls-2" d="M116.34,56.24a2.43,2.43,0,1,1-2.42,2.42A2.43,2.43,0,0,1,116.34,56.24Z"/><path class="cls-2" d="M109.07,49a2.43,2.43,0,1,1-2.42,2.42A2.42,2.42,0,0,1,109.07,49Z"/><path class="cls-2" d="M101.8,56.24a2.43,2.43,0,1,1-2.43,2.42A2.42,2.42,0,0,1,101.8,56.24Z"/><path class="cls-2" d="M94.52,49a2.43,2.43,0,1,1-2.42,2.42A2.43,2.43,0,0,1,94.52,49Z"/><path class="cls-2" d="M87.25,56.24a2.43,2.43,0,1,1-2.42,2.42A2.43,2.43,0,0,1,87.25,56.24Z"/><path class="cls-2" d="M80,49a2.43,2.43,0,1,1-2.43,2.42A2.42,2.42,0,0,1,80,49Z"/><path class="cls-2" d="M72.71,56.24a2.43,2.43,0,1,1-2.43,2.42A2.42,2.42,0,0,1,72.71,56.24Z"/><path class="cls-2" d="M65.43,49A2.43,2.43,0,1,1,63,51.39,2.43,2.43,0,0,1,65.43,49Z"/><path class="cls-2" d="M58.16,56.24a2.43,2.43,0,1,1-2.42,2.42A2.43,2.43,0,0,1,58.16,56.24Z"/><path class="cls-2" d="M203.61,75.63a2.43,2.43,0,0,1-1.16-4.56c1,1.2,2.08,2.39,3.13,3.55A2.41,2.41,0,0,1,203.61,75.63Z"/><path class="cls-2" d="M196.34,68.36a2.42,2.42,0,0,1-.53-4.79c1,1,1.92,2.05,2.84,3.1A2.43,2.43,0,0,1,196.34,68.36Z"/><path class="cls-2" d="M189.07,70.78a2.43,2.43,0,1,1-2.43,2.43A2.42,2.42,0,0,1,189.07,70.78Z"/><path class="cls-2" d="M181.79,63.51a2.43,2.43,0,1,1-2.42,2.42A2.43,2.43,0,0,1,181.79,63.51Z"/><path class="cls-2" d="M174.52,70.78a2.43,2.43,0,1,1-2.42,2.43A2.43,2.43,0,0,1,174.52,70.78Z"/><path class="cls-2" d="M167.25,63.51a2.43,2.43,0,1,1-2.42,2.42A2.42,2.42,0,0,1,167.25,63.51Z"/><path class="cls-2" d="M160,70.78a2.43,2.43,0,1,1-2.43,2.43A2.42,2.42,0,0,1,160,70.78Z"/><path class="cls-2" d="M152.7,63.51a2.43,2.43,0,1,1-2.42,2.42A2.43,2.43,0,0,1,152.7,63.51Z"/><path class="cls-2" d="M145.43,70.78A2.43,2.43,0,1,1,143,73.21,2.43,2.43,0,0,1,145.43,70.78Z"/><path class="cls-2" d="M138.16,63.51a2.43,2.43,0,1,1-2.42,2.42A2.42,2.42,0,0,1,138.16,63.51Z"/><path class="cls-2" d="M130.89,70.78a2.43,2.43,0,1,1-2.43,2.43A2.42,2.42,0,0,1,130.89,70.78Z"/><path class="cls-2" d="M123.61,63.51a2.43,2.43,0,1,1-2.42,2.42A2.43,2.43,0,0,1,123.61,63.51Z"/><path class="cls-2" d="M116.34,70.78a2.43,2.43,0,1,1-2.42,2.43A2.43,2.43,0,0,1,116.34,70.78Z"/><path class="cls-2" d="M109.07,63.51a2.43,2.43,0,1,1-2.42,2.42A2.42,2.42,0,0,1,109.07,63.51Z"/><path class="cls-2" d="M101.8,70.78a2.43,2.43,0,1,1-2.43,2.43A2.42,2.42,0,0,1,101.8,70.78Z"/><path class="cls-2" d="M94.52,63.51a2.43,2.43,0,1,1-2.42,2.42A2.43,2.43,0,0,1,94.52,63.51Z"/><path class="cls-2" d="M87.25,70.78a2.43,2.43,0,1,1-2.42,2.43A2.43,2.43,0,0,1,87.25,70.78Z"/><path class="cls-2" d="M80,63.51a2.43,2.43,0,1,1-2.43,2.42A2.42,2.42,0,0,1,80,63.51Z"/><path class="cls-2" d="M72.71,70.78a2.43,2.43,0,1,1-2.43,2.43A2.42,2.42,0,0,1,72.71,70.78Z"/><path class="cls-2" d="M65.43,63.51A2.43,2.43,0,1,1,63,65.93,2.43,2.43,0,0,1,65.43,63.51Z"/><path class="cls-2" d="M58.16,70.78a2.43,2.43,0,1,1-2.42,2.43A2.43,2.43,0,0,1,58.16,70.78Z"/><path class="cls-2" d="M50.89,63.51a2.43,2.43,0,1,1-2.43,2.42A2.42,2.42,0,0,1,50.89,63.51Z"/><path class="cls-2" d="M43.62,70.78a2.43,2.43,0,1,1-2.43,2.43A2.42,2.42,0,0,1,43.62,70.78Z"/><path class="cls-2" d="M215.73,87.75a2.45,2.45,0,0,1,.76-1.77c1.15,1.13,2.33,2.24,3.51,3.34a2.43,2.43,0,0,1-4.27-1.57Z"/><path class="cls-2" d="M208.46,80.48a2.41,2.41,0,0,1,.83-1.83q1.67,1.78,3.35,3.49a2.4,2.4,0,0,1-1.75.76A2.43,2.43,0,0,1,208.46,80.48Z"/><path class="cls-2" d="M203.61,85.32a2.43,2.43,0,1,1-2.42,2.43A2.43,2.43,0,0,1,203.61,85.32Z"/><path class="cls-2" d="M196.34,78.05a2.43,2.43,0,1,1-2.42,2.43A2.42,2.42,0,0,1,196.34,78.05Z"/><path class="cls-2" d="M189.07,85.32a2.43,2.43,0,1,1-2.43,2.43A2.42,2.42,0,0,1,189.07,85.32Z"/><path class="cls-2" d="M181.79,78.05a2.43,2.43,0,1,1-2.42,2.43A2.43,2.43,0,0,1,181.79,78.05Z"/><path class="cls-2" d="M174.52,85.32a2.43,2.43,0,1,1-2.42,2.43A2.43,2.43,0,0,1,174.52,85.32Z"/><path class="cls-2" d="M167.25,78.05a2.43,2.43,0,1,1-2.42,2.43A2.42,2.42,0,0,1,167.25,78.05Z"/><path class="cls-2" d="M160,85.32a2.43,2.43,0,1,1-2.43,2.43A2.42,2.42,0,0,1,160,85.32Z"/><path class="cls-2" d="M152.7,78.05a2.43,2.43,0,1,1-2.42,2.43A2.43,2.43,0,0,1,152.7,78.05Z"/><path class="cls-2" d="M145.43,85.32A2.43,2.43,0,1,1,143,87.75,2.43,2.43,0,0,1,145.43,85.32Z"/><path class="cls-2" d="M138.16,78.05a2.43,2.43,0,1,1-2.42,2.43A2.42,2.42,0,0,1,138.16,78.05Z"/><path class="cls-2" d="M130.89,85.32a2.43,2.43,0,1,1-2.43,2.43A2.42,2.42,0,0,1,130.89,85.32Z"/><path class="cls-2" d="M123.61,78.05a2.43,2.43,0,1,1-2.42,2.43A2.43,2.43,0,0,1,123.61,78.05Z"/><path class="cls-2" d="M116.34,85.32a2.43,2.43,0,1,1-2.42,2.43A2.43,2.43,0,0,1,116.34,85.32Z"/><path class="cls-2" d="M109.07,78.05a2.43,2.43,0,1,1-2.42,2.43A2.42,2.42,0,0,1,109.07,78.05Z"/><path class="cls-2" d="M101.8,85.32a2.43,2.43,0,1,1-2.43,2.43A2.42,2.42,0,0,1,101.8,85.32Z"/><path class="cls-2" d="M94.52,78.05a2.43,2.43,0,1,1-2.42,2.43A2.43,2.43,0,0,1,94.52,78.05Z"/><path class="cls-2" d="M87.25,85.32a2.43,2.43,0,1,1-2.42,2.43A2.43,2.43,0,0,1,87.25,85.32Z"/><path class="cls-2" d="M80,78.05a2.43,2.43,0,1,1-2.43,2.43A2.42,2.42,0,0,1,80,78.05Z"/><path class="cls-2" d="M72.71,85.32a2.43,2.43,0,1,1-2.43,2.43A2.42,2.42,0,0,1,72.71,85.32Z"/><path class="cls-2" d="M65.43,78.05A2.43,2.43,0,1,1,63,80.48,2.43,2.43,0,0,1,65.43,78.05Z"/><path class="cls-2" d="M58.16,85.32a2.43,2.43,0,1,1-2.42,2.43A2.43,2.43,0,0,1,58.16,85.32Z"/><path class="cls-2" d="M50.89,78.05a2.43,2.43,0,1,1-2.43,2.43A2.42,2.42,0,0,1,50.89,78.05Z"/><path class="cls-2" d="M43.62,85.32a2.43,2.43,0,1,1-2.43,2.43A2.42,2.42,0,0,1,43.62,85.32Z"/><path class="cls-2" d="M36.34,78.05a2.43,2.43,0,1,1-2.42,2.43A2.43,2.43,0,0,1,36.34,78.05Z"/><path class="cls-2" d="M29.07,85.32a2.43,2.43,0,1,1-2.42,2.43A2.42,2.42,0,0,1,29.07,85.32Z"/><path class="cls-2" d="M232.7,104.71a2.42,2.42,0,0,1-.29-4.83h0c.88.69,1.78,1.37,2.68,2a2.22,2.22,0,0,1,0,.37A2.42,2.42,0,0,1,232.7,104.71Z"/><path class="cls-2" d="M225.43,97.44A2.42,2.42,0,0,1,224.09,93c1.16,1,2.35,2,3.54,3A2.44,2.44,0,0,1,225.43,97.44Z"/><path class="cls-2" d="M218.16,99.86a2.43,2.43,0,1,1-2.43,2.43A2.42,2.42,0,0,1,218.16,99.86Z"/><path class="cls-2" d="M210.89,92.59A2.43,2.43,0,1,1,208.46,95,2.43,2.43,0,0,1,210.89,92.59Z"/><path class="cls-2" d="M203.61,99.86a2.43,2.43,0,1,1-2.42,2.43A2.43,2.43,0,0,1,203.61,99.86Z"/><path class="cls-2" d="M196.34,92.59A2.43,2.43,0,1,1,193.92,95,2.42,2.42,0,0,1,196.34,92.59Z"/><path class="cls-2" d="M189.07,99.86a2.43,2.43,0,1,1-2.43,2.43A2.42,2.42,0,0,1,189.07,99.86Z"/><path class="cls-2" d="M181.79,92.59A2.43,2.43,0,1,1,179.37,95,2.43,2.43,0,0,1,181.79,92.59Z"/><path class="cls-2" d="M174.52,99.86a2.43,2.43,0,1,1-2.42,2.43A2.43,2.43,0,0,1,174.52,99.86Z"/><path class="cls-2" d="M167.25,92.59A2.43,2.43,0,1,1,164.83,95,2.42,2.42,0,0,1,167.25,92.59Z"/><path class="cls-2" d="M160,99.86a2.43,2.43,0,1,1-2.43,2.43A2.42,2.42,0,0,1,160,99.86Z"/><path class="cls-2" d="M152.7,92.59A2.43,2.43,0,1,1,150.28,95,2.43,2.43,0,0,1,152.7,92.59Z"/><path class="cls-2" d="M145.43,99.86a2.43,2.43,0,1,1-2.42,2.43A2.43,2.43,0,0,1,145.43,99.86Z"/><path class="cls-2" d="M138.16,92.59A2.43,2.43,0,1,1,135.74,95,2.42,2.42,0,0,1,138.16,92.59Z"/><path class="cls-2" d="M130.89,99.86a2.43,2.43,0,1,1-2.43,2.43A2.42,2.42,0,0,1,130.89,99.86Z"/><path class="cls-2" d="M123.61,92.59A2.43,2.43,0,1,1,121.19,95,2.43,2.43,0,0,1,123.61,92.59Z"/><path class="cls-2" d="M116.34,99.86a2.43,2.43,0,1,1-2.42,2.43A2.43,2.43,0,0,1,116.34,99.86Z"/><path class="cls-2" d="M109.07,92.59A2.43,2.43,0,1,1,106.65,95,2.42,2.42,0,0,1,109.07,92.59Z"/><path class="cls-2" d="M101.8,99.86a2.43,2.43,0,1,1-2.43,2.43A2.42,2.42,0,0,1,101.8,99.86Z"/><path class="cls-2" d="M94.52,92.59A2.43,2.43,0,1,1,92.1,95,2.43,2.43,0,0,1,94.52,92.59Z"/><path class="cls-2" d="M87.25,99.86a2.43,2.43,0,1,1-2.42,2.43A2.43,2.43,0,0,1,87.25,99.86Z"/><path class="cls-2" d="M80,92.59A2.43,2.43,0,1,1,77.55,95,2.42,2.42,0,0,1,80,92.59Z"/><path class="cls-2" d="M72.71,99.86a2.43,2.43,0,1,1-2.43,2.43A2.42,2.42,0,0,1,72.71,99.86Z"/><path class="cls-2" d="M65.43,92.59A2.43,2.43,0,1,1,63,95,2.43,2.43,0,0,1,65.43,92.59Z"/><path class="cls-2" d="M58.16,99.86a2.43,2.43,0,1,1-2.42,2.43A2.43,2.43,0,0,1,58.16,99.86Z"/><path class="cls-2" d="M50.89,92.59A2.43,2.43,0,1,1,48.46,95,2.42,2.42,0,0,1,50.89,92.59Z"/><path class="cls-2" d="M43.62,99.86a2.43,2.43,0,1,1-2.43,2.43A2.42,2.42,0,0,1,43.62,99.86Z"/><path class="cls-2" d="M36.34,92.59A2.43,2.43,0,1,1,33.92,95,2.43,2.43,0,0,1,36.34,92.59Z"/><path class="cls-2" d="M29.07,99.86a2.43,2.43,0,1,1-2.42,2.43A2.42,2.42,0,0,1,29.07,99.86Z"/><path class="cls-2" d="M21.8,97.44a2.29,2.29,0,0,1-1.17-.3c.74-1.44,1.51-2.87,2.28-4.27a2.42,2.42,0,0,1-1.11,4.57Z"/><path class="cls-2" d="M259.37,116.9c1.28.65,2.57,1.27,3.88,1.87a2.43,2.43,0,0,1-3.88-1.87Z"/><path class="cls-2" d="M247.25,114.41a2.42,2.42,0,1,1-2.43,2.42A2.42,2.42,0,0,1,247.25,114.41Z"/><path class="cls-2" d="M240,107.13a2.43,2.43,0,1,1-2.42,2.43A2.43,2.43,0,0,1,240,107.13Z"/><path class="cls-2" d="M232.7,114.41a2.42,2.42,0,1,1-2.42,2.42A2.42,2.42,0,0,1,232.7,114.41Z"/><path class="cls-2" d="M225.43,107.13a2.43,2.43,0,1,1-2.42,2.43A2.42,2.42,0,0,1,225.43,107.13Z"/><path class="cls-2" d="M218.16,114.41a2.42,2.42,0,1,1-2.43,2.42A2.42,2.42,0,0,1,218.16,114.41Z"/><path class="cls-2" d="M210.89,107.13a2.43,2.43,0,1,1-2.43,2.43A2.43,2.43,0,0,1,210.89,107.13Z"/><path class="cls-2" d="M203.61,114.41a2.42,2.42,0,1,1-2.42,2.42A2.42,2.42,0,0,1,203.61,114.41Z"/><path class="cls-2" d="M196.34,107.13a2.43,2.43,0,1,1-2.42,2.43A2.42,2.42,0,0,1,196.34,107.13Z"/><path class="cls-2" d="M189.07,114.41a2.42,2.42,0,1,1-2.43,2.42A2.42,2.42,0,0,1,189.07,114.41Z"/><path class="cls-2" d="M181.79,107.13a2.43,2.43,0,1,1-2.42,2.43A2.43,2.43,0,0,1,181.79,107.13Z"/><path class="cls-2" d="M174.52,114.41a2.42,2.42,0,1,1-2.42,2.42A2.42,2.42,0,0,1,174.52,114.41Z"/><path class="cls-2" d="M167.25,107.13a2.43,2.43,0,1,1-2.42,2.43A2.42,2.42,0,0,1,167.25,107.13Z"/><path class="cls-2" d="M160,114.41a2.42,2.42,0,1,1-2.43,2.42A2.42,2.42,0,0,1,160,114.41Z"/><path class="cls-2" d="M152.7,107.13a2.43,2.43,0,1,1-2.42,2.43A2.43,2.43,0,0,1,152.7,107.13Z"/><path class="cls-2" d="M145.43,114.41a2.42,2.42,0,1,1-2.42,2.42A2.42,2.42,0,0,1,145.43,114.41Z"/><path class="cls-2" d="M138.16,107.13a2.43,2.43,0,1,1-2.42,2.43A2.42,2.42,0,0,1,138.16,107.13Z"/><path class="cls-2" d="M130.89,114.41a2.42,2.42,0,1,1-2.43,2.42A2.42,2.42,0,0,1,130.89,114.41Z"/><path class="cls-2" d="M123.61,107.13a2.43,2.43,0,1,1-2.42,2.43A2.43,2.43,0,0,1,123.61,107.13Z"/><path class="cls-2" d="M116.34,114.41a2.42,2.42,0,1,1-2.42,2.42A2.42,2.42,0,0,1,116.34,114.41Z"/><path class="cls-2" d="M109.07,107.13a2.43,2.43,0,1,1-2.42,2.43A2.42,2.42,0,0,1,109.07,107.13Z"/><path class="cls-2" d="M101.8,114.41a2.42,2.42,0,1,1-2.43,2.42A2.42,2.42,0,0,1,101.8,114.41Z"/><path class="cls-2" d="M94.52,107.13a2.43,2.43,0,1,1-2.42,2.43A2.43,2.43,0,0,1,94.52,107.13Z"/><path class="cls-2" d="M87.25,114.41a2.42,2.42,0,1,1-2.42,2.42A2.42,2.42,0,0,1,87.25,114.41Z"/><path class="cls-2" d="M80,107.13a2.43,2.43,0,1,1-2.43,2.43A2.42,2.42,0,0,1,80,107.13Z"/><path class="cls-2" d="M72.71,114.41a2.42,2.42,0,1,1-2.43,2.42A2.42,2.42,0,0,1,72.71,114.41Z"/><path class="cls-2" d="M65.43,107.13A2.43,2.43,0,1,1,63,109.56,2.43,2.43,0,0,1,65.43,107.13Z"/><path class="cls-2" d="M58.16,114.41a2.42,2.42,0,1,1-2.42,2.42A2.42,2.42,0,0,1,58.16,114.41Z"/><path class="cls-2" d="M50.89,107.13a2.43,2.43,0,1,1-2.43,2.43A2.42,2.42,0,0,1,50.89,107.13Z"/><path class="cls-2" d="M43.62,114.41a2.42,2.42,0,1,1-2.43,2.42A2.42,2.42,0,0,1,43.62,114.41Z"/><path class="cls-2" d="M36.34,107.13a2.43,2.43,0,1,1-2.42,2.43A2.43,2.43,0,0,1,36.34,107.13Z"/><path class="cls-2" d="M29.07,114.41a2.42,2.42,0,1,1-2.42,2.42A2.42,2.42,0,0,1,29.07,114.41Z"/><path class="cls-2" d="M21.8,107.13a2.43,2.43,0,1,1-2.43,2.43A2.42,2.42,0,0,1,21.8,107.13Z"/><path class="cls-2" d="M14.53,114.41a2.42,2.42,0,1,1-2.43,2.42A2.42,2.42,0,0,1,14.53,114.41Z"/><path class="cls-2" d="M305.43,133.79a2.42,2.42,0,0,1-2.43-2.42v0c1.56.3,3.13.58,4.71.83A2.39,2.39,0,0,1,305.43,133.79Z"/><path class="cls-2" d="M290.88,129a2.42,2.42,0,1,1-2.42,2.42A2.42,2.42,0,0,1,290.88,129Z"/><path class="cls-2" d="M276.34,129a2.42,2.42,0,1,1-2.43,2.42A2.42,2.42,0,0,1,276.34,129Z"/><path class="cls-2" d="M269.06,121.68a2.42,2.42,0,1,1-2.42,2.42A2.42,2.42,0,0,1,269.06,121.68Z"/><path class="cls-2" d="M261.79,129a2.42,2.42,0,1,1-2.42,2.42A2.42,2.42,0,0,1,261.79,129Z"/><path class="cls-2" d="M254.52,121.68a2.42,2.42,0,1,1-2.42,2.42A2.42,2.42,0,0,1,254.52,121.68Z"/><path class="cls-2" d="M247.25,129a2.42,2.42,0,1,1-2.43,2.42A2.42,2.42,0,0,1,247.25,129Z"/><path class="cls-2" d="M240,121.68a2.42,2.42,0,1,1-2.42,2.42A2.42,2.42,0,0,1,240,121.68Z"/><path class="cls-2" d="M232.7,129a2.42,2.42,0,1,1-2.42,2.42A2.42,2.42,0,0,1,232.7,129Z"/><path class="cls-2" d="M225.43,121.68A2.42,2.42,0,1,1,223,124.1,2.42,2.42,0,0,1,225.43,121.68Z"/><path class="cls-2" d="M218.16,129a2.42,2.42,0,1,1-2.43,2.42A2.42,2.42,0,0,1,218.16,129Z"/><path class="cls-2" d="M210.89,121.68a2.42,2.42,0,1,1-2.43,2.42A2.42,2.42,0,0,1,210.89,121.68Z"/><path class="cls-2" d="M203.61,129a2.42,2.42,0,1,1-2.42,2.42A2.42,2.42,0,0,1,203.61,129Z"/><path class="cls-2" d="M196.34,121.68a2.42,2.42,0,1,1-2.42,2.42A2.42,2.42,0,0,1,196.34,121.68Z"/><path class="cls-2" d="M189.07,129a2.42,2.42,0,1,1-2.43,2.42A2.42,2.42,0,0,1,189.07,129Z"/><path class="cls-2" d="M181.79,121.68a2.42,2.42,0,1,1-2.42,2.42A2.42,2.42,0,0,1,181.79,121.68Z"/><path class="cls-2" d="M174.52,129a2.42,2.42,0,1,1-2.42,2.42A2.42,2.42,0,0,1,174.52,129Z"/><path class="cls-2" d="M167.25,121.68a2.42,2.42,0,1,1-2.42,2.42A2.42,2.42,0,0,1,167.25,121.68Z"/><path class="cls-2" d="M160,129a2.42,2.42,0,1,1-2.43,2.42A2.42,2.42,0,0,1,160,129Z"/><path class="cls-2" d="M152.7,121.68a2.42,2.42,0,1,1-2.42,2.42A2.42,2.42,0,0,1,152.7,121.68Z"/><path class="cls-2" d="M145.43,129a2.42,2.42,0,1,1-2.42,2.42A2.42,2.42,0,0,1,145.43,129Z"/><path class="cls-2" d="M138.16,121.68a2.42,2.42,0,1,1-2.42,2.42A2.42,2.42,0,0,1,138.16,121.68Z"/><path class="cls-2" d="M130.89,129a2.42,2.42,0,1,1-2.43,2.42A2.42,2.42,0,0,1,130.89,129Z"/><path class="cls-2" d="M123.61,121.68a2.42,2.42,0,1,1-2.42,2.42A2.42,2.42,0,0,1,123.61,121.68Z"/><path class="cls-2" d="M116.34,129a2.42,2.42,0,1,1-2.42,2.42A2.42,2.42,0,0,1,116.34,129Z"/><path class="cls-2" d="M109.07,121.68a2.42,2.42,0,1,1-2.42,2.42A2.42,2.42,0,0,1,109.07,121.68Z"/><path class="cls-2" d="M101.8,129a2.42,2.42,0,1,1-2.43,2.42A2.42,2.42,0,0,1,101.8,129Z"/><path class="cls-2" d="M94.52,121.68a2.42,2.42,0,1,1-2.42,2.42A2.42,2.42,0,0,1,94.52,121.68Z"/><path class="cls-2" d="M87.25,129a2.42,2.42,0,1,1-2.42,2.42A2.42,2.42,0,0,1,87.25,129Z"/><path class="cls-2" d="M80,121.68a2.42,2.42,0,1,1-2.43,2.42A2.42,2.42,0,0,1,80,121.68Z"/><path class="cls-2" d="M72.71,129a2.42,2.42,0,1,1-2.43,2.42A2.42,2.42,0,0,1,72.71,129Z"/><path class="cls-2" d="M65.43,121.68A2.42,2.42,0,1,1,63,124.1,2.42,2.42,0,0,1,65.43,121.68Z"/><path class="cls-2" d="M58.16,129a2.42,2.42,0,1,1-2.42,2.42A2.42,2.42,0,0,1,58.16,129Z"/><path class="cls-2" d="M50.89,121.68a2.42,2.42,0,1,1-2.43,2.42A2.42,2.42,0,0,1,50.89,121.68Z"/><path class="cls-2" d="M43.62,129a2.42,2.42,0,1,1-2.43,2.42A2.42,2.42,0,0,1,43.62,129Z"/><path class="cls-2" d="M36.34,121.68a2.42,2.42,0,1,1-2.42,2.42A2.42,2.42,0,0,1,36.34,121.68Z"/><path class="cls-2" d="M29.07,129a2.42,2.42,0,1,1-2.42,2.42A2.42,2.42,0,0,1,29.07,129Z"/><path class="cls-2" d="M21.8,121.68a2.42,2.42,0,1,1-2.43,2.42A2.42,2.42,0,0,1,21.8,121.68Z"/><path class="cls-2" d="M14.53,129a2.42,2.42,0,1,1-2.43,2.42A2.42,2.42,0,0,1,14.53,129Z"/><path class="cls-2" d="M392.7,143.49a2.43,2.43,0,1,1-2.43,2.42A2.42,2.42,0,0,1,392.7,143.49Z"/><path class="cls-2" d="M383.05,139.1c1.34.42,2.67.88,4,1.37a2.43,2.43,0,0,1-4-1.37Z"/><path class="cls-2" d="M378.15,143.49a2.43,2.43,0,1,1-2.42,2.42A2.42,2.42,0,0,1,378.15,143.49Z"/><path class="cls-2" d="M370.88,136.22a2.42,2.42,0,1,1-2.42,2.42A2.42,2.42,0,0,1,370.88,136.22Z"/><path class="cls-2" d="M363.61,143.49a2.43,2.43,0,1,1-2.43,2.42A2.42,2.42,0,0,1,363.61,143.49Z"/><path class="cls-2" d="M356.34,136.22a2.42,2.42,0,1,1-2.43,2.42A2.42,2.42,0,0,1,356.34,136.22Z"/><path class="cls-2" d="M349.06,143.49a2.43,2.43,0,1,1-2.42,2.42A2.42,2.42,0,0,1,349.06,143.49Z"/><path class="cls-2" d="M341.79,136.22a2.42,2.42,0,1,1-2.42,2.42A2.42,2.42,0,0,1,341.79,136.22Z"/><path class="cls-2" d="M334.52,143.49a2.43,2.43,0,1,1-2.43,2.42A2.42,2.42,0,0,1,334.52,143.49Z"/><path class="cls-2" d="M327.25,136.22a2.42,2.42,0,1,1-2.43,2.42A2.42,2.42,0,0,1,327.25,136.22Z"/><path class="cls-2" d="M320,143.49a2.43,2.43,0,1,1-2.42,2.42A2.42,2.42,0,0,1,320,143.49Z"/><path class="cls-2" d="M312.7,136.22a2.42,2.42,0,1,1-2.42,2.42A2.42,2.42,0,0,1,312.7,136.22Z"/><path class="cls-2" d="M305.43,143.49a2.43,2.43,0,1,1-2.43,2.42A2.42,2.42,0,0,1,305.43,143.49Z"/><path class="cls-2" d="M298.16,136.22a2.42,2.42,0,1,1-2.43,2.42A2.42,2.42,0,0,1,298.16,136.22Z"/><path class="cls-2" d="M290.88,143.49a2.43,2.43,0,1,1-2.42,2.42A2.42,2.42,0,0,1,290.88,143.49Z"/><path class="cls-2" d="M283.61,136.22a2.42,2.42,0,1,1-2.42,2.42A2.42,2.42,0,0,1,283.61,136.22Z"/><path class="cls-2" d="M276.34,143.49a2.43,2.43,0,1,1-2.43,2.42A2.42,2.42,0,0,1,276.34,143.49Z"/><path class="cls-2" d="M269.06,136.22a2.42,2.42,0,1,1-2.42,2.42A2.42,2.42,0,0,1,269.06,136.22Z"/><path class="cls-2" d="M261.79,143.49a2.43,2.43,0,1,1-2.42,2.42A2.42,2.42,0,0,1,261.79,143.49Z"/><path class="cls-2" d="M254.52,136.22a2.42,2.42,0,1,1-2.42,2.42A2.42,2.42,0,0,1,254.52,136.22Z"/><path class="cls-2" d="M247.25,143.49a2.43,2.43,0,1,1-2.43,2.42A2.42,2.42,0,0,1,247.25,143.49Z"/><path class="cls-2" d="M240,136.22a2.42,2.42,0,1,1-2.42,2.42A2.42,2.42,0,0,1,240,136.22Z"/><path class="cls-2" d="M232.7,143.49a2.43,2.43,0,1,1-2.42,2.42A2.42,2.42,0,0,1,232.7,143.49Z"/><path class="cls-2" d="M225.43,136.22a2.42,2.42,0,1,1-2.42,2.42A2.42,2.42,0,0,1,225.43,136.22Z"/><path class="cls-2" d="M218.16,143.49a2.43,2.43,0,1,1-2.43,2.42A2.42,2.42,0,0,1,218.16,143.49Z"/><path class="cls-2" d="M210.89,136.22a2.42,2.42,0,1,1-2.43,2.42A2.42,2.42,0,0,1,210.89,136.22Z"/><path class="cls-2" d="M203.61,143.49a2.43,2.43,0,1,1-2.42,2.42A2.42,2.42,0,0,1,203.61,143.49Z"/><path class="cls-2" d="M196.34,136.22a2.42,2.42,0,1,1-2.42,2.42A2.42,2.42,0,0,1,196.34,136.22Z"/><path class="cls-2" d="M189.07,143.49a2.43,2.43,0,1,1-2.43,2.42A2.42,2.42,0,0,1,189.07,143.49Z"/><path class="cls-2" d="M181.79,136.22a2.42,2.42,0,1,1-2.42,2.42A2.42,2.42,0,0,1,181.79,136.22Z"/><path class="cls-2" d="M174.52,143.49a2.43,2.43,0,1,1-2.42,2.42A2.42,2.42,0,0,1,174.52,143.49Z"/><path class="cls-2" d="M167.25,136.22a2.42,2.42,0,1,1-2.42,2.42A2.42,2.42,0,0,1,167.25,136.22Z"/><path class="cls-2" d="M160,143.49a2.43,2.43,0,1,1-2.43,2.42A2.42,2.42,0,0,1,160,143.49Z"/><path class="cls-2" d="M152.7,136.22a2.42,2.42,0,1,1-2.42,2.42A2.42,2.42,0,0,1,152.7,136.22Z"/><path class="cls-2" d="M145.43,143.49a2.43,2.43,0,1,1-2.42,2.42A2.42,2.42,0,0,1,145.43,143.49Z"/><path class="cls-2" d="M138.16,136.22a2.42,2.42,0,1,1-2.42,2.42A2.42,2.42,0,0,1,138.16,136.22Z"/><path class="cls-2" d="M130.89,143.49a2.43,2.43,0,1,1-2.43,2.42A2.42,2.42,0,0,1,130.89,143.49Z"/><path class="cls-2" d="M123.61,136.22a2.42,2.42,0,1,1-2.42,2.42A2.42,2.42,0,0,1,123.61,136.22Z"/><path class="cls-2" d="M116.34,143.49a2.43,2.43,0,1,1-2.42,2.42A2.42,2.42,0,0,1,116.34,143.49Z"/><path class="cls-2" d="M109.07,136.22a2.42,2.42,0,1,1-2.42,2.42A2.42,2.42,0,0,1,109.07,136.22Z"/><path class="cls-2" d="M101.8,143.49a2.43,2.43,0,1,1-2.43,2.42A2.42,2.42,0,0,1,101.8,143.49Z"/><path class="cls-2" d="M94.52,136.22a2.42,2.42,0,1,1-2.42,2.42A2.42,2.42,0,0,1,94.52,136.22Z"/><path class="cls-2" d="M87.25,143.49a2.43,2.43,0,1,1-2.42,2.42A2.42,2.42,0,0,1,87.25,143.49Z"/><path class="cls-2" d="M80,136.22a2.42,2.42,0,1,1-2.43,2.42A2.42,2.42,0,0,1,80,136.22Z"/><path class="cls-2" d="M72.71,143.49a2.43,2.43,0,1,1-2.43,2.42A2.42,2.42,0,0,1,72.71,143.49Z"/><path class="cls-2" d="M65.43,136.22A2.42,2.42,0,1,1,63,138.64,2.42,2.42,0,0,1,65.43,136.22Z"/><path class="cls-2" d="M58.16,143.49a2.43,2.43,0,1,1-2.42,2.42A2.42,2.42,0,0,1,58.16,143.49Z"/><path class="cls-2" d="M50.89,136.22a2.42,2.42,0,1,1-2.43,2.42A2.42,2.42,0,0,1,50.89,136.22Z"/><path class="cls-2" d="M43.62,143.49a2.43,2.43,0,1,1-2.43,2.42A2.42,2.42,0,0,1,43.62,143.49Z"/><path class="cls-2" d="M36.34,136.22a2.42,2.42,0,1,1-2.42,2.42A2.42,2.42,0,0,1,36.34,136.22Z"/><path class="cls-2" d="M29.07,143.49a2.43,2.43,0,1,1-2.42,2.42A2.42,2.42,0,0,1,29.07,143.49Z"/><path class="cls-2" d="M21.8,136.22a2.42,2.42,0,1,1-2.43,2.42A2.42,2.42,0,0,1,21.8,136.22Z"/><path class="cls-2" d="M14.53,143.49a2.43,2.43,0,1,1-2.43,2.42A2.42,2.42,0,0,1,14.53,143.49Z"/><path class="cls-2" d="M7.25,141.06a2.43,2.43,0,0,1-2.15-1.29h0c.24-1,.5-2.07.75-3.09h0a2.42,2.42,0,1,1,1.4,4.4Z"/><path class="cls-2" d="M407.24,158a2.43,2.43,0,1,1-2.42,2.42A2.43,2.43,0,0,1,407.24,158Z"/><path class="cls-2" d="M400,150.76a2.43,2.43,0,1,1-2.42,2.42A2.42,2.42,0,0,1,400,150.76Z"/><path class="cls-2" d="M392.7,158a2.43,2.43,0,1,1-2.43,2.42A2.42,2.42,0,0,1,392.7,158Z"/><path class="cls-2" d="M385.43,150.76a2.43,2.43,0,1,1-2.43,2.42A2.42,2.42,0,0,1,385.43,150.76Z"/><path class="cls-2" d="M378.15,158a2.43,2.43,0,1,1-2.42,2.42A2.43,2.43,0,0,1,378.15,158Z"/><path class="cls-2" d="M370.88,150.76a2.43,2.43,0,1,1-2.42,2.42A2.42,2.42,0,0,1,370.88,150.76Z"/><path class="cls-2" d="M363.61,158a2.43,2.43,0,1,1-2.43,2.42A2.42,2.42,0,0,1,363.61,158Z"/><path class="cls-2" d="M356.34,150.76a2.43,2.43,0,1,1-2.43,2.42A2.42,2.42,0,0,1,356.34,150.76Z"/><path class="cls-2" d="M349.06,158a2.43,2.43,0,1,1-2.42,2.42A2.43,2.43,0,0,1,349.06,158Z"/><path class="cls-2" d="M341.79,150.76a2.43,2.43,0,1,1-2.42,2.42A2.42,2.42,0,0,1,341.79,150.76Z"/><path class="cls-2" d="M334.52,158a2.43,2.43,0,1,1-2.43,2.42A2.42,2.42,0,0,1,334.52,158Z"/><path class="cls-2" d="M327.25,150.76a2.43,2.43,0,1,1-2.43,2.42A2.42,2.42,0,0,1,327.25,150.76Z"/><path class="cls-2" d="M320,158a2.43,2.43,0,1,1-2.42,2.42A2.43,2.43,0,0,1,320,158Z"/><path class="cls-2" d="M312.7,150.76a2.43,2.43,0,1,1-2.42,2.42A2.42,2.42,0,0,1,312.7,150.76Z"/><path class="cls-2" d="M305.43,158a2.43,2.43,0,1,1-2.43,2.42A2.42,2.42,0,0,1,305.43,158Z"/><path class="cls-2" d="M298.16,150.76a2.43,2.43,0,1,1-2.43,2.42A2.42,2.42,0,0,1,298.16,150.76Z"/><path class="cls-2" d="M290.88,158a2.43,2.43,0,1,1-2.42,2.42A2.43,2.43,0,0,1,290.88,158Z"/><path class="cls-2" d="M283.61,150.76a2.43,2.43,0,1,1-2.42,2.42A2.42,2.42,0,0,1,283.61,150.76Z"/><path class="cls-2" d="M276.34,158a2.43,2.43,0,1,1-2.43,2.42A2.42,2.42,0,0,1,276.34,158Z"/><path class="cls-2" d="M269.06,150.76a2.43,2.43,0,1,1-2.42,2.42A2.42,2.42,0,0,1,269.06,150.76Z"/><path class="cls-2" d="M261.79,158a2.43,2.43,0,1,1-2.42,2.42A2.43,2.43,0,0,1,261.79,158Z"/><path class="cls-2" d="M254.52,150.76a2.43,2.43,0,1,1-2.42,2.42A2.42,2.42,0,0,1,254.52,150.76Z"/><path class="cls-2" d="M247.25,158a2.43,2.43,0,1,1-2.43,2.42A2.42,2.42,0,0,1,247.25,158Z"/><path class="cls-2" d="M240,150.76a2.43,2.43,0,1,1-2.42,2.42A2.42,2.42,0,0,1,240,150.76Z"/><path class="cls-2" d="M232.7,158a2.43,2.43,0,1,1-2.42,2.42A2.43,2.43,0,0,1,232.7,158Z"/><path class="cls-2" d="M225.43,150.76a2.43,2.43,0,1,1-2.42,2.42A2.42,2.42,0,0,1,225.43,150.76Z"/><path class="cls-2" d="M218.16,158a2.43,2.43,0,1,1-2.43,2.42A2.42,2.42,0,0,1,218.16,158Z"/><path class="cls-2" d="M210.89,150.76a2.43,2.43,0,1,1-2.43,2.42A2.42,2.42,0,0,1,210.89,150.76Z"/><path class="cls-2" d="M203.61,158a2.43,2.43,0,1,1-2.42,2.42A2.43,2.43,0,0,1,203.61,158Z"/><path class="cls-2" d="M196.34,150.76a2.43,2.43,0,1,1-2.42,2.42A2.42,2.42,0,0,1,196.34,150.76Z"/><path class="cls-2" d="M189.07,158a2.43,2.43,0,1,1-2.43,2.42A2.42,2.42,0,0,1,189.07,158Z"/><path class="cls-2" d="M181.79,150.76a2.43,2.43,0,1,1-2.42,2.42A2.42,2.42,0,0,1,181.79,150.76Z"/><path class="cls-2" d="M174.52,158a2.43,2.43,0,1,1-2.42,2.42A2.43,2.43,0,0,1,174.52,158Z"/><path class="cls-2" d="M167.25,150.76a2.43,2.43,0,1,1-2.42,2.42A2.42,2.42,0,0,1,167.25,150.76Z"/><path class="cls-2" d="M160,158a2.43,2.43,0,1,1-2.43,2.42A2.42,2.42,0,0,1,160,158Z"/><path class="cls-2" d="M152.7,150.76a2.43,2.43,0,1,1-2.42,2.42A2.42,2.42,0,0,1,152.7,150.76Z"/><path class="cls-2" d="M145.43,158a2.43,2.43,0,1,1-2.42,2.42A2.43,2.43,0,0,1,145.43,158Z"/><path class="cls-2" d="M138.16,150.76a2.43,2.43,0,1,1-2.42,2.42A2.42,2.42,0,0,1,138.16,150.76Z"/><path class="cls-2" d="M130.89,158a2.43,2.43,0,1,1-2.43,2.42A2.42,2.42,0,0,1,130.89,158Z"/><path class="cls-2" d="M123.61,150.76a2.43,2.43,0,1,1-2.42,2.42A2.42,2.42,0,0,1,123.61,150.76Z"/><path class="cls-2" d="M116.34,158a2.43,2.43,0,1,1-2.42,2.42A2.43,2.43,0,0,1,116.34,158Z"/><path class="cls-2" d="M109.07,150.76a2.43,2.43,0,1,1-2.42,2.42A2.42,2.42,0,0,1,109.07,150.76Z"/><path class="cls-2" d="M101.8,158a2.43,2.43,0,1,1-2.43,2.42A2.42,2.42,0,0,1,101.8,158Z"/><path class="cls-2" d="M94.52,150.76a2.43,2.43,0,1,1-2.42,2.42A2.42,2.42,0,0,1,94.52,150.76Z"/><path class="cls-2" d="M87.25,158a2.43,2.43,0,1,1-2.42,2.42A2.43,2.43,0,0,1,87.25,158Z"/><path class="cls-2" d="M80,150.76a2.43,2.43,0,1,1-2.43,2.42A2.42,2.42,0,0,1,80,150.76Z"/><path class="cls-2" d="M72.71,158a2.43,2.43,0,1,1-2.43,2.42A2.42,2.42,0,0,1,72.71,158Z"/><path class="cls-2" d="M65.43,150.76A2.43,2.43,0,1,1,63,153.18,2.42,2.42,0,0,1,65.43,150.76Z"/><path class="cls-2" d="M58.16,158a2.43,2.43,0,1,1-2.42,2.42A2.43,2.43,0,0,1,58.16,158Z"/><path class="cls-2" d="M50.89,150.76a2.43,2.43,0,1,1-2.43,2.42A2.42,2.42,0,0,1,50.89,150.76Z"/><path class="cls-2" d="M43.62,158a2.43,2.43,0,1,1-2.43,2.42A2.42,2.42,0,0,1,43.62,158Z"/><path class="cls-2" d="M36.34,150.76a2.43,2.43,0,1,1-2.42,2.42A2.42,2.42,0,0,1,36.34,150.76Z"/><path class="cls-2" d="M29.07,158a2.43,2.43,0,1,1-2.42,2.42A2.42,2.42,0,0,1,29.07,158Z"/><path class="cls-2" d="M21.8,150.76a2.43,2.43,0,1,1-2.43,2.42A2.42,2.42,0,0,1,21.8,150.76Z"/><path class="cls-2" d="M14.53,158a2.43,2.43,0,1,1-2.43,2.42A2.43,2.43,0,0,1,14.53,158Z"/><path class="cls-2" d="M7.25,150.76a2.43,2.43,0,1,1-2.42,2.42A2.42,2.42,0,0,1,7.25,150.76Z"/><path class="cls-2" d="M1.21,162.54c.15-1.28.29-2.55.47-3.82a2.44,2.44,0,0,1,.72,1.73A2.39,2.39,0,0,1,1.21,162.54Z"/><path class="cls-2" d="M421.79,177.42a2.43,2.43,0,1,1,2.42-2.43A2.43,2.43,0,0,1,421.79,177.42Z"/><path class="cls-2" d="M414.52,165.3a2.43,2.43,0,1,1-2.43,2.42A2.43,2.43,0,0,1,414.52,165.3Z"/><path class="cls-2" d="M407.24,172.57a2.43,2.43,0,1,1-2.42,2.42A2.43,2.43,0,0,1,407.24,172.57Z"/><path class="cls-2" d="M400,165.3a2.43,2.43,0,1,1-2.42,2.42A2.43,2.43,0,0,1,400,165.3Z"/><path class="cls-2" d="M392.7,172.57a2.43,2.43,0,1,1-2.43,2.42A2.42,2.42,0,0,1,392.7,172.57Z"/><path class="cls-2" d="M385.43,165.3a2.43,2.43,0,1,1-2.43,2.42A2.43,2.43,0,0,1,385.43,165.3Z"/><path class="cls-2" d="M378.15,172.57a2.43,2.43,0,1,1-2.42,2.42A2.43,2.43,0,0,1,378.15,172.57Z"/><path class="cls-2" d="M370.88,165.3a2.43,2.43,0,1,1-2.42,2.42A2.42,2.42,0,0,1,370.88,165.3Z"/><path class="cls-2" d="M363.61,172.57a2.43,2.43,0,1,1-2.43,2.42A2.42,2.42,0,0,1,363.61,172.57Z"/><path class="cls-2" d="M356.34,165.3a2.43,2.43,0,1,1-2.43,2.42A2.43,2.43,0,0,1,356.34,165.3Z"/><path class="cls-2" d="M349.06,172.57a2.43,2.43,0,1,1-2.42,2.42A2.43,2.43,0,0,1,349.06,172.57Z"/><path class="cls-2" d="M341.79,165.3a2.43,2.43,0,1,1-2.42,2.42A2.43,2.43,0,0,1,341.79,165.3Z"/><path class="cls-2" d="M334.52,172.57a2.43,2.43,0,1,1-2.43,2.42A2.42,2.42,0,0,1,334.52,172.57Z"/><path class="cls-2" d="M327.25,165.3a2.43,2.43,0,1,1-2.43,2.42A2.43,2.43,0,0,1,327.25,165.3Z"/><path class="cls-2" d="M320,172.57a2.43,2.43,0,1,1-2.42,2.42A2.43,2.43,0,0,1,320,172.57Z"/><path class="cls-2" d="M312.7,165.3a2.43,2.43,0,1,1-2.42,2.42A2.43,2.43,0,0,1,312.7,165.3Z"/><path class="cls-2" d="M305.43,172.57A2.43,2.43,0,1,1,303,175,2.42,2.42,0,0,1,305.43,172.57Z"/><path class="cls-2" d="M298.16,165.3a2.43,2.43,0,1,1-2.43,2.42A2.43,2.43,0,0,1,298.16,165.3Z"/><path class="cls-2" d="M290.88,172.57a2.43,2.43,0,1,1-2.42,2.42A2.43,2.43,0,0,1,290.88,172.57Z"/><path class="cls-2" d="M283.61,165.3a2.43,2.43,0,1,1-2.42,2.42A2.42,2.42,0,0,1,283.61,165.3Z"/><path class="cls-2" d="M276.34,172.57a2.43,2.43,0,1,1-2.43,2.42A2.42,2.42,0,0,1,276.34,172.57Z"/><path class="cls-2" d="M269.06,165.3a2.43,2.43,0,1,1-2.42,2.42A2.43,2.43,0,0,1,269.06,165.3Z"/><path class="cls-2" d="M261.79,172.57a2.43,2.43,0,1,1-2.42,2.42A2.43,2.43,0,0,1,261.79,172.57Z"/><path class="cls-2" d="M254.52,165.3a2.43,2.43,0,1,1-2.42,2.42A2.42,2.42,0,0,1,254.52,165.3Z"/><path class="cls-2" d="M247.25,172.57a2.43,2.43,0,1,1-2.43,2.42A2.42,2.42,0,0,1,247.25,172.57Z"/><path class="cls-2" d="M240,165.3a2.43,2.43,0,1,1-2.42,2.42A2.43,2.43,0,0,1,240,165.3Z"/><path class="cls-2" d="M232.7,172.57a2.43,2.43,0,1,1-2.42,2.42A2.43,2.43,0,0,1,232.7,172.57Z"/><path class="cls-2" d="M225.43,165.3a2.43,2.43,0,1,1-2.42,2.42A2.42,2.42,0,0,1,225.43,165.3Z"/><path class="cls-2" d="M218.16,172.57a2.43,2.43,0,1,1-2.43,2.42A2.42,2.42,0,0,1,218.16,172.57Z"/><path class="cls-2" d="M210.89,165.3a2.43,2.43,0,1,1-2.43,2.42A2.43,2.43,0,0,1,210.89,165.3Z"/><path class="cls-2" d="M203.61,172.57a2.43,2.43,0,1,1-2.42,2.42A2.43,2.43,0,0,1,203.61,172.57Z"/><path class="cls-2" d="M196.34,165.3a2.43,2.43,0,1,1-2.42,2.42A2.42,2.42,0,0,1,196.34,165.3Z"/><path class="cls-2" d="M189.07,172.57a2.43,2.43,0,1,1-2.43,2.42A2.42,2.42,0,0,1,189.07,172.57Z"/><path class="cls-2" d="M181.79,165.3a2.43,2.43,0,1,1-2.42,2.42A2.43,2.43,0,0,1,181.79,165.3Z"/><path class="cls-2" d="M174.52,172.57A2.43,2.43,0,1,1,172.1,175,2.43,2.43,0,0,1,174.52,172.57Z"/><path class="cls-2" d="M167.25,165.3a2.43,2.43,0,1,1-2.42,2.42A2.42,2.42,0,0,1,167.25,165.3Z"/><path class="cls-2" d="M160,172.57a2.43,2.43,0,1,1-2.43,2.42A2.42,2.42,0,0,1,160,172.57Z"/><path class="cls-2" d="M152.7,165.3a2.43,2.43,0,1,1-2.42,2.42A2.43,2.43,0,0,1,152.7,165.3Z"/><path class="cls-2" d="M145.43,172.57A2.43,2.43,0,1,1,143,175,2.43,2.43,0,0,1,145.43,172.57Z"/><path class="cls-2" d="M138.16,165.3a2.43,2.43,0,1,1-2.42,2.42A2.42,2.42,0,0,1,138.16,165.3Z"/><path class="cls-2" d="M130.89,172.57a2.43,2.43,0,1,1-2.43,2.42A2.42,2.42,0,0,1,130.89,172.57Z"/><path class="cls-2" d="M123.61,165.3a2.43,2.43,0,1,1-2.42,2.42A2.43,2.43,0,0,1,123.61,165.3Z"/><path class="cls-2" d="M116.34,172.57a2.43,2.43,0,1,1-2.42,2.42A2.43,2.43,0,0,1,116.34,172.57Z"/><path class="cls-2" d="M109.07,165.3a2.43,2.43,0,1,1-2.42,2.42A2.42,2.42,0,0,1,109.07,165.3Z"/><path class="cls-2" d="M101.8,172.57A2.43,2.43,0,1,1,99.37,175,2.42,2.42,0,0,1,101.8,172.57Z"/><path class="cls-2" d="M94.52,165.3a2.43,2.43,0,1,1-2.42,2.42A2.43,2.43,0,0,1,94.52,165.3Z"/><path class="cls-2" d="M87.25,172.57A2.43,2.43,0,1,1,84.83,175,2.43,2.43,0,0,1,87.25,172.57Z"/><path class="cls-2" d="M80,165.3a2.43,2.43,0,1,1-2.43,2.42A2.42,2.42,0,0,1,80,165.3Z"/><path class="cls-2" d="M72.71,172.57A2.43,2.43,0,1,1,70.28,175,2.42,2.42,0,0,1,72.71,172.57Z"/><path class="cls-2" d="M65.43,165.3A2.43,2.43,0,1,1,63,167.72,2.43,2.43,0,0,1,65.43,165.3Z"/><path class="cls-2" d="M58.16,172.57A2.43,2.43,0,1,1,55.74,175,2.43,2.43,0,0,1,58.16,172.57Z"/><path class="cls-2" d="M50.89,165.3a2.43,2.43,0,1,1-2.43,2.42A2.42,2.42,0,0,1,50.89,165.3Z"/><path class="cls-2" d="M43.62,172.57A2.43,2.43,0,1,1,41.19,175,2.42,2.42,0,0,1,43.62,172.57Z"/><path class="cls-2" d="M36.34,165.3a2.43,2.43,0,1,1-2.42,2.42A2.43,2.43,0,0,1,36.34,165.3Z"/><path class="cls-2" d="M29.07,172.57A2.43,2.43,0,1,1,26.65,175,2.42,2.42,0,0,1,29.07,172.57Z"/><path class="cls-2" d="M21.8,165.3a2.43,2.43,0,1,1-2.43,2.42A2.42,2.42,0,0,1,21.8,165.3Z"/><path class="cls-2" d="M14.53,172.57A2.43,2.43,0,1,1,12.1,175,2.43,2.43,0,0,1,14.53,172.57Z"/><path class="cls-2" d="M7.25,165.3a2.43,2.43,0,1,1-2.42,2.42A2.43,2.43,0,0,1,7.25,165.3Z"/><path class="cls-2" d="M.12,177.41c.05-1.61.13-3.21.23-4.81A2.41,2.41,0,0,1,2.4,175,2.42,2.42,0,0,1,.12,177.41Z"/><path class="cls-2" d="M429.06,179.84a2.12,2.12,0,0,1,.57.07c.54,1.18,1,2.38,1.51,3.61a2.43,2.43,0,1,1-2.08-3.68Z"/><circle class="cls-2" cx="421.79" cy="189.54" r="2.42"/><path class="cls-2" d="M414.52,179.84a2.43,2.43,0,1,1-2.43,2.42A2.43,2.43,0,0,1,414.52,179.84Z"/><path class="cls-2" d="M407.24,187.11a2.43,2.43,0,1,1-2.42,2.43A2.43,2.43,0,0,1,407.24,187.11Z"/><path class="cls-2" d="M400,179.84a2.43,2.43,0,1,1-2.42,2.42A2.43,2.43,0,0,1,400,179.84Z"/><circle class="cls-2" cx="392.7" cy="189.54" r="2.42"/><path class="cls-2" d="M385.43,179.84a2.43,2.43,0,1,1-2.43,2.42A2.43,2.43,0,0,1,385.43,179.84Z"/><path class="cls-2" d="M378.15,187.11a2.43,2.43,0,1,1-2.42,2.43A2.43,2.43,0,0,1,378.15,187.11Z"/><path class="cls-2" d="M370.88,179.84a2.43,2.43,0,1,1-2.42,2.42A2.42,2.42,0,0,1,370.88,179.84Z"/><path class="cls-2" d="M363.61,187.11a2.43,2.43,0,1,1-2.43,2.43A2.42,2.42,0,0,1,363.61,187.11Z"/><path class="cls-2" d="M356.34,179.84a2.43,2.43,0,1,1-2.43,2.42A2.43,2.43,0,0,1,356.34,179.84Z"/><circle class="cls-2" cx="349.06" cy="189.54" r="2.42"/><path class="cls-2" d="M341.79,179.84a2.43,2.43,0,1,1-2.42,2.42A2.43,2.43,0,0,1,341.79,179.84Z"/><path class="cls-2" d="M334.52,187.11a2.43,2.43,0,1,1-2.43,2.43A2.42,2.42,0,0,1,334.52,187.11Z"/><path class="cls-2" d="M327.25,179.84a2.43,2.43,0,1,1-2.43,2.42A2.43,2.43,0,0,1,327.25,179.84Z"/><circle class="cls-2" cx="319.97" cy="189.54" r="2.42"/><path class="cls-2" d="M312.7,179.84a2.43,2.43,0,1,1-2.42,2.42A2.43,2.43,0,0,1,312.7,179.84Z"/><path class="cls-2" d="M305.43,187.11a2.43,2.43,0,1,1-2.43,2.43A2.42,2.42,0,0,1,305.43,187.11Z"/><path class="cls-2" d="M298.16,179.84a2.43,2.43,0,1,1-2.43,2.42A2.43,2.43,0,0,1,298.16,179.84Z"/><path class="cls-2" d="M290.88,187.11a2.43,2.43,0,1,1-2.42,2.43A2.43,2.43,0,0,1,290.88,187.11Z"/><path class="cls-2" d="M283.61,179.84a2.43,2.43,0,1,1-2.42,2.42A2.42,2.42,0,0,1,283.61,179.84Z"/><circle class="cls-2" cx="276.34" cy="189.54" r="2.42"/><path class="cls-2" d="M269.06,179.84a2.43,2.43,0,1,1-2.42,2.42A2.43,2.43,0,0,1,269.06,179.84Z"/><path class="cls-2" d="M261.79,187.11a2.43,2.43,0,1,1-2.42,2.43A2.43,2.43,0,0,1,261.79,187.11Z"/><path class="cls-2" d="M254.52,179.84a2.43,2.43,0,1,1-2.42,2.42A2.42,2.42,0,0,1,254.52,179.84Z"/><path class="cls-2" d="M247.25,187.11a2.43,2.43,0,1,1-2.43,2.43A2.42,2.42,0,0,1,247.25,187.11Z"/><path class="cls-2" d="M240,179.84a2.43,2.43,0,1,1-2.42,2.42A2.43,2.43,0,0,1,240,179.84Z"/><path class="cls-2" d="M232.7,187.11a2.43,2.43,0,1,1-2.42,2.43A2.43,2.43,0,0,1,232.7,187.11Z"/><path class="cls-2" d="M225.43,179.84a2.43,2.43,0,1,1-2.42,2.42A2.42,2.42,0,0,1,225.43,179.84Z"/><circle class="cls-2" cx="218.16" cy="189.54" r="2.42"/><path class="cls-2" d="M210.89,179.84a2.43,2.43,0,1,1-2.43,2.42A2.43,2.43,0,0,1,210.89,179.84Z"/><path class="cls-2" d="M203.61,187.11a2.43,2.43,0,1,1-2.42,2.43A2.43,2.43,0,0,1,203.61,187.11Z"/><path class="cls-2" d="M196.34,179.84a2.43,2.43,0,1,1-2.42,2.42A2.42,2.42,0,0,1,196.34,179.84Z"/><path class="cls-2" d="M189.07,187.11a2.43,2.43,0,1,1-2.43,2.43A2.42,2.42,0,0,1,189.07,187.11Z"/><path class="cls-2" d="M181.79,179.84a2.43,2.43,0,1,1-2.42,2.42A2.43,2.43,0,0,1,181.79,179.84Z"/><path class="cls-2" d="M174.52,187.11a2.43,2.43,0,1,1-2.42,2.43A2.43,2.43,0,0,1,174.52,187.11Z"/><path class="cls-2" d="M167.25,179.84a2.43,2.43,0,1,1-2.42,2.42A2.42,2.42,0,0,1,167.25,179.84Z"/><circle class="cls-2" cx="159.98" cy="189.54" r="2.42"/><path class="cls-2" d="M152.7,179.84a2.43,2.43,0,1,1-2.42,2.42A2.43,2.43,0,0,1,152.7,179.84Z"/><path class="cls-2" d="M145.43,187.11a2.43,2.43,0,1,1-2.42,2.43A2.43,2.43,0,0,1,145.43,187.11Z"/><path class="cls-2" d="M138.16,179.84a2.43,2.43,0,1,1-2.42,2.42A2.42,2.42,0,0,1,138.16,179.84Z"/><path class="cls-2" d="M130.89,187.11a2.43,2.43,0,1,1-2.43,2.43A2.42,2.42,0,0,1,130.89,187.11Z"/><path class="cls-2" d="M123.61,179.84a2.43,2.43,0,1,1-2.42,2.42A2.43,2.43,0,0,1,123.61,179.84Z"/><path class="cls-2" d="M116.34,187.11a2.43,2.43,0,1,1-2.42,2.43A2.43,2.43,0,0,1,116.34,187.11Z"/><path class="cls-2" d="M109.07,179.84a2.43,2.43,0,1,1-2.42,2.42A2.42,2.42,0,0,1,109.07,179.84Z"/><path class="cls-2" d="M101.8,187.11a2.43,2.43,0,1,1-2.43,2.43A2.42,2.42,0,0,1,101.8,187.11Z"/><path class="cls-2" d="M94.52,179.84a2.43,2.43,0,1,1-2.42,2.42A2.43,2.43,0,0,1,94.52,179.84Z"/><path class="cls-2" d="M87.25,187.11a2.43,2.43,0,1,1-2.42,2.43A2.43,2.43,0,0,1,87.25,187.11Z"/><path class="cls-2" d="M80,179.84a2.43,2.43,0,1,1-2.43,2.42A2.42,2.42,0,0,1,80,179.84Z"/><path class="cls-2" d="M72.71,187.11a2.43,2.43,0,1,1-2.43,2.43A2.42,2.42,0,0,1,72.71,187.11Z"/><path class="cls-2" d="M65.43,179.84A2.43,2.43,0,1,1,63,182.26,2.43,2.43,0,0,1,65.43,179.84Z"/><path class="cls-2" d="M58.16,187.11a2.43,2.43,0,1,1-2.42,2.43A2.43,2.43,0,0,1,58.16,187.11Z"/><path class="cls-2" d="M50.89,179.84a2.43,2.43,0,1,1-2.43,2.42A2.42,2.42,0,0,1,50.89,179.84Z"/><path class="cls-2" d="M43.62,187.11a2.43,2.43,0,1,1-2.43,2.43A2.42,2.42,0,0,1,43.62,187.11Z"/><path class="cls-2" d="M36.34,179.84a2.43,2.43,0,1,1-2.42,2.42A2.43,2.43,0,0,1,36.34,179.84Z"/><path class="cls-2" d="M29.07,187.11a2.43,2.43,0,1,1-2.42,2.43A2.42,2.42,0,0,1,29.07,187.11Z"/><path class="cls-2" d="M21.8,179.84a2.43,2.43,0,1,1-2.43,2.42A2.42,2.42,0,0,1,21.8,179.84Z"/><circle class="cls-2" cx="14.53" cy="189.54" r="2.42"/><path class="cls-2" d="M7.25,179.84a2.43,2.43,0,1,1-2.42,2.42A2.43,2.43,0,0,1,7.25,179.84Z"/><path class="cls-2" d="M2.4,189.54A2.41,2.41,0,0,1,.12,192c-.06-1.62-.1-3.23-.12-4.84A2.43,2.43,0,0,1,2.4,189.54Z"/><path class="cls-2" d="M435.7,201.74c.2,1.56.35,3.15.45,4.75a2.42,2.42,0,0,1-.45-4.75Z"/><path class="cls-2" d="M429.06,194.38a2.43,2.43,0,1,1-2.42,2.43A2.43,2.43,0,0,1,429.06,194.38Z"/><path class="cls-2" d="M421.79,206.5a2.43,2.43,0,1,1,2.42-2.42A2.42,2.42,0,0,1,421.79,206.5Z"/><path class="cls-2" d="M414.52,194.38a2.43,2.43,0,1,1-2.43,2.43A2.43,2.43,0,0,1,414.52,194.38Z"/><path class="cls-2" d="M407.24,201.65a2.43,2.43,0,1,1-2.42,2.43A2.43,2.43,0,0,1,407.24,201.65Z"/><path class="cls-2" d="M400,194.38a2.43,2.43,0,1,1-2.42,2.43A2.43,2.43,0,0,1,400,194.38Z"/><path class="cls-2" d="M392.7,201.65a2.43,2.43,0,1,1-2.43,2.43A2.42,2.42,0,0,1,392.7,201.65Z"/><path class="cls-2" d="M385.43,194.38a2.43,2.43,0,1,1-2.43,2.43A2.43,2.43,0,0,1,385.43,194.38Z"/><path class="cls-2" d="M378.15,201.65a2.43,2.43,0,1,1-2.42,2.43A2.43,2.43,0,0,1,378.15,201.65Z"/><path class="cls-2" d="M370.88,194.38a2.43,2.43,0,1,1-2.42,2.43A2.42,2.42,0,0,1,370.88,194.38Z"/><path class="cls-2" d="M363.61,201.65a2.43,2.43,0,1,1-2.43,2.43A2.42,2.42,0,0,1,363.61,201.65Z"/><path class="cls-2" d="M356.34,194.38a2.43,2.43,0,1,1-2.43,2.43A2.43,2.43,0,0,1,356.34,194.38Z"/><path class="cls-2" d="M349.06,201.65a2.43,2.43,0,1,1-2.42,2.43A2.43,2.43,0,0,1,349.06,201.65Z"/><path class="cls-2" d="M341.79,194.38a2.43,2.43,0,1,1-2.42,2.43A2.43,2.43,0,0,1,341.79,194.38Z"/><path class="cls-2" d="M334.52,201.65a2.43,2.43,0,1,1-2.43,2.43A2.42,2.42,0,0,1,334.52,201.65Z"/><path class="cls-2" d="M327.25,194.38a2.43,2.43,0,1,1-2.43,2.43A2.43,2.43,0,0,1,327.25,194.38Z"/><path class="cls-2" d="M320,201.65a2.43,2.43,0,1,1-2.42,2.43A2.43,2.43,0,0,1,320,201.65Z"/><path class="cls-2" d="M312.7,194.38a2.43,2.43,0,1,1-2.42,2.43A2.43,2.43,0,0,1,312.7,194.38Z"/><path class="cls-2" d="M305.43,201.65a2.43,2.43,0,1,1-2.43,2.43A2.42,2.42,0,0,1,305.43,201.65Z"/><path class="cls-2" d="M298.16,194.38a2.43,2.43,0,1,1-2.43,2.43A2.43,2.43,0,0,1,298.16,194.38Z"/><path class="cls-2" d="M290.88,201.65a2.43,2.43,0,1,1-2.42,2.43A2.43,2.43,0,0,1,290.88,201.65Z"/><path class="cls-2" d="M283.61,194.38a2.43,2.43,0,1,1-2.42,2.43A2.42,2.42,0,0,1,283.61,194.38Z"/><path class="cls-2" d="M276.34,201.65a2.43,2.43,0,1,1-2.43,2.43A2.42,2.42,0,0,1,276.34,201.65Z"/><path class="cls-2" d="M269.06,194.38a2.43,2.43,0,1,1-2.42,2.43A2.43,2.43,0,0,1,269.06,194.38Z"/><path class="cls-2" d="M261.79,201.65a2.43,2.43,0,1,1-2.42,2.43A2.43,2.43,0,0,1,261.79,201.65Z"/><path class="cls-2" d="M254.52,194.38a2.43,2.43,0,1,1-2.42,2.43A2.42,2.42,0,0,1,254.52,194.38Z"/><path class="cls-2" d="M247.25,201.65a2.43,2.43,0,1,1-2.43,2.43A2.42,2.42,0,0,1,247.25,201.65Z"/><path class="cls-2" d="M240,194.38a2.43,2.43,0,1,1-2.42,2.43A2.43,2.43,0,0,1,240,194.38Z"/><path class="cls-2" d="M232.7,201.65a2.43,2.43,0,1,1-2.42,2.43A2.43,2.43,0,0,1,232.7,201.65Z"/><path class="cls-2" d="M225.43,194.38a2.43,2.43,0,1,1-2.42,2.43A2.42,2.42,0,0,1,225.43,194.38Z"/><path class="cls-2" d="M218.16,201.65a2.43,2.43,0,1,1-2.43,2.43A2.42,2.42,0,0,1,218.16,201.65Z"/><path class="cls-2" d="M210.89,194.38a2.43,2.43,0,1,1-2.43,2.43A2.43,2.43,0,0,1,210.89,194.38Z"/><path class="cls-2" d="M203.61,201.65a2.43,2.43,0,1,1-2.42,2.43A2.43,2.43,0,0,1,203.61,201.65Z"/><path class="cls-2" d="M196.34,194.38a2.43,2.43,0,1,1-2.42,2.43A2.42,2.42,0,0,1,196.34,194.38Z"/><path class="cls-2" d="M189.07,201.65a2.43,2.43,0,1,1-2.43,2.43A2.42,2.42,0,0,1,189.07,201.65Z"/><path class="cls-2" d="M181.79,194.38a2.43,2.43,0,1,1-2.42,2.43A2.43,2.43,0,0,1,181.79,194.38Z"/><path class="cls-2" d="M174.52,201.65a2.43,2.43,0,1,1-2.42,2.43A2.43,2.43,0,0,1,174.52,201.65Z"/><path class="cls-2" d="M167.25,194.38a2.43,2.43,0,1,1-2.42,2.43A2.42,2.42,0,0,1,167.25,194.38Z"/><path class="cls-2" d="M160,201.65a2.43,2.43,0,1,1-2.43,2.43A2.42,2.42,0,0,1,160,201.65Z"/><path class="cls-2" d="M152.7,194.38a2.43,2.43,0,1,1-2.42,2.43A2.43,2.43,0,0,1,152.7,194.38Z"/><path class="cls-2" d="M145.43,201.65a2.43,2.43,0,1,1-2.42,2.43A2.43,2.43,0,0,1,145.43,201.65Z"/><path class="cls-2" d="M138.16,194.38a2.43,2.43,0,1,1-2.42,2.43A2.42,2.42,0,0,1,138.16,194.38Z"/><path class="cls-2" d="M130.89,201.65a2.43,2.43,0,1,1-2.43,2.43A2.42,2.42,0,0,1,130.89,201.65Z"/><path class="cls-2" d="M123.61,194.38a2.43,2.43,0,1,1-2.42,2.43A2.43,2.43,0,0,1,123.61,194.38Z"/><path class="cls-2" d="M116.34,201.65a2.43,2.43,0,1,1-2.42,2.43A2.43,2.43,0,0,1,116.34,201.65Z"/><path class="cls-2" d="M109.07,194.38a2.43,2.43,0,1,1-2.42,2.43A2.42,2.42,0,0,1,109.07,194.38Z"/><path class="cls-2" d="M101.8,201.65a2.43,2.43,0,1,1-2.43,2.43A2.42,2.42,0,0,1,101.8,201.65Z"/><path class="cls-2" d="M94.52,194.38a2.43,2.43,0,1,1-2.42,2.43A2.43,2.43,0,0,1,94.52,194.38Z"/><path class="cls-2" d="M87.25,201.65a2.43,2.43,0,1,1-2.42,2.43A2.43,2.43,0,0,1,87.25,201.65Z"/><path class="cls-2" d="M80,194.38a2.43,2.43,0,1,1-2.43,2.43A2.42,2.42,0,0,1,80,194.38Z"/><path class="cls-2" d="M72.71,201.65a2.43,2.43,0,1,1-2.43,2.43A2.42,2.42,0,0,1,72.71,201.65Z"/><path class="cls-2" d="M65.43,194.38A2.43,2.43,0,1,1,63,196.81,2.43,2.43,0,0,1,65.43,194.38Z"/><path class="cls-2" d="M58.16,201.65a2.43,2.43,0,1,1-2.42,2.43A2.43,2.43,0,0,1,58.16,201.65Z"/><path class="cls-2" d="M50.89,194.38a2.43,2.43,0,1,1-2.43,2.43A2.42,2.42,0,0,1,50.89,194.38Z"/><path class="cls-2" d="M43.62,201.65a2.43,2.43,0,1,1-2.43,2.43A2.42,2.42,0,0,1,43.62,201.65Z"/><path class="cls-2" d="M36.34,194.38a2.43,2.43,0,1,1-2.42,2.43A2.43,2.43,0,0,1,36.34,194.38Z"/><path class="cls-2" d="M29.07,201.65a2.43,2.43,0,1,1-2.42,2.43A2.42,2.42,0,0,1,29.07,201.65Z"/><path class="cls-2" d="M21.8,194.38a2.43,2.43,0,1,1-2.43,2.43A2.42,2.42,0,0,1,21.8,194.38Z"/><path class="cls-2" d="M14.53,201.65a2.43,2.43,0,1,1-2.43,2.43A2.43,2.43,0,0,1,14.53,201.65Z"/><path class="cls-2" d="M7.25,194.38a2.43,2.43,0,1,1-2.42,2.43A2.43,2.43,0,0,1,7.25,194.38Z"/><path class="cls-2" d="M2.4,204.08a2.42,2.42,0,0,1-1.23,2.11c-.16-1.47-.31-2.95-.42-4.41A2.42,2.42,0,0,1,2.4,204.08Z"/><path class="cls-2" d="M436.23,216.2c-.08,1.58-.2,3.19-.37,4.79a2.42,2.42,0,0,1,.37-4.79Z"/><path class="cls-2" d="M429.06,208.92a2.43,2.43,0,1,1-2.42,2.43A2.43,2.43,0,0,1,429.06,208.92Z"/><path class="cls-2" d="M421.79,221a2.42,2.42,0,1,1,2.42-2.42A2.42,2.42,0,0,1,421.79,221Z"/><path class="cls-2" d="M414.52,208.92a2.43,2.43,0,1,1-2.43,2.43A2.43,2.43,0,0,1,414.52,208.92Z"/><path class="cls-2" d="M407.24,216.2a2.42,2.42,0,1,1-2.42,2.42A2.42,2.42,0,0,1,407.24,216.2Z"/><path class="cls-2" d="M400,208.92a2.43,2.43,0,1,1-2.42,2.43A2.43,2.43,0,0,1,400,208.92Z"/><path class="cls-2" d="M392.7,216.2a2.42,2.42,0,1,1-2.43,2.42A2.42,2.42,0,0,1,392.7,216.2Z"/><path class="cls-2" d="M385.43,208.92a2.43,2.43,0,1,1-2.43,2.43A2.43,2.43,0,0,1,385.43,208.92Z"/><path class="cls-2" d="M378.15,216.2a2.42,2.42,0,1,1-2.42,2.42A2.42,2.42,0,0,1,378.15,216.2Z"/><path class="cls-2" d="M370.88,208.92a2.43,2.43,0,1,1-2.42,2.43A2.42,2.42,0,0,1,370.88,208.92Z"/><path class="cls-2" d="M363.61,216.2a2.42,2.42,0,1,1-2.43,2.42A2.42,2.42,0,0,1,363.61,216.2Z"/><path class="cls-2" d="M356.34,208.92a2.43,2.43,0,1,1-2.43,2.43A2.43,2.43,0,0,1,356.34,208.92Z"/><path class="cls-2" d="M349.06,216.2a2.42,2.42,0,1,1-2.42,2.42A2.42,2.42,0,0,1,349.06,216.2Z"/><path class="cls-2" d="M341.79,208.92a2.43,2.43,0,1,1-2.42,2.43A2.43,2.43,0,0,1,341.79,208.92Z"/><path class="cls-2" d="M334.52,216.2a2.42,2.42,0,1,1-2.43,2.42A2.42,2.42,0,0,1,334.52,216.2Z"/><path class="cls-2" d="M327.25,208.92a2.43,2.43,0,1,1-2.43,2.43A2.43,2.43,0,0,1,327.25,208.92Z"/><path class="cls-2" d="M320,216.2a2.42,2.42,0,1,1-2.42,2.42A2.42,2.42,0,0,1,320,216.2Z"/><path class="cls-2" d="M312.7,208.92a2.43,2.43,0,1,1-2.42,2.43A2.43,2.43,0,0,1,312.7,208.92Z"/><path class="cls-2" d="M305.43,216.2a2.42,2.42,0,1,1-2.43,2.42A2.42,2.42,0,0,1,305.43,216.2Z"/><path class="cls-2" d="M298.16,208.92a2.43,2.43,0,1,1-2.43,2.43A2.43,2.43,0,0,1,298.16,208.92Z"/><path class="cls-2" d="M290.88,216.2a2.42,2.42,0,1,1-2.42,2.42A2.42,2.42,0,0,1,290.88,216.2Z"/><path class="cls-2" d="M283.61,208.92a2.43,2.43,0,1,1-2.42,2.43A2.42,2.42,0,0,1,283.61,208.92Z"/><path class="cls-2" d="M276.34,216.2a2.42,2.42,0,1,1-2.43,2.42A2.42,2.42,0,0,1,276.34,216.2Z"/><path class="cls-2" d="M269.06,208.92a2.43,2.43,0,1,1-2.42,2.43A2.43,2.43,0,0,1,269.06,208.92Z"/><path class="cls-2" d="M261.79,216.2a2.42,2.42,0,1,1-2.42,2.42A2.42,2.42,0,0,1,261.79,216.2Z"/><path class="cls-2" d="M254.52,208.92a2.43,2.43,0,1,1-2.42,2.43A2.42,2.42,0,0,1,254.52,208.92Z"/><path class="cls-2" d="M247.25,216.2a2.42,2.42,0,1,1-2.43,2.42A2.42,2.42,0,0,1,247.25,216.2Z"/><path class="cls-2" d="M240,208.92a2.43,2.43,0,1,1-2.42,2.43A2.43,2.43,0,0,1,240,208.92Z"/><path class="cls-2" d="M232.7,216.2a2.42,2.42,0,1,1-2.42,2.42A2.42,2.42,0,0,1,232.7,216.2Z"/><path class="cls-2" d="M225.43,208.92a2.43,2.43,0,1,1-2.42,2.43A2.42,2.42,0,0,1,225.43,208.92Z"/><path class="cls-2" d="M218.16,216.2a2.42,2.42,0,1,1-2.43,2.42A2.42,2.42,0,0,1,218.16,216.2Z"/><path class="cls-2" d="M210.89,208.92a2.43,2.43,0,1,1-2.43,2.43A2.43,2.43,0,0,1,210.89,208.92Z"/><path class="cls-2" d="M203.61,216.2a2.42,2.42,0,1,1-2.42,2.42A2.42,2.42,0,0,1,203.61,216.2Z"/><path class="cls-2" d="M196.34,208.92a2.43,2.43,0,1,1-2.42,2.43A2.42,2.42,0,0,1,196.34,208.92Z"/><path class="cls-2" d="M189.07,216.2a2.42,2.42,0,1,1-2.43,2.42A2.42,2.42,0,0,1,189.07,216.2Z"/><path class="cls-2" d="M181.79,208.92a2.43,2.43,0,1,1-2.42,2.43A2.43,2.43,0,0,1,181.79,208.92Z"/><path class="cls-2" d="M174.52,216.2a2.42,2.42,0,1,1-2.42,2.42A2.42,2.42,0,0,1,174.52,216.2Z"/><path class="cls-2" d="M167.25,208.92a2.43,2.43,0,1,1-2.42,2.43A2.42,2.42,0,0,1,167.25,208.92Z"/><path class="cls-2" d="M160,216.2a2.42,2.42,0,1,1-2.43,2.42A2.42,2.42,0,0,1,160,216.2Z"/><path class="cls-2" d="M152.7,208.92a2.43,2.43,0,1,1-2.42,2.43A2.43,2.43,0,0,1,152.7,208.92Z"/><path class="cls-2" d="M145.43,216.2a2.42,2.42,0,1,1-2.42,2.42A2.42,2.42,0,0,1,145.43,216.2Z"/><path class="cls-2" d="M138.16,208.92a2.43,2.43,0,1,1-2.42,2.43A2.42,2.42,0,0,1,138.16,208.92Z"/><path class="cls-2" d="M130.89,216.2a2.42,2.42,0,1,1-2.43,2.42A2.42,2.42,0,0,1,130.89,216.2Z"/><path class="cls-2" d="M123.61,208.92a2.43,2.43,0,1,1-2.42,2.43A2.43,2.43,0,0,1,123.61,208.92Z"/><path class="cls-2" d="M116.34,216.2a2.42,2.42,0,1,1-2.42,2.42A2.42,2.42,0,0,1,116.34,216.2Z"/><path class="cls-2" d="M109.07,208.92a2.43,2.43,0,1,1-2.42,2.43A2.42,2.42,0,0,1,109.07,208.92Z"/><path class="cls-2" d="M101.8,216.2a2.42,2.42,0,1,1-2.43,2.42A2.42,2.42,0,0,1,101.8,216.2Z"/><path class="cls-2" d="M94.52,208.92a2.43,2.43,0,1,1-2.42,2.43A2.43,2.43,0,0,1,94.52,208.92Z"/><path class="cls-2" d="M87.25,216.2a2.42,2.42,0,1,1-2.42,2.42A2.42,2.42,0,0,1,87.25,216.2Z"/><path class="cls-2" d="M80,208.92a2.43,2.43,0,1,1-2.43,2.43A2.42,2.42,0,0,1,80,208.92Z"/><path class="cls-2" d="M72.71,216.2a2.42,2.42,0,1,1-2.43,2.42A2.42,2.42,0,0,1,72.71,216.2Z"/><path class="cls-2" d="M65.43,208.92A2.43,2.43,0,1,1,63,211.35,2.43,2.43,0,0,1,65.43,208.92Z"/><path class="cls-2" d="M58.16,216.2a2.42,2.42,0,1,1-2.42,2.42A2.42,2.42,0,0,1,58.16,216.2Z"/><path class="cls-2" d="M50.89,208.92a2.43,2.43,0,1,1-2.43,2.43A2.42,2.42,0,0,1,50.89,208.92Z"/><path class="cls-2" d="M43.62,216.2a2.42,2.42,0,1,1-2.43,2.42A2.42,2.42,0,0,1,43.62,216.2Z"/><path class="cls-2" d="M36.34,208.92a2.43,2.43,0,1,1-2.42,2.43A2.43,2.43,0,0,1,36.34,208.92Z"/><path class="cls-2" d="M29.07,216.2a2.42,2.42,0,1,1-2.42,2.42A2.42,2.42,0,0,1,29.07,216.2Z"/><path class="cls-2" d="M21.8,208.92a2.43,2.43,0,1,1-2.43,2.43A2.42,2.42,0,0,1,21.8,208.92Z"/><path class="cls-2" d="M14.53,216.2a2.42,2.42,0,1,1-2.43,2.42A2.42,2.42,0,0,1,14.53,216.2Z"/><path class="cls-2" d="M7.25,208.92a2.43,2.43,0,1,1-2.42,2.43A2.43,2.43,0,0,1,7.25,208.92Z"/><path class="cls-2" d="M429.06,223.47a2.42,2.42,0,1,1-2.42,2.42A2.42,2.42,0,0,1,429.06,223.47Z"/><path class="cls-2" d="M421.79,235.58a2.42,2.42,0,1,1,2.42-2.42A2.42,2.42,0,0,1,421.79,235.58Z"/><path class="cls-2" d="M414.52,223.47a2.42,2.42,0,1,1-2.43,2.42A2.42,2.42,0,0,1,414.52,223.47Z"/><path class="cls-2" d="M407.24,230.74a2.42,2.42,0,1,1-2.42,2.42A2.42,2.42,0,0,1,407.24,230.74Z"/><path class="cls-2" d="M400,223.47a2.42,2.42,0,1,1-2.42,2.42A2.42,2.42,0,0,1,400,223.47Z"/><path class="cls-2" d="M392.7,230.74a2.42,2.42,0,1,1-2.43,2.42A2.42,2.42,0,0,1,392.7,230.74Z"/><path class="cls-2" d="M385.43,223.47a2.42,2.42,0,1,1-2.43,2.42A2.42,2.42,0,0,1,385.43,223.47Z"/><path class="cls-2" d="M378.15,230.74a2.42,2.42,0,1,1-2.42,2.42A2.42,2.42,0,0,1,378.15,230.74Z"/><path class="cls-2" d="M370.88,223.47a2.42,2.42,0,1,1-2.42,2.42A2.42,2.42,0,0,1,370.88,223.47Z"/><path class="cls-2" d="M363.61,230.74a2.42,2.42,0,1,1-2.43,2.42A2.42,2.42,0,0,1,363.61,230.74Z"/><path class="cls-2" d="M356.34,223.47a2.42,2.42,0,1,1-2.43,2.42A2.42,2.42,0,0,1,356.34,223.47Z"/><path class="cls-2" d="M349.06,230.74a2.42,2.42,0,1,1-2.42,2.42A2.42,2.42,0,0,1,349.06,230.74Z"/><path class="cls-2" d="M341.79,223.47a2.42,2.42,0,1,1-2.42,2.42A2.42,2.42,0,0,1,341.79,223.47Z"/><path class="cls-2" d="M334.52,230.74a2.42,2.42,0,1,1-2.43,2.42A2.42,2.42,0,0,1,334.52,230.74Z"/><path class="cls-2" d="M327.25,223.47a2.42,2.42,0,1,1-2.43,2.42A2.42,2.42,0,0,1,327.25,223.47Z"/><path class="cls-2" d="M320,230.74a2.42,2.42,0,1,1-2.42,2.42A2.42,2.42,0,0,1,320,230.74Z"/><path class="cls-2" d="M312.7,223.47a2.42,2.42,0,1,1-2.42,2.42A2.42,2.42,0,0,1,312.7,223.47Z"/><path class="cls-2" d="M305.43,230.74a2.42,2.42,0,1,1-2.43,2.42A2.42,2.42,0,0,1,305.43,230.74Z"/><path class="cls-2" d="M298.16,223.47a2.42,2.42,0,1,1-2.43,2.42A2.42,2.42,0,0,1,298.16,223.47Z"/><path class="cls-2" d="M290.88,230.74a2.42,2.42,0,1,1-2.42,2.42A2.42,2.42,0,0,1,290.88,230.74Z"/><path class="cls-2" d="M283.61,223.47a2.42,2.42,0,1,1-2.42,2.42A2.42,2.42,0,0,1,283.61,223.47Z"/><path class="cls-2" d="M276.34,230.74a2.42,2.42,0,1,1-2.43,2.42A2.42,2.42,0,0,1,276.34,230.74Z"/><path class="cls-2" d="M269.06,223.47a2.42,2.42,0,1,1-2.42,2.42A2.42,2.42,0,0,1,269.06,223.47Z"/><path class="cls-2" d="M261.79,230.74a2.42,2.42,0,1,1-2.42,2.42A2.42,2.42,0,0,1,261.79,230.74Z"/><path class="cls-2" d="M254.52,223.47a2.42,2.42,0,1,1-2.42,2.42A2.42,2.42,0,0,1,254.52,223.47Z"/><path class="cls-2" d="M247.25,230.74a2.42,2.42,0,1,1-2.43,2.42A2.42,2.42,0,0,1,247.25,230.74Z"/><path class="cls-2" d="M240,223.47a2.42,2.42,0,1,1-2.42,2.42A2.42,2.42,0,0,1,240,223.47Z"/><path class="cls-2" d="M232.7,230.74a2.42,2.42,0,1,1-2.42,2.42A2.42,2.42,0,0,1,232.7,230.74Z"/><path class="cls-2" d="M225.43,223.47a2.42,2.42,0,1,1-2.42,2.42A2.42,2.42,0,0,1,225.43,223.47Z"/><path class="cls-2" d="M218.16,230.74a2.42,2.42,0,1,1-2.43,2.42A2.42,2.42,0,0,1,218.16,230.74Z"/><path class="cls-2" d="M210.89,223.47a2.42,2.42,0,1,1-2.43,2.42A2.42,2.42,0,0,1,210.89,223.47Z"/><path class="cls-2" d="M203.61,230.74a2.42,2.42,0,1,1-2.42,2.42A2.42,2.42,0,0,1,203.61,230.74Z"/><path class="cls-2" d="M196.34,223.47a2.42,2.42,0,1,1-2.42,2.42A2.42,2.42,0,0,1,196.34,223.47Z"/><path class="cls-2" d="M189.07,230.74a2.42,2.42,0,1,1-2.43,2.42A2.42,2.42,0,0,1,189.07,230.74Z"/><path class="cls-2" d="M181.79,223.47a2.42,2.42,0,1,1-2.42,2.42A2.42,2.42,0,0,1,181.79,223.47Z"/><path class="cls-2" d="M174.52,230.74a2.42,2.42,0,1,1-2.42,2.42A2.42,2.42,0,0,1,174.52,230.74Z"/><path class="cls-2" d="M167.25,223.47a2.42,2.42,0,1,1-2.42,2.42A2.42,2.42,0,0,1,167.25,223.47Z"/><path class="cls-2" d="M160,230.74a2.42,2.42,0,1,1-2.43,2.42A2.42,2.42,0,0,1,160,230.74Z"/><path class="cls-2" d="M152.7,223.47a2.42,2.42,0,1,1-2.42,2.42A2.42,2.42,0,0,1,152.7,223.47Z"/><path class="cls-2" d="M145.43,230.74a2.42,2.42,0,1,1-2.42,2.42A2.42,2.42,0,0,1,145.43,230.74Z"/><path class="cls-2" d="M138.16,223.47a2.42,2.42,0,1,1-2.42,2.42A2.42,2.42,0,0,1,138.16,223.47Z"/><path class="cls-2" d="M130.89,230.74a2.42,2.42,0,1,1-2.43,2.42A2.42,2.42,0,0,1,130.89,230.74Z"/><path class="cls-2" d="M123.61,223.47a2.42,2.42,0,1,1-2.42,2.42A2.42,2.42,0,0,1,123.61,223.47Z"/><path class="cls-2" d="M116.34,230.74a2.42,2.42,0,1,1-2.42,2.42A2.42,2.42,0,0,1,116.34,230.74Z"/><path class="cls-2" d="M109.07,223.47a2.42,2.42,0,1,1-2.42,2.42A2.42,2.42,0,0,1,109.07,223.47Z"/><path class="cls-2" d="M101.8,230.74a2.42,2.42,0,1,1-2.43,2.42A2.42,2.42,0,0,1,101.8,230.74Z"/><path class="cls-2" d="M94.52,223.47a2.42,2.42,0,1,1-2.42,2.42A2.42,2.42,0,0,1,94.52,223.47Z"/><path class="cls-2" d="M87.25,230.74a2.42,2.42,0,1,1-2.42,2.42A2.42,2.42,0,0,1,87.25,230.74Z"/><path class="cls-2" d="M80,223.47a2.42,2.42,0,1,1-2.43,2.42A2.42,2.42,0,0,1,80,223.47Z"/><path class="cls-2" d="M72.71,230.74a2.42,2.42,0,1,1-2.43,2.42A2.42,2.42,0,0,1,72.71,230.74Z"/><path class="cls-2" d="M65.43,223.47A2.42,2.42,0,1,1,63,225.89,2.42,2.42,0,0,1,65.43,223.47Z"/><path class="cls-2" d="M58.16,230.74a2.42,2.42,0,1,1-2.42,2.42A2.42,2.42,0,0,1,58.16,230.74Z"/><path class="cls-2" d="M50.89,223.47a2.42,2.42,0,1,1-2.43,2.42A2.42,2.42,0,0,1,50.89,223.47Z"/><path class="cls-2" d="M43.62,230.74a2.42,2.42,0,1,1-2.43,2.42A2.42,2.42,0,0,1,43.62,230.74Z"/><path class="cls-2" d="M36.34,223.47a2.42,2.42,0,1,1-2.42,2.42A2.42,2.42,0,0,1,36.34,223.47Z"/><path class="cls-2" d="M29.07,230.74a2.42,2.42,0,1,1-2.42,2.42A2.42,2.42,0,0,1,29.07,230.74Z"/><path class="cls-2" d="M21.8,223.47a2.42,2.42,0,1,1-2.43,2.42A2.42,2.42,0,0,1,21.8,223.47Z"/><path class="cls-2" d="M14.53,230.74a2.42,2.42,0,1,1-2.43,2.42A2.42,2.42,0,0,1,14.53,230.74Z"/><path class="cls-2" d="M7.25,223.47a2.42,2.42,0,1,1-2.42,2.42A2.42,2.42,0,0,1,7.25,223.47Z"/><path class="cls-2" d="M429.06,238a2.42,2.42,0,1,1-2.42,2.42A2.42,2.42,0,0,1,429.06,238Z"/><path class="cls-2" d="M419.36,247.7a2.43,2.43,0,1,1,2.43,2.42A2.42,2.42,0,0,1,419.36,247.7Z"/><path class="cls-2" d="M414.52,238a2.42,2.42,0,1,1-2.43,2.42A2.42,2.42,0,0,1,414.52,238Z"/><path class="cls-2" d="M407.24,245.28a2.42,2.42,0,1,1-2.42,2.42A2.42,2.42,0,0,1,407.24,245.28Z"/><path class="cls-2" d="M400,238a2.42,2.42,0,1,1-2.42,2.42A2.42,2.42,0,0,1,400,238Z"/><path class="cls-2" d="M392.7,245.28a2.42,2.42,0,1,1-2.43,2.42A2.42,2.42,0,0,1,392.7,245.28Z"/><path class="cls-2" d="M385.43,238a2.42,2.42,0,1,1-2.43,2.42A2.42,2.42,0,0,1,385.43,238Z"/><path class="cls-2" d="M378.15,245.28a2.42,2.42,0,1,1-2.42,2.42A2.42,2.42,0,0,1,378.15,245.28Z"/><path class="cls-2" d="M370.88,238a2.42,2.42,0,1,1-2.42,2.42A2.42,2.42,0,0,1,370.88,238Z"/><path class="cls-2" d="M363.61,245.28a2.42,2.42,0,1,1-2.43,2.42A2.42,2.42,0,0,1,363.61,245.28Z"/><path class="cls-2" d="M356.34,238a2.42,2.42,0,1,1-2.43,2.42A2.42,2.42,0,0,1,356.34,238Z"/><path class="cls-2" d="M349.06,245.28a2.42,2.42,0,1,1-2.42,2.42A2.42,2.42,0,0,1,349.06,245.28Z"/><path class="cls-2" d="M341.79,238a2.42,2.42,0,1,1-2.42,2.42A2.42,2.42,0,0,1,341.79,238Z"/><path class="cls-2" d="M334.52,245.28a2.42,2.42,0,1,1-2.43,2.42A2.42,2.42,0,0,1,334.52,245.28Z"/><path class="cls-2" d="M327.25,238a2.42,2.42,0,1,1-2.43,2.42A2.42,2.42,0,0,1,327.25,238Z"/><path class="cls-2" d="M320,245.28a2.42,2.42,0,1,1-2.42,2.42A2.42,2.42,0,0,1,320,245.28Z"/><path class="cls-2" d="M312.7,238a2.42,2.42,0,1,1-2.42,2.42A2.42,2.42,0,0,1,312.7,238Z"/><path class="cls-2" d="M305.43,245.28A2.42,2.42,0,1,1,303,247.7,2.42,2.42,0,0,1,305.43,245.28Z"/><path class="cls-2" d="M298.16,238a2.42,2.42,0,1,1-2.43,2.42A2.42,2.42,0,0,1,298.16,238Z"/><path class="cls-2" d="M290.88,245.28a2.42,2.42,0,1,1-2.42,2.42A2.42,2.42,0,0,1,290.88,245.28Z"/><path class="cls-2" d="M283.61,238a2.42,2.42,0,1,1-2.42,2.42A2.42,2.42,0,0,1,283.61,238Z"/><path class="cls-2" d="M276.34,245.28a2.42,2.42,0,1,1-2.43,2.42A2.42,2.42,0,0,1,276.34,245.28Z"/><path class="cls-2" d="M269.06,238a2.42,2.42,0,1,1-2.42,2.42A2.42,2.42,0,0,1,269.06,238Z"/><path class="cls-2" d="M261.79,245.28a2.42,2.42,0,1,1-2.42,2.42A2.42,2.42,0,0,1,261.79,245.28Z"/><path class="cls-2" d="M254.52,238a2.42,2.42,0,1,1-2.42,2.42A2.42,2.42,0,0,1,254.52,238Z"/><path class="cls-2" d="M247.25,245.28a2.42,2.42,0,1,1-2.43,2.42A2.42,2.42,0,0,1,247.25,245.28Z"/><path class="cls-2" d="M240,238a2.42,2.42,0,1,1-2.42,2.42A2.42,2.42,0,0,1,240,238Z"/><path class="cls-2" d="M232.7,245.28a2.42,2.42,0,1,1-2.42,2.42A2.42,2.42,0,0,1,232.7,245.28Z"/><path class="cls-2" d="M225.43,238a2.42,2.42,0,1,1-2.42,2.42A2.42,2.42,0,0,1,225.43,238Z"/><path class="cls-2" d="M218.16,245.28a2.42,2.42,0,1,1-2.43,2.42A2.42,2.42,0,0,1,218.16,245.28Z"/><path class="cls-2" d="M210.89,238a2.42,2.42,0,1,1-2.43,2.42A2.42,2.42,0,0,1,210.89,238Z"/><path class="cls-2" d="M203.61,245.28a2.42,2.42,0,1,1-2.42,2.42A2.42,2.42,0,0,1,203.61,245.28Z"/><path class="cls-2" d="M196.34,238a2.42,2.42,0,1,1-2.42,2.42A2.42,2.42,0,0,1,196.34,238Z"/><path class="cls-2" d="M189.07,245.28a2.42,2.42,0,1,1-2.43,2.42A2.42,2.42,0,0,1,189.07,245.28Z"/><path class="cls-2" d="M181.79,238a2.42,2.42,0,1,1-2.42,2.42A2.42,2.42,0,0,1,181.79,238Z"/><path class="cls-2" d="M174.52,245.28a2.42,2.42,0,1,1-2.42,2.42A2.42,2.42,0,0,1,174.52,245.28Z"/><path class="cls-2" d="M167.25,238a2.42,2.42,0,1,1-2.42,2.42A2.42,2.42,0,0,1,167.25,238Z"/><path class="cls-2" d="M160,245.28a2.42,2.42,0,1,1-2.43,2.42A2.42,2.42,0,0,1,160,245.28Z"/><path class="cls-2" d="M152.7,238a2.42,2.42,0,1,1-2.42,2.42A2.42,2.42,0,0,1,152.7,238Z"/><path class="cls-2" d="M145.43,245.28A2.42,2.42,0,1,1,143,247.7,2.42,2.42,0,0,1,145.43,245.28Z"/><path class="cls-2" d="M138.16,238a2.42,2.42,0,1,1-2.42,2.42A2.42,2.42,0,0,1,138.16,238Z"/><path class="cls-2" d="M130.89,245.28a2.42,2.42,0,1,1-2.43,2.42A2.42,2.42,0,0,1,130.89,245.28Z"/><path class="cls-2" d="M123.61,238a2.42,2.42,0,1,1-2.42,2.42A2.42,2.42,0,0,1,123.61,238Z"/><path class="cls-2" d="M116.34,245.28a2.42,2.42,0,1,1-2.42,2.42A2.42,2.42,0,0,1,116.34,245.28Z"/><path class="cls-2" d="M109.07,238a2.42,2.42,0,1,1-2.42,2.42A2.42,2.42,0,0,1,109.07,238Z"/><path class="cls-2" d="M101.8,245.28a2.42,2.42,0,1,1-2.43,2.42A2.42,2.42,0,0,1,101.8,245.28Z"/><path class="cls-2" d="M94.52,238a2.42,2.42,0,1,1-2.42,2.42A2.42,2.42,0,0,1,94.52,238Z"/><path class="cls-2" d="M87.25,245.28a2.42,2.42,0,1,1-2.42,2.42A2.42,2.42,0,0,1,87.25,245.28Z"/><path class="cls-2" d="M80,238a2.42,2.42,0,1,1-2.43,2.42A2.42,2.42,0,0,1,80,238Z"/><path class="cls-2" d="M72.71,245.28a2.42,2.42,0,1,1-2.43,2.42A2.42,2.42,0,0,1,72.71,245.28Z"/><path class="cls-2" d="M65.43,238A2.42,2.42,0,1,1,63,240.43,2.42,2.42,0,0,1,65.43,238Z"/><path class="cls-2" d="M58.16,245.28a2.42,2.42,0,1,1-2.42,2.42A2.42,2.42,0,0,1,58.16,245.28Z"/><path class="cls-2" d="M50.89,238a2.42,2.42,0,1,1-2.43,2.42A2.42,2.42,0,0,1,50.89,238Z"/><path class="cls-2" d="M43.62,245.28a2.42,2.42,0,1,1-2.43,2.42A2.42,2.42,0,0,1,43.62,245.28Z"/><path class="cls-2" d="M36.34,238a2.42,2.42,0,1,1-2.42,2.42A2.42,2.42,0,0,1,36.34,238Z"/><path class="cls-2" d="M29.07,245.28a2.42,2.42,0,1,1-2.42,2.42A2.42,2.42,0,0,1,29.07,245.28Z"/><path class="cls-2" d="M21.8,238a2.42,2.42,0,1,1-2.43,2.42A2.42,2.42,0,0,1,21.8,238Z"/><path class="cls-2" d="M14.53,245.28a2.42,2.42,0,1,1-2.43,2.42A2.42,2.42,0,0,1,14.53,245.28Z"/><path class="cls-2" d="M9.68,240.43a2.39,2.39,0,0,1-.87,1.85c-.45-1.42-.89-2.84-1.29-4.26A2.43,2.43,0,0,1,9.68,240.43Z"/><path class="cls-2" d="M421.79,259.82a2.42,2.42,0,0,1,1.68.67c-.71,1.36-1.46,2.73-2.23,4.11a2.42,2.42,0,0,1,.55-4.78Z"/><path class="cls-2" d="M414.52,252.55a2.43,2.43,0,1,1-2.43,2.42A2.42,2.42,0,0,1,414.52,252.55Z"/><path class="cls-2" d="M407.24,259.82a2.43,2.43,0,1,1-2.42,2.42A2.42,2.42,0,0,1,407.24,259.82Z"/><path class="cls-2" d="M400,252.55a2.43,2.43,0,1,1-2.42,2.42A2.42,2.42,0,0,1,400,252.55Z"/><path class="cls-2" d="M392.7,259.82a2.43,2.43,0,1,1-2.43,2.42A2.42,2.42,0,0,1,392.7,259.82Z"/><path class="cls-2" d="M385.43,252.55A2.43,2.43,0,1,1,383,255,2.42,2.42,0,0,1,385.43,252.55Z"/><path class="cls-2" d="M378.15,259.82a2.43,2.43,0,1,1-2.42,2.42A2.42,2.42,0,0,1,378.15,259.82Z"/><path class="cls-2" d="M370.88,252.55a2.43,2.43,0,1,1-2.42,2.42A2.42,2.42,0,0,1,370.88,252.55Z"/><path class="cls-2" d="M363.61,259.82a2.43,2.43,0,1,1-2.43,2.42A2.42,2.42,0,0,1,363.61,259.82Z"/><path class="cls-2" d="M356.34,252.55a2.43,2.43,0,1,1-2.43,2.42A2.42,2.42,0,0,1,356.34,252.55Z"/><path class="cls-2" d="M349.06,259.82a2.43,2.43,0,1,1-2.42,2.42A2.42,2.42,0,0,1,349.06,259.82Z"/><path class="cls-2" d="M341.79,252.55a2.43,2.43,0,1,1-2.42,2.42A2.42,2.42,0,0,1,341.79,252.55Z"/><path class="cls-2" d="M334.52,259.82a2.43,2.43,0,1,1-2.43,2.42A2.42,2.42,0,0,1,334.52,259.82Z"/><path class="cls-2" d="M327.25,252.55a2.43,2.43,0,1,1-2.43,2.42A2.42,2.42,0,0,1,327.25,252.55Z"/><path class="cls-2" d="M320,259.82a2.43,2.43,0,1,1-2.42,2.42A2.42,2.42,0,0,1,320,259.82Z"/><path class="cls-2" d="M312.7,252.55a2.43,2.43,0,1,1-2.42,2.42A2.42,2.42,0,0,1,312.7,252.55Z"/><path class="cls-2" d="M305.43,259.82a2.43,2.43,0,1,1-2.43,2.42A2.42,2.42,0,0,1,305.43,259.82Z"/><path class="cls-2" d="M298.16,252.55a2.43,2.43,0,1,1-2.43,2.42A2.42,2.42,0,0,1,298.16,252.55Z"/><path class="cls-2" d="M290.88,259.82a2.43,2.43,0,1,1-2.42,2.42A2.42,2.42,0,0,1,290.88,259.82Z"/><path class="cls-2" d="M283.61,252.55a2.43,2.43,0,1,1-2.42,2.42A2.42,2.42,0,0,1,283.61,252.55Z"/><path class="cls-2" d="M276.34,259.82a2.43,2.43,0,1,1-2.43,2.42A2.42,2.42,0,0,1,276.34,259.82Z"/><path class="cls-2" d="M269.06,252.55a2.43,2.43,0,1,1-2.42,2.42A2.42,2.42,0,0,1,269.06,252.55Z"/><path class="cls-2" d="M261.79,259.82a2.43,2.43,0,1,1-2.42,2.42A2.42,2.42,0,0,1,261.79,259.82Z"/><path class="cls-2" d="M254.52,252.55A2.43,2.43,0,1,1,252.1,255,2.42,2.42,0,0,1,254.52,252.55Z"/><path class="cls-2" d="M247.25,259.82a2.43,2.43,0,1,1-2.43,2.42A2.42,2.42,0,0,1,247.25,259.82Z"/><path class="cls-2" d="M240,252.55a2.43,2.43,0,1,1-2.42,2.42A2.42,2.42,0,0,1,240,252.55Z"/><path class="cls-2" d="M232.7,259.82a2.43,2.43,0,1,1-2.42,2.42A2.42,2.42,0,0,1,232.7,259.82Z"/><path class="cls-2" d="M225.43,252.55A2.43,2.43,0,1,1,223,255,2.42,2.42,0,0,1,225.43,252.55Z"/><path class="cls-2" d="M218.16,259.82a2.43,2.43,0,1,1-2.43,2.42A2.42,2.42,0,0,1,218.16,259.82Z"/><path class="cls-2" d="M210.89,252.55a2.43,2.43,0,1,1-2.43,2.42A2.42,2.42,0,0,1,210.89,252.55Z"/><path class="cls-2" d="M203.61,259.82a2.43,2.43,0,1,1-2.42,2.42A2.42,2.42,0,0,1,203.61,259.82Z"/><path class="cls-2" d="M196.34,252.55a2.43,2.43,0,1,1-2.42,2.42A2.42,2.42,0,0,1,196.34,252.55Z"/><path class="cls-2" d="M189.07,259.82a2.43,2.43,0,1,1-2.43,2.42A2.42,2.42,0,0,1,189.07,259.82Z"/><path class="cls-2" d="M181.79,252.55a2.43,2.43,0,1,1-2.42,2.42A2.42,2.42,0,0,1,181.79,252.55Z"/><path class="cls-2" d="M174.52,259.82a2.43,2.43,0,1,1-2.42,2.42A2.42,2.42,0,0,1,174.52,259.82Z"/><path class="cls-2" d="M167.25,252.55a2.43,2.43,0,1,1-2.42,2.42A2.42,2.42,0,0,1,167.25,252.55Z"/><path class="cls-2" d="M160,259.82a2.43,2.43,0,1,1-2.43,2.42A2.42,2.42,0,0,1,160,259.82Z"/><path class="cls-2" d="M152.7,252.55a2.43,2.43,0,1,1-2.42,2.42A2.42,2.42,0,0,1,152.7,252.55Z"/><path class="cls-2" d="M145.43,259.82a2.43,2.43,0,1,1-2.42,2.42A2.42,2.42,0,0,1,145.43,259.82Z"/><path class="cls-2" d="M138.16,252.55a2.43,2.43,0,1,1-2.42,2.42A2.42,2.42,0,0,1,138.16,252.55Z"/><path class="cls-2" d="M130.89,259.82a2.43,2.43,0,1,1-2.43,2.42A2.42,2.42,0,0,1,130.89,259.82Z"/><path class="cls-2" d="M123.61,252.55a2.43,2.43,0,1,1-2.42,2.42A2.42,2.42,0,0,1,123.61,252.55Z"/><path class="cls-2" d="M116.34,259.82a2.43,2.43,0,1,1-2.42,2.42A2.42,2.42,0,0,1,116.34,259.82Z"/><path class="cls-2" d="M109.07,252.55a2.43,2.43,0,1,1-2.42,2.42A2.42,2.42,0,0,1,109.07,252.55Z"/><path class="cls-2" d="M101.8,259.82a2.43,2.43,0,1,1-2.43,2.42A2.42,2.42,0,0,1,101.8,259.82Z"/><path class="cls-2" d="M94.52,252.55A2.43,2.43,0,1,1,92.1,255,2.42,2.42,0,0,1,94.52,252.55Z"/><path class="cls-2" d="M87.25,259.82a2.43,2.43,0,1,1-2.42,2.42A2.42,2.42,0,0,1,87.25,259.82Z"/><path class="cls-2" d="M80,252.55A2.43,2.43,0,1,1,77.55,255,2.42,2.42,0,0,1,80,252.55Z"/><path class="cls-2" d="M72.71,259.82a2.43,2.43,0,1,1-2.43,2.42A2.42,2.42,0,0,1,72.71,259.82Z"/><path class="cls-2" d="M65.43,252.55A2.43,2.43,0,1,1,63,255,2.42,2.42,0,0,1,65.43,252.55Z"/><path class="cls-2" d="M58.16,259.82a2.43,2.43,0,1,1-2.42,2.42A2.42,2.42,0,0,1,58.16,259.82Z"/><path class="cls-2" d="M50.89,252.55A2.43,2.43,0,1,1,48.46,255,2.42,2.42,0,0,1,50.89,252.55Z"/><path class="cls-2" d="M43.62,259.82a2.43,2.43,0,1,1-2.43,2.42A2.42,2.42,0,0,1,43.62,259.82Z"/><path class="cls-2" d="M36.34,252.55A2.43,2.43,0,1,1,33.92,255,2.42,2.42,0,0,1,36.34,252.55Z"/><path class="cls-2" d="M29.07,259.82a2.43,2.43,0,1,1-2.42,2.42A2.42,2.42,0,0,1,29.07,259.82Z"/><path class="cls-2" d="M21.8,252.55A2.43,2.43,0,1,1,19.37,255,2.42,2.42,0,0,1,21.8,252.55Z"/><path class="cls-2" d="M17,262.24a2.5,2.5,0,0,1-.13.78c-.45-1-.91-2-1.33-3A2.41,2.41,0,0,1,17,262.24Z"/><path class="cls-2" d="M414.52,267.09a2.43,2.43,0,1,1-2.43,2.42A2.42,2.42,0,0,1,414.52,267.09Z"/><path class="cls-2" d="M407.24,274.36a2.43,2.43,0,1,1-2.42,2.42A2.42,2.42,0,0,1,407.24,274.36Z"/><path class="cls-2" d="M400,267.09a2.43,2.43,0,1,1-2.42,2.42A2.42,2.42,0,0,1,400,267.09Z"/><path class="cls-2" d="M392.7,274.36a2.43,2.43,0,1,1-2.43,2.42A2.42,2.42,0,0,1,392.7,274.36Z"/><path class="cls-2" d="M385.43,267.09a2.43,2.43,0,1,1-2.43,2.42A2.42,2.42,0,0,1,385.43,267.09Z"/><path class="cls-2" d="M378.15,274.36a2.43,2.43,0,1,1-2.42,2.42A2.42,2.42,0,0,1,378.15,274.36Z"/><path class="cls-2" d="M370.88,267.09a2.43,2.43,0,1,1-2.42,2.42A2.42,2.42,0,0,1,370.88,267.09Z"/><path class="cls-2" d="M363.61,274.36a2.43,2.43,0,1,1-2.43,2.42A2.42,2.42,0,0,1,363.61,274.36Z"/><path class="cls-2" d="M356.34,267.09a2.43,2.43,0,1,1-2.43,2.42A2.42,2.42,0,0,1,356.34,267.09Z"/><path class="cls-2" d="M349.06,274.36a2.43,2.43,0,1,1-2.42,2.42A2.42,2.42,0,0,1,349.06,274.36Z"/><path class="cls-2" d="M341.79,267.09a2.43,2.43,0,1,1-2.42,2.42A2.42,2.42,0,0,1,341.79,267.09Z"/><path class="cls-2" d="M334.52,274.36a2.43,2.43,0,1,1-2.43,2.42A2.42,2.42,0,0,1,334.52,274.36Z"/><path class="cls-2" d="M327.25,267.09a2.43,2.43,0,1,1-2.43,2.42A2.42,2.42,0,0,1,327.25,267.09Z"/><path class="cls-2" d="M320,274.36a2.43,2.43,0,1,1-2.42,2.42A2.42,2.42,0,0,1,320,274.36Z"/><path class="cls-2" d="M312.7,267.09a2.43,2.43,0,1,1-2.42,2.42A2.42,2.42,0,0,1,312.7,267.09Z"/><path class="cls-2" d="M305.43,274.36a2.43,2.43,0,1,1-2.43,2.42A2.42,2.42,0,0,1,305.43,274.36Z"/><path class="cls-2" d="M298.16,267.09a2.43,2.43,0,1,1-2.43,2.42A2.42,2.42,0,0,1,298.16,267.09Z"/><path class="cls-2" d="M290.88,274.36a2.43,2.43,0,1,1-2.42,2.42A2.42,2.42,0,0,1,290.88,274.36Z"/><path class="cls-2" d="M283.61,267.09a2.43,2.43,0,1,1-2.42,2.42A2.42,2.42,0,0,1,283.61,267.09Z"/><path class="cls-2" d="M276.34,274.36a2.43,2.43,0,1,1-2.43,2.42A2.42,2.42,0,0,1,276.34,274.36Z"/><path class="cls-2" d="M269.06,267.09a2.43,2.43,0,1,1-2.42,2.42A2.42,2.42,0,0,1,269.06,267.09Z"/><path class="cls-2" d="M261.79,274.36a2.43,2.43,0,1,1-2.42,2.42A2.42,2.42,0,0,1,261.79,274.36Z"/><path class="cls-2" d="M254.52,267.09a2.43,2.43,0,1,1-2.42,2.42A2.42,2.42,0,0,1,254.52,267.09Z"/><path class="cls-2" d="M247.25,274.36a2.43,2.43,0,1,1-2.43,2.42A2.42,2.42,0,0,1,247.25,274.36Z"/><path class="cls-2" d="M240,267.09a2.43,2.43,0,1,1-2.42,2.42A2.42,2.42,0,0,1,240,267.09Z"/><path class="cls-2" d="M232.7,274.36a2.43,2.43,0,1,1-2.42,2.42A2.42,2.42,0,0,1,232.7,274.36Z"/><path class="cls-2" d="M225.43,267.09a2.43,2.43,0,1,1-2.42,2.42A2.42,2.42,0,0,1,225.43,267.09Z"/><path class="cls-2" d="M218.16,274.36a2.43,2.43,0,1,1-2.43,2.42A2.42,2.42,0,0,1,218.16,274.36Z"/><path class="cls-2" d="M210.89,267.09a2.43,2.43,0,1,1-2.43,2.42A2.42,2.42,0,0,1,210.89,267.09Z"/><path class="cls-2" d="M203.61,274.36a2.43,2.43,0,1,1-2.42,2.42A2.42,2.42,0,0,1,203.61,274.36Z"/><path class="cls-2" d="M196.34,267.09a2.43,2.43,0,1,1-2.42,2.42A2.42,2.42,0,0,1,196.34,267.09Z"/><path class="cls-2" d="M189.07,274.36a2.43,2.43,0,1,1-2.43,2.42A2.42,2.42,0,0,1,189.07,274.36Z"/><path class="cls-2" d="M181.79,267.09a2.43,2.43,0,1,1-2.42,2.42A2.42,2.42,0,0,1,181.79,267.09Z"/><path class="cls-2" d="M174.52,274.36a2.43,2.43,0,1,1-2.42,2.42A2.42,2.42,0,0,1,174.52,274.36Z"/><path class="cls-2" d="M167.25,267.09a2.43,2.43,0,1,1-2.42,2.42A2.42,2.42,0,0,1,167.25,267.09Z"/><path class="cls-2" d="M160,274.36a2.43,2.43,0,1,1-2.43,2.42A2.42,2.42,0,0,1,160,274.36Z"/><path class="cls-2" d="M152.7,267.09a2.43,2.43,0,1,1-2.42,2.42A2.42,2.42,0,0,1,152.7,267.09Z"/><path class="cls-2" d="M145.43,274.36a2.43,2.43,0,1,1-2.42,2.42A2.42,2.42,0,0,1,145.43,274.36Z"/><path class="cls-2" d="M138.16,267.09a2.43,2.43,0,1,1-2.42,2.42A2.42,2.42,0,0,1,138.16,267.09Z"/><path class="cls-2" d="M130.89,274.36a2.43,2.43,0,1,1-2.43,2.42A2.42,2.42,0,0,1,130.89,274.36Z"/><path class="cls-2" d="M123.61,267.09a2.43,2.43,0,1,1-2.42,2.42A2.42,2.42,0,0,1,123.61,267.09Z"/><path class="cls-2" d="M116.34,274.36a2.43,2.43,0,1,1-2.42,2.42A2.42,2.42,0,0,1,116.34,274.36Z"/><path class="cls-2" d="M109.07,267.09a2.43,2.43,0,1,1-2.42,2.42A2.42,2.42,0,0,1,109.07,267.09Z"/><path class="cls-2" d="M101.8,274.36a2.43,2.43,0,1,1-2.43,2.42A2.42,2.42,0,0,1,101.8,274.36Z"/><path class="cls-2" d="M94.52,267.09a2.43,2.43,0,1,1-2.42,2.42A2.42,2.42,0,0,1,94.52,267.09Z"/><path class="cls-2" d="M87.25,274.36a2.43,2.43,0,1,1-2.42,2.42A2.42,2.42,0,0,1,87.25,274.36Z"/><path class="cls-2" d="M80,267.09a2.43,2.43,0,1,1-2.43,2.42A2.42,2.42,0,0,1,80,267.09Z"/><path class="cls-2" d="M72.71,274.36a2.43,2.43,0,1,1-2.43,2.42A2.42,2.42,0,0,1,72.71,274.36Z"/><path class="cls-2" d="M65.43,267.09A2.43,2.43,0,1,1,63,269.51,2.42,2.42,0,0,1,65.43,267.09Z"/><path class="cls-2" d="M58.16,274.36a2.43,2.43,0,1,1-2.42,2.42A2.42,2.42,0,0,1,58.16,274.36Z"/><path class="cls-2" d="M50.89,267.09a2.43,2.43,0,1,1-2.43,2.42A2.42,2.42,0,0,1,50.89,267.09Z"/><path class="cls-2" d="M43.62,274.36a2.43,2.43,0,1,1-2.43,2.42A2.42,2.42,0,0,1,43.62,274.36Z"/><path class="cls-2" d="M36.34,267.09a2.43,2.43,0,1,1-2.42,2.42A2.42,2.42,0,0,1,36.34,267.09Z"/><path class="cls-2" d="M29.07,274.36a2.43,2.43,0,1,1-2.42,2.42A2.42,2.42,0,0,1,29.07,274.36Z"/><path class="cls-2" d="M21.8,267.09a2.43,2.43,0,0,1,0,4.85,2.51,2.51,0,0,1-.62-.08h0c-.56-1.06-1.11-2.12-1.64-3.2A2.41,2.41,0,0,1,21.8,267.09Z"/><path class="cls-2" d="M400,281.63a2.43,2.43,0,1,1-2.42,2.42A2.43,2.43,0,0,1,400,281.63Z"/><path class="cls-2" d="M392.7,288.9a2.43,2.43,0,1,1-2.43,2.43A2.42,2.42,0,0,1,392.7,288.9Z"/><path class="cls-2" d="M385.43,281.63a2.43,2.43,0,1,1-2.43,2.42A2.43,2.43,0,0,1,385.43,281.63Z"/><path class="cls-2" d="M378.15,288.9a2.43,2.43,0,1,1-2.42,2.43A2.43,2.43,0,0,1,378.15,288.9Z"/><path class="cls-2" d="M370.88,281.63a2.43,2.43,0,1,1-2.42,2.42A2.42,2.42,0,0,1,370.88,281.63Z"/><path class="cls-2" d="M363.61,288.9a2.43,2.43,0,1,1-2.43,2.43A2.42,2.42,0,0,1,363.61,288.9Z"/><path class="cls-2" d="M356.34,281.63a2.43,2.43,0,1,1-2.43,2.42A2.43,2.43,0,0,1,356.34,281.63Z"/><path class="cls-2" d="M349.06,288.9a2.43,2.43,0,1,1-2.42,2.43A2.43,2.43,0,0,1,349.06,288.9Z"/><path class="cls-2" d="M341.79,281.63a2.43,2.43,0,1,1-2.42,2.42A2.43,2.43,0,0,1,341.79,281.63Z"/><path class="cls-2" d="M334.52,288.9a2.43,2.43,0,1,1-2.43,2.43A2.42,2.42,0,0,1,334.52,288.9Z"/><path class="cls-2" d="M327.25,281.63a2.43,2.43,0,1,1-2.43,2.42A2.43,2.43,0,0,1,327.25,281.63Z"/><path class="cls-2" d="M320,288.9a2.43,2.43,0,1,1-2.42,2.43A2.43,2.43,0,0,1,320,288.9Z"/><path class="cls-2" d="M312.7,281.63a2.43,2.43,0,1,1-2.42,2.42A2.43,2.43,0,0,1,312.7,281.63Z"/><path class="cls-2" d="M305.43,288.9a2.43,2.43,0,1,1-2.43,2.43A2.42,2.42,0,0,1,305.43,288.9Z"/><path class="cls-2" d="M298.16,281.63a2.43,2.43,0,1,1-2.43,2.42A2.43,2.43,0,0,1,298.16,281.63Z"/><path class="cls-2" d="M290.88,288.9a2.43,2.43,0,1,1-2.42,2.43A2.43,2.43,0,0,1,290.88,288.9Z"/><path class="cls-2" d="M283.61,281.63a2.43,2.43,0,1,1-2.42,2.42A2.42,2.42,0,0,1,283.61,281.63Z"/><path class="cls-2" d="M276.34,288.9a2.43,2.43,0,1,1-2.43,2.43A2.42,2.42,0,0,1,276.34,288.9Z"/><path class="cls-2" d="M269.06,281.63a2.43,2.43,0,1,1-2.42,2.42A2.43,2.43,0,0,1,269.06,281.63Z"/><path class="cls-2" d="M261.79,288.9a2.43,2.43,0,1,1-2.42,2.43A2.43,2.43,0,0,1,261.79,288.9Z"/><path class="cls-2" d="M254.52,281.63a2.43,2.43,0,1,1-2.42,2.42A2.42,2.42,0,0,1,254.52,281.63Z"/><path class="cls-2" d="M247.25,288.9a2.43,2.43,0,1,1-2.43,2.43A2.42,2.42,0,0,1,247.25,288.9Z"/><path class="cls-2" d="M240,281.63a2.43,2.43,0,1,1-2.42,2.42A2.43,2.43,0,0,1,240,281.63Z"/><path class="cls-2" d="M232.7,288.9a2.43,2.43,0,1,1-2.42,2.43A2.43,2.43,0,0,1,232.7,288.9Z"/><path class="cls-2" d="M225.43,281.63a2.43,2.43,0,1,1-2.42,2.42A2.42,2.42,0,0,1,225.43,281.63Z"/><path class="cls-2" d="M218.16,288.9a2.43,2.43,0,1,1-2.43,2.43A2.42,2.42,0,0,1,218.16,288.9Z"/><path class="cls-2" d="M210.89,281.63a2.43,2.43,0,1,1-2.43,2.42A2.43,2.43,0,0,1,210.89,281.63Z"/><path class="cls-2" d="M203.61,288.9a2.43,2.43,0,1,1-2.42,2.43A2.43,2.43,0,0,1,203.61,288.9Z"/><path class="cls-2" d="M196.34,281.63a2.43,2.43,0,1,1-2.42,2.42A2.42,2.42,0,0,1,196.34,281.63Z"/><path class="cls-2" d="M189.07,288.9a2.43,2.43,0,1,1-2.43,2.43A2.42,2.42,0,0,1,189.07,288.9Z"/><path class="cls-2" d="M181.79,281.63a2.43,2.43,0,1,1-2.42,2.42A2.43,2.43,0,0,1,181.79,281.63Z"/><path class="cls-2" d="M174.52,288.9a2.43,2.43,0,1,1-2.42,2.43A2.43,2.43,0,0,1,174.52,288.9Z"/><path class="cls-2" d="M167.25,281.63a2.43,2.43,0,1,1-2.42,2.42A2.42,2.42,0,0,1,167.25,281.63Z"/><path class="cls-2" d="M160,288.9a2.43,2.43,0,1,1-2.43,2.43A2.42,2.42,0,0,1,160,288.9Z"/><path class="cls-2" d="M152.7,281.63a2.43,2.43,0,1,1-2.42,2.42A2.43,2.43,0,0,1,152.7,281.63Z"/><path class="cls-2" d="M145.43,288.9a2.43,2.43,0,1,1-2.42,2.43A2.43,2.43,0,0,1,145.43,288.9Z"/><path class="cls-2" d="M138.16,281.63a2.43,2.43,0,1,1-2.42,2.42A2.42,2.42,0,0,1,138.16,281.63Z"/><path class="cls-2" d="M130.89,288.9a2.43,2.43,0,1,1-2.43,2.43A2.42,2.42,0,0,1,130.89,288.9Z"/><path class="cls-2" d="M123.61,281.63a2.43,2.43,0,1,1-2.42,2.42A2.43,2.43,0,0,1,123.61,281.63Z"/><path class="cls-2" d="M116.34,288.9a2.43,2.43,0,1,1-2.42,2.43A2.43,2.43,0,0,1,116.34,288.9Z"/><path class="cls-2" d="M109.07,281.63a2.43,2.43,0,1,1-2.42,2.42A2.42,2.42,0,0,1,109.07,281.63Z"/><path class="cls-2" d="M101.8,288.9a2.43,2.43,0,1,1-2.43,2.43A2.42,2.42,0,0,1,101.8,288.9Z"/><path class="cls-2" d="M94.52,281.63a2.43,2.43,0,1,1-2.42,2.42A2.43,2.43,0,0,1,94.52,281.63Z"/><path class="cls-2" d="M87.25,288.9a2.43,2.43,0,1,1-2.42,2.43A2.43,2.43,0,0,1,87.25,288.9Z"/><path class="cls-2" d="M80,281.63a2.43,2.43,0,1,1-2.43,2.42A2.42,2.42,0,0,1,80,281.63Z"/><path class="cls-2" d="M72.71,288.9a2.43,2.43,0,1,1-2.43,2.43A2.42,2.42,0,0,1,72.71,288.9Z"/><path class="cls-2" d="M65.43,281.63A2.43,2.43,0,1,1,63,284.05,2.43,2.43,0,0,1,65.43,281.63Z"/><path class="cls-2" d="M58.16,288.9a2.43,2.43,0,1,1-2.42,2.43A2.43,2.43,0,0,1,58.16,288.9Z"/><path class="cls-2" d="M50.89,281.63a2.43,2.43,0,1,1-2.43,2.42A2.42,2.42,0,0,1,50.89,281.63Z"/><path class="cls-2" d="M43.62,288.9a2.43,2.43,0,1,1-2.43,2.43A2.42,2.42,0,0,1,43.62,288.9Z"/><path class="cls-2" d="M36.34,281.63a2.43,2.43,0,1,1-2.42,2.42A2.43,2.43,0,0,1,36.34,281.63Z"/><path class="cls-2" d="M385.43,296.17A2.43,2.43,0,1,1,383,298.6,2.43,2.43,0,0,1,385.43,296.17Z"/><path class="cls-2" d="M378.15,303.44a2.43,2.43,0,1,1-2.42,2.43A2.43,2.43,0,0,1,378.15,303.44Z"/><path class="cls-2" d="M370.88,296.17a2.43,2.43,0,1,1-2.42,2.43A2.42,2.42,0,0,1,370.88,296.17Z"/><path class="cls-2" d="M363.61,303.44a2.43,2.43,0,1,1-2.43,2.43A2.42,2.42,0,0,1,363.61,303.44Z"/><path class="cls-2" d="M356.34,296.17a2.43,2.43,0,1,1-2.43,2.43A2.43,2.43,0,0,1,356.34,296.17Z"/><path class="cls-2" d="M349.06,303.44a2.43,2.43,0,1,1-2.42,2.43A2.43,2.43,0,0,1,349.06,303.44Z"/><path class="cls-2" d="M341.79,296.17a2.43,2.43,0,1,1-2.42,2.43A2.43,2.43,0,0,1,341.79,296.17Z"/><path class="cls-2" d="M334.52,303.44a2.43,2.43,0,1,1-2.43,2.43A2.42,2.42,0,0,1,334.52,303.44Z"/><path class="cls-2" d="M327.25,296.17a2.43,2.43,0,1,1-2.43,2.43A2.43,2.43,0,0,1,327.25,296.17Z"/><path class="cls-2" d="M320,303.44a2.43,2.43,0,1,1-2.42,2.43A2.43,2.43,0,0,1,320,303.44Z"/><path class="cls-2" d="M312.7,296.17a2.43,2.43,0,1,1-2.42,2.43A2.43,2.43,0,0,1,312.7,296.17Z"/><path class="cls-2" d="M305.43,303.44a2.43,2.43,0,1,1-2.43,2.43A2.42,2.42,0,0,1,305.43,303.44Z"/><path class="cls-2" d="M298.16,296.17a2.43,2.43,0,1,1-2.43,2.43A2.43,2.43,0,0,1,298.16,296.17Z"/><path class="cls-2" d="M290.88,303.44a2.43,2.43,0,1,1-2.42,2.43A2.43,2.43,0,0,1,290.88,303.44Z"/><path class="cls-2" d="M283.61,296.17a2.43,2.43,0,1,1-2.42,2.43A2.42,2.42,0,0,1,283.61,296.17Z"/><path class="cls-2" d="M276.34,303.44a2.43,2.43,0,1,1-2.43,2.43A2.42,2.42,0,0,1,276.34,303.44Z"/><path class="cls-2" d="M269.06,296.17a2.43,2.43,0,1,1-2.42,2.43A2.43,2.43,0,0,1,269.06,296.17Z"/><path class="cls-2" d="M261.79,303.44a2.43,2.43,0,1,1-2.42,2.43A2.43,2.43,0,0,1,261.79,303.44Z"/><path class="cls-2" d="M254.52,296.17a2.43,2.43,0,1,1-2.42,2.43A2.42,2.42,0,0,1,254.52,296.17Z"/><path class="cls-2" d="M247.25,303.44a2.43,2.43,0,1,1-2.43,2.43A2.42,2.42,0,0,1,247.25,303.44Z"/><path class="cls-2" d="M240,296.17a2.43,2.43,0,1,1-2.42,2.43A2.43,2.43,0,0,1,240,296.17Z"/><path class="cls-2" d="M232.7,303.44a2.43,2.43,0,1,1-2.42,2.43A2.43,2.43,0,0,1,232.7,303.44Z"/><path class="cls-2" d="M225.43,296.17A2.43,2.43,0,1,1,223,298.6,2.42,2.42,0,0,1,225.43,296.17Z"/><path class="cls-2" d="M218.16,303.44a2.43,2.43,0,1,1-2.43,2.43A2.42,2.42,0,0,1,218.16,303.44Z"/><path class="cls-2" d="M210.89,296.17a2.43,2.43,0,1,1-2.43,2.43A2.43,2.43,0,0,1,210.89,296.17Z"/><path class="cls-2" d="M203.61,303.44a2.43,2.43,0,1,1-2.42,2.43A2.43,2.43,0,0,1,203.61,303.44Z"/><path class="cls-2" d="M196.34,296.17a2.43,2.43,0,1,1-2.42,2.43A2.42,2.42,0,0,1,196.34,296.17Z"/><path class="cls-2" d="M189.07,303.44a2.43,2.43,0,1,1-2.43,2.43A2.42,2.42,0,0,1,189.07,303.44Z"/><path class="cls-2" d="M181.79,296.17a2.43,2.43,0,1,1-2.42,2.43A2.43,2.43,0,0,1,181.79,296.17Z"/><path class="cls-2" d="M174.52,303.44a2.43,2.43,0,1,1-2.42,2.43A2.43,2.43,0,0,1,174.52,303.44Z"/><path class="cls-2" d="M167.25,296.17a2.43,2.43,0,1,1-2.42,2.43A2.42,2.42,0,0,1,167.25,296.17Z"/><path class="cls-2" d="M160,303.44a2.43,2.43,0,1,1-2.43,2.43A2.42,2.42,0,0,1,160,303.44Z"/><path class="cls-2" d="M152.7,296.17a2.43,2.43,0,1,1-2.42,2.43A2.43,2.43,0,0,1,152.7,296.17Z"/><path class="cls-2" d="M145.43,303.44a2.43,2.43,0,1,1-2.42,2.43A2.43,2.43,0,0,1,145.43,303.44Z"/><path class="cls-2" d="M138.16,296.17a2.43,2.43,0,1,1-2.42,2.43A2.42,2.42,0,0,1,138.16,296.17Z"/><path class="cls-2" d="M130.89,303.44a2.43,2.43,0,1,1-2.43,2.43A2.42,2.42,0,0,1,130.89,303.44Z"/><path class="cls-2" d="M123.61,296.17a2.43,2.43,0,1,1-2.42,2.43A2.43,2.43,0,0,1,123.61,296.17Z"/><path class="cls-2" d="M116.34,303.44a2.43,2.43,0,1,1-2.42,2.43A2.43,2.43,0,0,1,116.34,303.44Z"/><path class="cls-2" d="M109.07,296.17a2.43,2.43,0,1,1-2.42,2.43A2.42,2.42,0,0,1,109.07,296.17Z"/><path class="cls-2" d="M101.8,303.44a2.43,2.43,0,1,1-2.43,2.43A2.42,2.42,0,0,1,101.8,303.44Z"/><path class="cls-2" d="M94.52,296.17a2.43,2.43,0,1,1-2.42,2.43A2.43,2.43,0,0,1,94.52,296.17Z"/><path class="cls-2" d="M87.25,303.44a2.43,2.43,0,1,1-2.42,2.43A2.43,2.43,0,0,1,87.25,303.44Z"/><path class="cls-2" d="M80,296.17a2.43,2.43,0,1,1-2.43,2.43A2.42,2.42,0,0,1,80,296.17Z"/><path class="cls-2" d="M72.71,303.44a2.43,2.43,0,1,1-2.43,2.43A2.42,2.42,0,0,1,72.71,303.44Z"/><path class="cls-2" d="M65.43,296.17A2.43,2.43,0,1,1,63,298.6,2.43,2.43,0,0,1,65.43,296.17Z"/><path class="cls-2" d="M58.16,303.44a2.43,2.43,0,1,1-2.42,2.43A2.43,2.43,0,0,1,58.16,303.44Z"/><path class="cls-2" d="M50.89,296.17a2.43,2.43,0,1,1-2.43,2.43A2.42,2.42,0,0,1,50.89,296.17Z"/><path class="cls-2" d="M46,305.87a2.31,2.31,0,0,1-.46,1.4c-1-1.18-2-2.37-3-3.58a2.43,2.43,0,0,1,3.5,2.18Z"/><path class="cls-2" d="M38.77,298.6a2.34,2.34,0,0,1,0,.38c-.74-.93-1.45-1.86-2.14-2.8A2.44,2.44,0,0,1,38.77,298.6Z"/><path class="cls-2" d="M370.88,310.71a2.43,2.43,0,1,1-2.42,2.43A2.42,2.42,0,0,1,370.88,310.71Z"/><path class="cls-2" d="M363.61,318a2.43,2.43,0,1,1-2.43,2.43A2.42,2.42,0,0,1,363.61,318Z"/><path class="cls-2" d="M356.34,310.71a2.43,2.43,0,1,1-2.43,2.43A2.43,2.43,0,0,1,356.34,310.71Z"/><path class="cls-2" d="M349.06,318a2.43,2.43,0,1,1-2.42,2.43A2.43,2.43,0,0,1,349.06,318Z"/><path class="cls-2" d="M341.79,310.71a2.43,2.43,0,1,1-2.42,2.43A2.43,2.43,0,0,1,341.79,310.71Z"/><path class="cls-2" d="M334.52,318a2.43,2.43,0,1,1-2.43,2.43A2.42,2.42,0,0,1,334.52,318Z"/><path class="cls-2" d="M327.25,310.71a2.43,2.43,0,1,1-2.43,2.43A2.43,2.43,0,0,1,327.25,310.71Z"/><path class="cls-2" d="M320,318a2.43,2.43,0,1,1-2.42,2.43A2.43,2.43,0,0,1,320,318Z"/><path class="cls-2" d="M312.7,310.71a2.43,2.43,0,1,1-2.42,2.43A2.43,2.43,0,0,1,312.7,310.71Z"/><path class="cls-2" d="M305.43,318a2.43,2.43,0,1,1-2.43,2.43A2.42,2.42,0,0,1,305.43,318Z"/><path class="cls-2" d="M298.16,310.71a2.43,2.43,0,1,1-2.43,2.43A2.43,2.43,0,0,1,298.16,310.71Z"/><path class="cls-2" d="M290.88,318a2.43,2.43,0,1,1-2.42,2.43A2.43,2.43,0,0,1,290.88,318Z"/><path class="cls-2" d="M283.61,310.71a2.43,2.43,0,1,1-2.42,2.43A2.42,2.42,0,0,1,283.61,310.71Z"/><path class="cls-2" d="M276.34,318a2.43,2.43,0,1,1-2.43,2.43A2.42,2.42,0,0,1,276.34,318Z"/><path class="cls-2" d="M269.06,310.71a2.43,2.43,0,1,1-2.42,2.43A2.43,2.43,0,0,1,269.06,310.71Z"/><path class="cls-2" d="M261.79,318a2.43,2.43,0,1,1-2.42,2.43A2.43,2.43,0,0,1,261.79,318Z"/><path class="cls-2" d="M254.52,310.71a2.43,2.43,0,1,1-2.42,2.43A2.42,2.42,0,0,1,254.52,310.71Z"/><path class="cls-2" d="M247.25,318a2.43,2.43,0,1,1-2.43,2.43A2.42,2.42,0,0,1,247.25,318Z"/><path class="cls-2" d="M240,310.71a2.43,2.43,0,1,1-2.42,2.43A2.43,2.43,0,0,1,240,310.71Z"/><path class="cls-2" d="M232.7,318a2.43,2.43,0,1,1-2.42,2.43A2.43,2.43,0,0,1,232.7,318Z"/><path class="cls-2" d="M225.43,310.71a2.43,2.43,0,1,1-2.42,2.43A2.42,2.42,0,0,1,225.43,310.71Z"/><path class="cls-2" d="M218.16,318a2.43,2.43,0,1,1-2.43,2.43A2.42,2.42,0,0,1,218.16,318Z"/><path class="cls-2" d="M210.89,310.71a2.43,2.43,0,1,1-2.43,2.43A2.43,2.43,0,0,1,210.89,310.71Z"/><path class="cls-2" d="M203.61,318a2.43,2.43,0,1,1-2.42,2.43A2.43,2.43,0,0,1,203.61,318Z"/><path class="cls-2" d="M196.34,310.71a2.43,2.43,0,1,1-2.42,2.43A2.42,2.42,0,0,1,196.34,310.71Z"/><path class="cls-2" d="M189.07,318a2.43,2.43,0,1,1-2.43,2.43A2.42,2.42,0,0,1,189.07,318Z"/><path class="cls-2" d="M181.79,310.71a2.43,2.43,0,1,1-2.42,2.43A2.43,2.43,0,0,1,181.79,310.71Z"/><path class="cls-2" d="M174.52,318a2.43,2.43,0,1,1-2.42,2.43A2.43,2.43,0,0,1,174.52,318Z"/><path class="cls-2" d="M167.25,310.71a2.43,2.43,0,1,1-2.42,2.43A2.42,2.42,0,0,1,167.25,310.71Z"/><path class="cls-2" d="M160,318a2.43,2.43,0,1,1-2.43,2.43A2.42,2.42,0,0,1,160,318Z"/><path class="cls-2" d="M152.7,310.71a2.43,2.43,0,1,1-2.42,2.43A2.43,2.43,0,0,1,152.7,310.71Z"/><path class="cls-2" d="M145.43,318a2.43,2.43,0,1,1-2.42,2.43A2.43,2.43,0,0,1,145.43,318Z"/><path class="cls-2" d="M138.16,310.71a2.43,2.43,0,1,1-2.42,2.43A2.42,2.42,0,0,1,138.16,310.71Z"/><path class="cls-2" d="M130.89,318a2.43,2.43,0,1,1-2.43,2.43A2.42,2.42,0,0,1,130.89,318Z"/><path class="cls-2" d="M123.61,310.71a2.43,2.43,0,1,1-2.42,2.43A2.43,2.43,0,0,1,123.61,310.71Z"/><path class="cls-2" d="M116.34,318a2.43,2.43,0,1,1-2.42,2.43A2.43,2.43,0,0,1,116.34,318Z"/><path class="cls-2" d="M109.07,310.71a2.43,2.43,0,1,1-2.42,2.43A2.42,2.42,0,0,1,109.07,310.71Z"/><path class="cls-2" d="M101.8,318a2.43,2.43,0,1,1-2.43,2.43A2.42,2.42,0,0,1,101.8,318Z"/><path class="cls-2" d="M94.52,310.71a2.43,2.43,0,1,1-2.42,2.43A2.43,2.43,0,0,1,94.52,310.71Z"/><path class="cls-2" d="M87.25,318a2.43,2.43,0,1,1-2.42,2.43A2.43,2.43,0,0,1,87.25,318Z"/><path class="cls-2" d="M80,310.71a2.43,2.43,0,1,1-2.43,2.43A2.42,2.42,0,0,1,80,310.71Z"/><path class="cls-2" d="M72.71,318a2.43,2.43,0,1,1-2.43,2.43A2.42,2.42,0,0,1,72.71,318Z"/><path class="cls-2" d="M65.43,310.71A2.43,2.43,0,1,1,63,313.14,2.43,2.43,0,0,1,65.43,310.71Z"/><path class="cls-2" d="M60.59,320.41A2.36,2.36,0,0,1,60,322q-1.78-1.63-3.52-3.33a2.47,2.47,0,0,1,1.7-.69A2.43,2.43,0,0,1,60.59,320.41Z"/><path class="cls-2" d="M53.31,313.14a2.39,2.39,0,0,1-.7,1.7q-1.71-1.74-3.34-3.51a2.45,2.45,0,0,1,1.62-.62A2.42,2.42,0,0,1,53.31,313.14Z"/><path class="cls-2" d="M356.34,325.26a2.42,2.42,0,1,1-2.43,2.42A2.42,2.42,0,0,1,356.34,325.26Z"/><path class="cls-2" d="M349.06,332.53a2.4,2.4,0,0,1,2.24,3.34c-.76.51-1.52,1-2.29,1.5a2.42,2.42,0,0,1,.05-4.84Z"/><path class="cls-2" d="M341.79,325.26a2.42,2.42,0,1,1-2.42,2.42A2.42,2.42,0,0,1,341.79,325.26Z"/><path class="cls-2" d="M334.52,332.53a2.42,2.42,0,1,1-2.43,2.42A2.42,2.42,0,0,1,334.52,332.53Z"/><path class="cls-2" d="M327.25,325.26a2.42,2.42,0,1,1-2.43,2.42A2.42,2.42,0,0,1,327.25,325.26Z"/><path class="cls-2" d="M320,332.53a2.42,2.42,0,1,1-2.42,2.42A2.42,2.42,0,0,1,320,332.53Z"/><path class="cls-2" d="M312.7,325.26a2.42,2.42,0,1,1-2.42,2.42A2.42,2.42,0,0,1,312.7,325.26Z"/><path class="cls-2" d="M305.43,332.53A2.42,2.42,0,1,1,303,335,2.42,2.42,0,0,1,305.43,332.53Z"/><path class="cls-2" d="M298.16,325.26a2.42,2.42,0,1,1-2.43,2.42A2.42,2.42,0,0,1,298.16,325.26Z"/><path class="cls-2" d="M290.88,332.53a2.42,2.42,0,1,1-2.42,2.42A2.42,2.42,0,0,1,290.88,332.53Z"/><path class="cls-2" d="M283.61,325.26a2.42,2.42,0,1,1-2.42,2.42A2.42,2.42,0,0,1,283.61,325.26Z"/><path class="cls-2" d="M276.34,332.53a2.42,2.42,0,1,1-2.43,2.42A2.42,2.42,0,0,1,276.34,332.53Z"/><path class="cls-2" d="M269.06,325.26a2.42,2.42,0,1,1-2.42,2.42A2.42,2.42,0,0,1,269.06,325.26Z"/><path class="cls-2" d="M261.79,332.53a2.42,2.42,0,1,1-2.42,2.42A2.42,2.42,0,0,1,261.79,332.53Z"/><path class="cls-2" d="M254.52,325.26a2.42,2.42,0,1,1-2.42,2.42A2.42,2.42,0,0,1,254.52,325.26Z"/><path class="cls-2" d="M247.25,332.53a2.42,2.42,0,1,1-2.43,2.42A2.42,2.42,0,0,1,247.25,332.53Z"/><path class="cls-2" d="M240,325.26a2.42,2.42,0,1,1-2.42,2.42A2.42,2.42,0,0,1,240,325.26Z"/><path class="cls-2" d="M232.7,332.53a2.42,2.42,0,1,1-2.42,2.42A2.42,2.42,0,0,1,232.7,332.53Z"/><path class="cls-2" d="M225.43,325.26a2.42,2.42,0,1,1-2.42,2.42A2.42,2.42,0,0,1,225.43,325.26Z"/><path class="cls-2" d="M218.16,332.53a2.42,2.42,0,1,1-2.43,2.42A2.42,2.42,0,0,1,218.16,332.53Z"/><path class="cls-2" d="M210.89,325.26a2.42,2.42,0,1,1-2.43,2.42A2.42,2.42,0,0,1,210.89,325.26Z"/><path class="cls-2" d="M203.61,332.53a2.42,2.42,0,1,1-2.42,2.42A2.42,2.42,0,0,1,203.61,332.53Z"/><path class="cls-2" d="M196.34,325.26a2.42,2.42,0,1,1-2.42,2.42A2.42,2.42,0,0,1,196.34,325.26Z"/><path class="cls-2" d="M189.07,332.53a2.42,2.42,0,1,1-2.43,2.42A2.42,2.42,0,0,1,189.07,332.53Z"/><path class="cls-2" d="M181.79,325.26a2.42,2.42,0,1,1-2.42,2.42A2.42,2.42,0,0,1,181.79,325.26Z"/><path class="cls-2" d="M174.52,332.53A2.42,2.42,0,1,1,172.1,335,2.42,2.42,0,0,1,174.52,332.53Z"/><path class="cls-2" d="M167.25,325.26a2.42,2.42,0,1,1-2.42,2.42A2.42,2.42,0,0,1,167.25,325.26Z"/><path class="cls-2" d="M160,332.53a2.42,2.42,0,1,1-2.43,2.42A2.42,2.42,0,0,1,160,332.53Z"/><path class="cls-2" d="M152.7,325.26a2.42,2.42,0,1,1-2.42,2.42A2.42,2.42,0,0,1,152.7,325.26Z"/><path class="cls-2" d="M145.43,332.53A2.42,2.42,0,1,1,143,335,2.42,2.42,0,0,1,145.43,332.53Z"/><path class="cls-2" d="M138.16,325.26a2.42,2.42,0,1,1-2.42,2.42A2.42,2.42,0,0,1,138.16,325.26Z"/><path class="cls-2" d="M130.89,332.53a2.42,2.42,0,1,1-2.43,2.42A2.42,2.42,0,0,1,130.89,332.53Z"/><path class="cls-2" d="M123.61,325.26a2.42,2.42,0,1,1-2.42,2.42A2.42,2.42,0,0,1,123.61,325.26Z"/><path class="cls-2" d="M116.34,332.53a2.42,2.42,0,1,1-2.42,2.42A2.42,2.42,0,0,1,116.34,332.53Z"/><path class="cls-2" d="M109.07,325.26a2.42,2.42,0,1,1-2.42,2.42A2.42,2.42,0,0,1,109.07,325.26Z"/><path class="cls-2" d="M101.8,332.53A2.42,2.42,0,1,1,99.37,335,2.42,2.42,0,0,1,101.8,332.53Z"/><path class="cls-2" d="M94.52,325.26a2.42,2.42,0,1,1-2.42,2.42A2.42,2.42,0,0,1,94.52,325.26Z"/><path class="cls-2" d="M87.25,332.53A2.42,2.42,0,1,1,84.83,335,2.42,2.42,0,0,1,87.25,332.53Z"/><path class="cls-2" d="M80,325.26a2.42,2.42,0,1,1-2.43,2.42A2.42,2.42,0,0,1,80,325.26Z"/><path class="cls-2" d="M75.11,334.67l-2.74-2.12a1.83,1.83,0,0,1,.34,0A2.42,2.42,0,0,1,75.11,334.67Z"/><path class="cls-2" d="M67.86,327.68a2.36,2.36,0,0,1-.23,1q-1.81-1.5-3.55-3a2.39,2.39,0,0,1,1.35-.41A2.42,2.42,0,0,1,67.86,327.68Z"/><path class="cls-2" d="M341.79,339.8a2.4,2.4,0,0,1,1.9.92c-1.37.84-2.74,1.66-4.13,2.46a2.38,2.38,0,0,1-.19-1A2.42,2.42,0,0,1,341.79,339.8Z"/><path class="cls-2" d="M327.25,339.8a2.42,2.42,0,1,1-2.43,2.42A2.42,2.42,0,0,1,327.25,339.8Z"/><path class="cls-2" d="M320,347.07a2.42,2.42,0,1,1-2.42,2.42A2.42,2.42,0,0,1,320,347.07Z"/><path class="cls-2" d="M312.7,339.8a2.42,2.42,0,1,1-2.42,2.42A2.42,2.42,0,0,1,312.7,339.8Z"/><path class="cls-2" d="M305.43,347.07a2.42,2.42,0,1,1-2.43,2.42A2.42,2.42,0,0,1,305.43,347.07Z"/><path class="cls-2" d="M298.16,339.8a2.42,2.42,0,1,1-2.43,2.42A2.42,2.42,0,0,1,298.16,339.8Z"/><path class="cls-2" d="M290.88,347.07a2.42,2.42,0,1,1-2.42,2.42A2.42,2.42,0,0,1,290.88,347.07Z"/><path class="cls-2" d="M283.61,339.8a2.42,2.42,0,1,1-2.42,2.42A2.42,2.42,0,0,1,283.61,339.8Z"/><path class="cls-2" d="M276.34,347.07a2.42,2.42,0,1,1-2.43,2.42A2.42,2.42,0,0,1,276.34,347.07Z"/><path class="cls-2" d="M269.06,339.8a2.42,2.42,0,1,1-2.42,2.42A2.42,2.42,0,0,1,269.06,339.8Z"/><path class="cls-2" d="M261.79,347.07a2.42,2.42,0,1,1-2.42,2.42A2.42,2.42,0,0,1,261.79,347.07Z"/><path class="cls-2" d="M254.52,339.8a2.42,2.42,0,1,1-2.42,2.42A2.42,2.42,0,0,1,254.52,339.8Z"/><path class="cls-2" d="M247.25,347.07a2.42,2.42,0,1,1-2.43,2.42A2.42,2.42,0,0,1,247.25,347.07Z"/><path class="cls-2" d="M240,339.8a2.42,2.42,0,1,1-2.42,2.42A2.42,2.42,0,0,1,240,339.8Z"/><path class="cls-2" d="M232.7,347.07a2.42,2.42,0,1,1-2.42,2.42A2.42,2.42,0,0,1,232.7,347.07Z"/><path class="cls-2" d="M225.43,339.8a2.42,2.42,0,1,1-2.42,2.42A2.42,2.42,0,0,1,225.43,339.8Z"/><path class="cls-2" d="M218.16,347.07a2.42,2.42,0,1,1-2.43,2.42A2.42,2.42,0,0,1,218.16,347.07Z"/><path class="cls-2" d="M210.89,339.8a2.42,2.42,0,1,1-2.43,2.42A2.42,2.42,0,0,1,210.89,339.8Z"/><path class="cls-2" d="M203.61,347.07a2.42,2.42,0,1,1-2.42,2.42A2.42,2.42,0,0,1,203.61,347.07Z"/><path class="cls-2" d="M196.34,339.8a2.42,2.42,0,1,1-2.42,2.42A2.42,2.42,0,0,1,196.34,339.8Z"/><path class="cls-2" d="M189.07,347.07a2.42,2.42,0,1,1-2.43,2.42A2.42,2.42,0,0,1,189.07,347.07Z"/><path class="cls-2" d="M181.79,339.8a2.42,2.42,0,1,1-2.42,2.42A2.42,2.42,0,0,1,181.79,339.8Z"/><path class="cls-2" d="M174.52,347.07a2.42,2.42,0,1,1-2.42,2.42A2.42,2.42,0,0,1,174.52,347.07Z"/><path class="cls-2" d="M167.25,339.8a2.42,2.42,0,1,1-2.42,2.42A2.42,2.42,0,0,1,167.25,339.8Z"/><path class="cls-2" d="M160,347.07a2.42,2.42,0,1,1-2.43,2.42A2.42,2.42,0,0,1,160,347.07Z"/><path class="cls-2" d="M152.7,339.8a2.42,2.42,0,1,1-2.42,2.42A2.42,2.42,0,0,1,152.7,339.8Z"/><path class="cls-2" d="M145.43,347.07a2.42,2.42,0,1,1-2.42,2.42A2.42,2.42,0,0,1,145.43,347.07Z"/><path class="cls-2" d="M138.16,339.8a2.42,2.42,0,1,1-2.42,2.42A2.42,2.42,0,0,1,138.16,339.8Z"/><path class="cls-2" d="M130.89,347.07a2.42,2.42,0,1,1-2.43,2.42A2.42,2.42,0,0,1,130.89,347.07Z"/><path class="cls-2" d="M123.61,339.8a2.42,2.42,0,1,1-2.42,2.42A2.42,2.42,0,0,1,123.61,339.8Z"/><path class="cls-2" d="M116.34,347.07a2.42,2.42,0,1,1-2.42,2.42A2.42,2.42,0,0,1,116.34,347.07Z"/><path class="cls-2" d="M109.07,339.8a2.42,2.42,0,1,1-2.42,2.42A2.42,2.42,0,0,1,109.07,339.8Z"/><path class="cls-2" d="M101.8,347.07a2.42,2.42,0,0,1,0,4.84,3.42,3.42,0,0,1-.46,0h0c-.44-.27-.89-.52-1.33-.77a2.47,2.47,0,0,1-.61-1.61A2.42,2.42,0,0,1,101.8,347.07Z"/><path class="cls-2" d="M94.52,339.8a2.42,2.42,0,1,1-2.42,2.42A2.42,2.42,0,0,1,94.52,339.8Z"/><path class="cls-2" d="M312.7,354.34a2.41,2.41,0,0,1,2.24,1.51c-1.47.66-3,1.31-4.44,1.93a2.34,2.34,0,0,1-.22-1A2.42,2.42,0,0,1,312.7,354.34Z"/><path class="cls-2" d="M298.16,354.34a2.42,2.42,0,1,1-2.43,2.42A2.42,2.42,0,0,1,298.16,354.34Z"/><path class="cls-2" d="M290.88,361.61a2.42,2.42,0,0,1,2.43,2.42c0,.12,0,.23,0,.34h0c-1.37.48-2.75.94-4.11,1.38a2.43,2.43,0,0,1,1.71-4.14Z"/><path class="cls-2" d="M283.61,354.34a2.42,2.42,0,1,1-2.42,2.42A2.42,2.42,0,0,1,283.61,354.34Z"/><path class="cls-2" d="M276.34,361.61a2.43,2.43,0,1,1-2.43,2.42A2.42,2.42,0,0,1,276.34,361.61Z"/><path class="cls-2" d="M269.06,354.34a2.42,2.42,0,1,1-2.42,2.42A2.42,2.42,0,0,1,269.06,354.34Z"/><path class="cls-2" d="M261.79,361.61a2.43,2.43,0,1,1-2.42,2.42A2.42,2.42,0,0,1,261.79,361.61Z"/><path class="cls-2" d="M254.52,354.34a2.42,2.42,0,1,1-2.42,2.42A2.42,2.42,0,0,1,254.52,354.34Z"/><path class="cls-2" d="M247.25,361.61a2.43,2.43,0,1,1-2.43,2.42A2.42,2.42,0,0,1,247.25,361.61Z"/><path class="cls-2" d="M240,354.34a2.42,2.42,0,1,1-2.42,2.42A2.42,2.42,0,0,1,240,354.34Z"/><path class="cls-2" d="M232.7,361.61a2.43,2.43,0,1,1-2.42,2.42A2.42,2.42,0,0,1,232.7,361.61Z"/><path class="cls-2" d="M225.43,354.34a2.42,2.42,0,1,1-2.42,2.42A2.42,2.42,0,0,1,225.43,354.34Z"/><path class="cls-2" d="M218.16,361.61a2.43,2.43,0,1,1-2.43,2.42A2.42,2.42,0,0,1,218.16,361.61Z"/><path class="cls-2" d="M210.89,354.34a2.42,2.42,0,1,1-2.43,2.42A2.42,2.42,0,0,1,210.89,354.34Z"/><path class="cls-2" d="M203.61,361.61a2.43,2.43,0,1,1-2.42,2.42A2.42,2.42,0,0,1,203.61,361.61Z"/><path class="cls-2" d="M196.34,354.34a2.42,2.42,0,1,1-2.42,2.42A2.42,2.42,0,0,1,196.34,354.34Z"/><path class="cls-2" d="M189.07,361.61a2.43,2.43,0,1,1-2.43,2.42A2.42,2.42,0,0,1,189.07,361.61Z"/><path class="cls-2" d="M181.79,354.34a2.42,2.42,0,1,1-2.42,2.42A2.42,2.42,0,0,1,181.79,354.34Z"/><path class="cls-2" d="M174.52,361.61A2.43,2.43,0,1,1,172.1,364,2.42,2.42,0,0,1,174.52,361.61Z"/><path class="cls-2" d="M167.25,354.34a2.42,2.42,0,1,1-2.42,2.42A2.42,2.42,0,0,1,167.25,354.34Z"/><path class="cls-2" d="M160,361.61a2.43,2.43,0,1,1-2.43,2.42A2.42,2.42,0,0,1,160,361.61Z"/><path class="cls-2" d="M152.7,354.34a2.42,2.42,0,1,1-2.42,2.42A2.42,2.42,0,0,1,152.7,354.34Z"/><path class="cls-2" d="M145.43,361.61A2.43,2.43,0,1,1,143,364,2.42,2.42,0,0,1,145.43,361.61Z"/><path class="cls-2" d="M138.16,354.34a2.42,2.42,0,1,1-2.42,2.42A2.42,2.42,0,0,1,138.16,354.34Z"/><path class="cls-2" d="M130.89,361.61A2.42,2.42,0,0,1,132,366.2h0c-1.11-.39-2.22-.8-3.3-1.22a2.34,2.34,0,0,1-.2-1A2.42,2.42,0,0,1,130.89,361.61Z"/><path class="cls-2" d="M123.61,354.34a2.42,2.42,0,1,1-2.42,2.42A2.42,2.42,0,0,1,123.61,354.34Z"/><path class="cls-2" d="M111.49,356.76a2.76,2.76,0,0,1,0,.51c-1.4-.7-2.79-1.42-4.15-2.15a2.42,2.42,0,0,1,4.2,1.64Z"/><path class="cls-2" d="M269.06,368.88a2.42,2.42,0,0,1,2.38,1.93c-1.57.4-3.14.76-4.71,1.12a2.18,2.18,0,0,1-.09-.63A2.42,2.42,0,0,1,269.06,368.88Z"/><path class="cls-2" d="M254.52,368.88a2.43,2.43,0,1,1-2.42,2.42A2.42,2.42,0,0,1,254.52,368.88Z"/><path class="cls-2" d="M240,368.88a2.43,2.43,0,1,1-2.42,2.42A2.42,2.42,0,0,1,240,368.88Z"/><path class="cls-2" d="M232.7,376.15a2.4,2.4,0,0,1,2,1.06c-1.41.14-2.81.28-4.22.39A2.42,2.42,0,0,1,232.7,376.15Z"/><path class="cls-2" d="M225.43,368.88A2.43,2.43,0,1,1,223,371.3,2.42,2.42,0,0,1,225.43,368.88Z"/><path class="cls-2" d="M218.16,376.15a2.42,2.42,0,0,1,2.4,2.11c-1.62.09-3.23.15-4.83.2A2.44,2.44,0,0,1,218.16,376.15Z"/><path class="cls-2" d="M210.89,368.88a2.43,2.43,0,1,1-2.43,2.42A2.42,2.42,0,0,1,210.89,368.88Z"/><path class="cls-2" d="M203.61,376.15a2.43,2.43,0,0,1,2.43,2.41c-1.63,0-3.24,0-4.85-.08A2.42,2.42,0,0,1,203.61,376.15Z"/><path class="cls-2" d="M196.34,368.88a2.43,2.43,0,1,1-2.42,2.42A2.42,2.42,0,0,1,196.34,368.88Z"/><path class="cls-2" d="M189.07,376.15a2.41,2.41,0,0,1,2.36,1.89c-1.54-.11-3.08-.21-4.61-.35A2.4,2.4,0,0,1,189.07,376.15Z"/><path class="cls-2" d="M181.79,368.88a2.43,2.43,0,1,1-2.42,2.42A2.42,2.42,0,0,1,181.79,368.88Z"/><path class="cls-2" d="M167.25,368.88a2.43,2.43,0,1,1-2.42,2.42A2.42,2.42,0,0,1,167.25,368.88Z"/><path class="cls-2" d="M152.7,368.88a2.42,2.42,0,0,1,1.93,3.89c-1.45-.33-2.89-.67-4.31-1a2.12,2.12,0,0,1,0-.44A2.42,2.42,0,0,1,152.7,368.88Z"/></g><path class="cls-3" d="M69.49,217.61C84.94,144.2,75.81,110.55,69,63.36,62.61,18.56,84.42-5.37,121,1.74s88.6,29.22,119.77,49c130.78,82.84,179.38,172.51,185.34,234.66s-48.42,59.72-114,58C259.35,342,194.79,353.46,146,382.09c-51.16,30-92.33,12.63-102.63-12.34C28.32,333.39,53.92,291.59,69.49,217.61Z"/><path class="cls-4" d="M99.37,369.35a9.87,9.87,0,0,1-2.64-.35,10.17,10.17,0,0,1,2.63-20,9.93,9.93,0,0,1,2.64.35,10.17,10.17,0,0,1-2.63,20Zm0,1.94a12.11,12.11,0,1,0-3.14-.41,12.11,12.11,0,0,0,3.14.41Z"/></g></g></svg>