<svg xmlns="http://www.w3.org/2000/svg" xmlns:xlink="http://www.w3.org/1999/xlink" viewBox="0 0 1920 501.36"><defs><style>.cls-1{fill:url(#linear-gradient);}.cls-2,.cls-4{fill:none;stroke:#fff;stroke-miterlimit:10;}.cls-2{stroke-width:2px;}.cls-3,.cls-5{fill:#fff;}.cls-3{opacity:0.75;}.cls-6{opacity:0.31;}.cls-7{opacity:0.26;}</style><linearGradient id="linear-gradient" y1="249.54" x2="1920" y2="249.54" gradientUnits="userSpaceOnUse"><stop offset="0" stop-color="#42a4f8"/><stop offset="0.3" stop-color="#46a6f8"/><stop offset="0.57" stop-color="#51abf9"/><stop offset="0.84" stop-color="#63b4fa"/><stop offset="1" stop-color="#73bcfb"/></linearGradient></defs><g id="Layer_2" data-name="Layer 2"><g id="Layer_1-2" data-name="Layer 1"><path class="cls-1" d="M1920,499.08V91.7q-8.31-2.53-16.77-5C1303.9-87.17,227,48.9,0,80.53V499.08Z"/><path class="cls-2" d="M1806.12,500.36a80.28,80.28,0,1,0-127.86,0Z"/><path class="cls-3" d="M1726.15,419.67A40.15,40.15,0,1,0,1686,379.52a40.15,40.15,0,0,0,40.15,40.15Z"/><path class="cls-4" d="M404.11,34.61H371.75v2.25H338a33.25,33.25,0,1,0,66.11-2.25Z"/><path class="cls-5" d="M1534.74,73a8.52,8.52,0,1,1-11.64,3.12A8.53,8.53,0,0,1,1534.74,73Z"/><g class="cls-6"><path class="cls-5" d="M604.68,500.36a53,53,0,1,0-101.44,0Z"/></g><g class="cls-7"><path class="cls-2" d="M1160.81,55.23a51.23,51.23,0,1,1-70,18.75A51.24,51.24,0,0,1,1160.81,55.23Z"/></g></g></g></svg>