<svg xmlns="http://www.w3.org/2000/svg" xmlns:xlink="http://www.w3.org/1999/xlink" viewBox="0 0 803 670.22"><defs><style>.cls-1{fill:#d7e6f3;}.cls-2{fill:url(#linear-gradient);}.cls-3{fill:#fff;opacity:0.75;}.cls-4{fill:#42a4f8;}.cls-5{fill:url(#linear-gradient-2);}</style><linearGradient id="linear-gradient" x1="-2147.39" y1="457.36" x2="-1442.7" y2="84.01" gradientTransform="translate(-1328 606.42) rotate(180)" gradientUnits="userSpaceOnUse"><stop offset="0" stop-color="#73bcfb"/><stop offset="1" stop-color="#42a4f8"/></linearGradient><linearGradient id="linear-gradient-2" x1="-1498.81" y1="525.68" x2="-1338.21" y2="525.68" gradientTransform="matrix(-1, 0, 0, 1, -1282, 0)" gradientUnits="userSpaceOnUse"><stop offset="0" stop-color="#73bcfb"/><stop offset="0.32" stop-color="#70bafb"/><stop offset="0.58" stop-color="#66b6fa"/><stop offset="0.82" stop-color="#55adf9"/><stop offset="1" stop-color="#42a4f8"/></linearGradient></defs><g id="Layer_2" data-name="Layer 2"><g id="Layer_1-2" data-name="Layer 1"><path class="cls-1" d="M791.55,417.32c-37.19-91.08-49.45-138.48-38.66-206C780.29,39.78,569,38.54,345,63.67,207.37,79.11,64.85,127.21,17.44,204.39S22.68,368.17,134.66,405.8c175.06,58.83,332.87,125.24,399.28,168S663.65,630.29,736.24,590C789.2,560.53,821.45,490.56,791.55,417.32Z"/><path class="cls-2" d="M665.07,436.32C522.28,608.16,369.57,753,265.67,615.5,224.76,561.35,181.8,537,89.45,499.66,15.21,469.63-12,399,4.81,342.11c23.08-78,78.49-112.07,157-128.31S401.5,134.66,569.65,54.62C677.2,3.43,777.42,27,799,113.09S752.8,330.74,665.07,436.32Z"/><path class="cls-3" d="M96.3,199.72a36.94,36.94,0,1,1-36.94,36.94A37,37,0,0,1,96.3,199.72Zm0-3.21a40.15,40.15,0,1,0,40.15,40.15A40.16,40.16,0,0,0,96.3,196.51Z"/><path class="cls-3" d="M674.83,151.5a16.68,16.68,0,0,1,4.38.58,16.84,16.84,0,1,1-4.38-.58Zm0-3.22a20.08,20.08,0,0,0-5.18,39.47,20.39,20.39,0,0,0,5.21.69A20.08,20.08,0,0,0,680,149a20.39,20.39,0,0,0-5.21-.69Z"/><circle class="cls-4" cx="596.62" cy="40.15" r="40.15"/><path class="cls-5" d="M67,565.82A80.28,80.28,0,1,0,96.37,456.15,80.28,80.28,0,0,0,67,565.82Z"/></g></g></svg>