<svg xmlns="http://www.w3.org/2000/svg" viewBox="0 0 75 75"><defs><style>.cls-1,.cls-2{fill:#3e3e3e;}.cls-1{opacity:0.3;}</style></defs><g id="Layer_2" data-name="Layer 2"><g id="Layer_1-2" data-name="Layer 1"><path class="cls-1" d="M37.5,72A34.5,34.5,0,1,1,72,37.5,34.54,34.54,0,0,1,37.5,72Zm0,3A37.5,37.5,0,1,0,0,37.5,37.5,37.5,0,0,0,37.5,75Z"/><path class="cls-2" d="M55.53,62.72a1.19,1.19,0,0,1-.48-1.11q0-4.45,0-8.91a5.17,5.17,0,0,0-3.83-5.32l-1.34-.45a9,9,0,0,1-.18,4.7l.49.18a3.92,3.92,0,1,1-5.4,4.08,3.86,3.86,0,0,1,2.81-4.2,1,1,0,0,0,.79-.82,7.14,7.14,0,0,0-.13-4.12,1,1,0,0,0-.5-.52c-1.24-.45-2.51-.85-3.76-1.29a.52.52,0,0,0-.65.15,5.8,5.8,0,0,1-.55.56c-.78.78-1.15.91-1.55.52s-.28-.78.49-1.54a2.86,2.86,0,0,1,.48-.32,3.41,3.41,0,0,1-1.12-2.63,11.42,11.42,0,0,1-7.24,0,3.11,3.11,0,0,1-.88,2.4l4.68,4.69c.3-.32.63-.66,1-1s.89-.53,1.23-.18.27.76-.17,1.2l-1.15,1.15a1.17,1.17,0,0,1-1.88,0c-1.6-1.6-3.21-3.19-4.79-4.81a.65.65,0,0,0-.81-.19c-1.41.49-2.82.95-4.23,1.45a.81.81,0,0,0-.45.42,6.84,6.84,0,0,0-.09,4.4.77.77,0,0,0,.44.41A3.5,3.5,0,0,1,29.35,55c0,1,0,1.91,0,2.86a1.36,1.36,0,0,1-1.51,1.48,4,4,0,0,1-.69,0,.73.73,0,0,1,0-1.46c.21,0,.42,0,.66,0,0-1.14.07-2.24,0-3.33a1.93,1.93,0,0,0-2-1.57,2,2,0,0,0-1.87,1.77c-.06.85,0,1.71,0,2.56v.57c.25,0,.47,0,.69,0a.73.73,0,0,1,.08,1.45,4.24,4.24,0,0,1-1.18,0,1.21,1.21,0,0,1-1-1.19,35.8,35.8,0,0,1,0-3.59,3.22,3.22,0,0,1,1.89-2.65l.52-.23a9.14,9.14,0,0,1-.14-4.53A5.44,5.44,0,0,0,20,51.47,6.31,6.31,0,0,0,20,52.7q0,4.45,0,8.91a1.19,1.19,0,0,1-.47,1.11H19a1,1,0,0,1-.53-1c0-3.09,0-6.17,0-9.26a6.57,6.57,0,0,1,4.64-6.44L26.23,45l-.35-.33a6.93,6.93,0,0,1-2.56-5.47c0-4.24,0-8.47,0-12.71a13.79,13.79,0,0,1,4.1-10,1.1,1.1,0,0,1,.76-.33.74.74,0,0,1,.55.45,1.25,1.25,0,0,1-.21.83c-.68.94-1.48,1.8-2.08,2.79a11.62,11.62,0,0,0-1.64,5.61c0,.17,0,.35,0,.43,1.21-.13,2.41-.22,3.61-.39a17.37,17.37,0,0,0,8-3.33,1.63,1.63,0,0,1,2.06-.08A25.89,25.89,0,0,0,47.75,26c.46.09,1,0,1.42.1a10.05,10.05,0,0,1,1,.28,12.58,12.58,0,0,0-.72-4.18,12.72,12.72,0,0,0-12.74-8.43,12.43,12.43,0,0,0-5.12,1.43c-.68.35-1.1.31-1.34-.12s-.05-.83.66-1.2A14,14,0,0,1,36,12.37a2,2,0,0,0,.33-.08h2.36c.84.16,1.68.28,2.5.49A14.13,14.13,0,0,1,51.6,25.08c0,.55.08,1.11.08,1.67,0,4.06,0,8.13,0,12.2A7.11,7.11,0,0,1,49,44.79l-.2.19,2.07.7a9.22,9.22,0,0,1,3.33,1.62,6.39,6.39,0,0,1,2.35,4.85c0,3.23,0,6.46,0,9.7a1,1,0,0,1-.52.87ZM27.68,27.51c.09,1.76,0,3.51.29,5.22a9.7,9.7,0,0,0,18.61,1.86c.91-2.32.59-4.72.67-7.12l-.41-.11a26.35,26.35,0,0,1-8.23-3.13,1.56,1.56,0,0,0-2,.05A18.94,18.94,0,0,1,27.68,27.51Zm-2.86,4.14c0,2.69-.09,5.4,0,8.09a5.14,5.14,0,0,0,2.89,4.4.94.94,0,0,0,.64.12c1.07-.33,2.12-.69,3.17-1.06A1.19,1.19,0,0,0,32.38,42a3.65,3.65,0,0,0,0-.74.7.7,0,0,0-.27-.44,11.35,11.35,0,0,1-5.73-8.59A.51.51,0,0,0,26.1,32C25.68,31.83,25.25,31.75,24.82,31.65Zm25.38,0a9.74,9.74,0,0,1-1.18.26c-.29,0-.36.17-.39.44a10.94,10.94,0,0,1-5.31,8.25,1.24,1.24,0,0,0-.71,1.31,1.29,1.29,0,0,0,1,1.32c1,.35,2,.69,3,1a.89.89,0,0,0,.64-.06,5.22,5.22,0,0,0,3-4.55C50.28,37,50.2,34.32,50.2,31.65Zm.92,23.8a2.43,2.43,0,1,0-2.45,2.43A2.45,2.45,0,0,0,51.12,55.45ZM26.26,27.58A1.45,1.45,0,0,0,24.8,29a1.43,1.43,0,0,0,1.46,1.42Zm22.49,0v2.86a1.41,1.41,0,0,0,1.45-1.36A1.45,1.45,0,0,0,48.75,27.58Z"/><path class="cls-2" d="M37.21,62.72c-.08-.08-.16-.15-.24-.24a.72.72,0,0,1,.05-1,.68.68,0,0,1,1,0,.72.72,0,0,1,0,1l-.23.24Z"/><path class="cls-2" d="M38.23,53.1a.73.73,0,1,1-1.45,0,.73.73,0,0,1,.74-.74A.73.73,0,0,1,38.23,53.1Z"/><path class="cls-2" d="M37.51,56.81a.74.74,0,0,1,0,1.47.74.74,0,0,1,0-1.47Z"/><path class="cls-2" d="M37.49,37.14c-.64-.25-1.26-.45-1.83-.73a.7.7,0,0,1-.25-1,.69.69,0,0,1,1-.23,1.94,1.94,0,0,0,2.21,0,.68.68,0,0,1,1,.23.7.7,0,0,1-.25,1C38.76,36.69,38.15,36.89,37.49,37.14Z"/><path class="cls-2" d="M33.46,29.78c0,.28,0,.56,0,.84a.72.72,0,0,1-.74.7.7.7,0,0,1-.72-.71c0-.57,0-1.14,0-1.71a.75.75,0,0,1,.71-.74.75.75,0,0,1,.76.74C33.48,29.2,33.46,29.49,33.46,29.78Z"/><path class="cls-2" d="M43,29.74c0,.3,0,.59,0,.88a.72.72,0,0,1-.74.7.7.7,0,0,1-.72-.71c0-.57,0-1.15,0-1.72a.73.73,0,0,1,.71-.73.76.76,0,0,1,.76.75v.83Z"/></g></g></svg>