<svg xmlns="http://www.w3.org/2000/svg" viewBox="0 0 75 75"><defs><style>.cls-1,.cls-2{fill:#3e3e3e;}.cls-1{opacity:0.3;}</style></defs><g id="Layer_2" data-name="Layer 2"><g id="Layer_1-2" data-name="Layer 1"><path class="cls-1" d="M37.5,72A34.5,34.5,0,1,1,72,37.5,34.54,34.54,0,0,1,37.5,72Zm0,3A37.5,37.5,0,1,0,0,37.5,37.5,37.5,0,0,0,37.5,75Z"/><path class="cls-2" d="M34.47,15.05h8.07a1.61,1.61,0,0,1,1.09,1c.09.29.24.33.5.33q2.37,0,4.74,0a4.25,4.25,0,0,1,1.07.15,3.24,3.24,0,0,1,2.35,3.31q0,11.66,0,23.32c0,.4.09.59.51.72a8.23,8.23,0,0,1-.26,15.75c-.48.14-1,.22-1.48.33H21.31a.6.6,0,0,0-.11-.06,3.27,3.27,0,0,1-2.7-3.44V19.84A3.28,3.28,0,0,1,22,16.37c1.83,0,3.66,0,5.48,0h.93a1.68,1.68,0,0,1,1.19-1.32h2.37c.25.25.49.52.32.91s-.52.42-.89.41-.84,0-1.27,0-.44.09-.43.4c0,.55,0,1.11,0,1.66a2.83,2.83,0,0,0,2.8,2.76q3.59,0,7.19,0a2.74,2.74,0,0,0,2.7-2.29,19.19,19.19,0,0,0,.09-2c0-.42-.14-.52-.53-.52H35c-.37,0-.71,0-.87-.42S34.2,15.29,34.47,15.05Zm13,6.14H42.79a.73.73,0,0,0-.4.22,4.11,4.11,0,0,1-2.75,1.08q-3.59,0-7.19,0a4.18,4.18,0,0,1-2.72-1.06,1,1,0,0,0-.6-.24c-1.8,0-3.6,0-5.4,0l-.37,0V55.1H42.72A8.31,8.31,0,0,1,51,43.46c0-.15,0-.28,0-.41V19.82a2,2,0,0,0-2.13-2.14h-5l-.28,2.2H47.4c1.08,0,1.38.3,1.38,1.37V41a3.23,3.23,0,0,1,0,.44.6.6,0,0,1-.56.57.59.59,0,0,1-.7-.46,2.16,2.16,0,0,1,0-.57q0-9.57,0-19.16ZM45.6,58.64c-.61-.63-1.24-1.21-1.81-1.85a.88.88,0,0,0-.73-.35q-9.9,0-19.81,0c-.87,0-1.24-.36-1.24-1.21V21.08a1,1,0,0,1,1.2-1.2h5.34l-.27-2.2h-6.2A2,2,0,0,0,19.82,20V56.38a2,2,0,0,0,2.27,2.26H45.6Zm9.78-2.3a6.92,6.92,0,1,0-10.44-9.07,6.78,6.78,0,0,0,.22,9A6.27,6.27,0,0,1,55.38,56.34Zm-1,.91a4.88,4.88,0,0,0-8.22,0A6.85,6.85,0,0,0,54.37,57.25Z"/><path class="cls-2" d="M37.37,29h2.25c1.19,0,1.57.38,1.57,1.58,0,.33,0,.67,0,1a1.22,1.22,0,0,1-1.36,1.36H37.37v2.3c0,1.1-.41,1.51-1.5,1.51H34.68a1.19,1.19,0,0,1-1.26-1.27c0-.83,0-1.65,0-2.54H31.51c-.25,0-.5,0-.75,0a1.15,1.15,0,0,1-1.14-1.2q0-.77,0-1.53A1.15,1.15,0,0,1,30.84,29c.69,0,1.38,0,2.06,0h.52V26.55c0-1,.45-1.41,1.42-1.41.44,0,.88,0,1.32,0a1.17,1.17,0,0,1,1.2,1.23C37.37,27.21,37.37,28.06,37.37,29Zm-1.32,6.42V32.62a.93.93,0,0,1,1-1c.2,0,.41,0,.61,0h2.16V30.27h-.5c-.76,0-1.52,0-2.28,0a.94.94,0,0,1-1-1.05V26.49H34.74c0,.93,0,1.82,0,2.71a.94.94,0,0,1-1,1.07c-.47,0-.94,0-1.4,0H31v1.32h2.61c.86,0,1.16.31,1.17,1.16v2.63Z"/><path class="cls-2" d="M35.48,40.66H27.19a2.67,2.67,0,0,1-.4,0,.6.6,0,0,1-.58-.64.62.62,0,0,1,.57-.66,1.61,1.61,0,0,1,.31,0H43.93a1.4,1.4,0,0,1,.35,0,.63.63,0,0,1,.55.63.62.62,0,0,1-.54.65,2.13,2.13,0,0,1-.44,0Z"/><path class="cls-2" d="M34.82,43.29H42.4a2.16,2.16,0,0,1,.44,0,.61.61,0,0,1,.53.65.64.64,0,0,1-.52.63,2,2,0,0,1-.35,0H26.82a.65.65,0,0,1-.62-.67.63.63,0,0,1,.6-.63,2.54,2.54,0,0,1,.39,0Z"/><path class="cls-2" d="M33.55,48.55H27.19a2.51,2.51,0,0,1-.39,0,.6.6,0,0,1-.59-.64.62.62,0,0,1,.57-.66c.1,0,.21,0,.31,0H40a1.36,1.36,0,0,1,.35,0,.65.65,0,0,1,0,1.29,2.06,2.06,0,0,1-.43,0Z"/><path class="cls-2" d="M32.93,51.18h5.66a2.51,2.51,0,0,1,.39,0,.65.65,0,0,1,0,1.3,2,2,0,0,1-.35,0H26.82a.64.64,0,0,1-.62-.66.63.63,0,0,1,.64-.64c.42,0,.85,0,1.27,0Z"/><path class="cls-2" d="M50.27,46.34a3,3,0,1,1-3,3A3,3,0,0,1,50.27,46.34Zm0,1.32A1.69,1.69,0,1,0,52,49.33,1.66,1.66,0,0,0,50.24,47.66Z"/></g></g></svg>