<svg xmlns="http://www.w3.org/2000/svg" viewBox="0 0 305.69 87.47"><defs><style>.cls-1,.cls-2{fill:#fff;}.cls-2{font-size:18.58px;font-family:Poppins-Regular, Poppins;}</style></defs><g id="Layer_2" data-name="Layer 2"><g id="Layer_1-2" data-name="Layer 1"><path class="cls-1" d="M99.58,45.83H83.24c-2,0-3.06,1-3.36,3Q77,68.22,60.13,78.14a37.89,37.89,0,0,1-19,5.12c-1.5,0-2.48-.81-2.51-2s1-2.07,2.45-2.13c.32,0,.65,0,1,0a35.07,35.07,0,0,0,18-5.73c1.36-.9,1.71-2.07,1-3.16s-1.92-1.22-3.3-.33a31.43,31.43,0,0,1-16.86,5.06,6.09,6.09,0,0,0-5.66,3.41,1.24,1.24,0,0,1-1.26.78c-6.57,0-6.13,0-12.7,0a11.25,11.25,0,0,1-10.46-7.73c3.14-1.79,4.7-3.83,4.86-6.64a43.45,43.45,0,0,0,0-5.59A7.83,7.83,0,0,0,8.8,52a7.94,7.94,0,0,0-8.27,4.9c-.2.49,0,1.11-.53,1.48v7.26c.45.11.29.54.39.81a7.61,7.61,0,0,0,5,4.91A1.92,1.92,0,0,1,6.7,72.75a15.55,15.55,0,0,0,11,10,17.3,17.3,0,0,0,4.7.52c6.47,0,5.93,0,12.35,0a6.51,6.51,0,0,0,6.7,4.18Q69.23,86,81,60.76A39.88,39.88,0,0,0,84,50h1.61m-1-12.58a.7.7,0,0,1-.69-.24c-.13-.7-.27-1.47-.42-2.24C79.7,15.43,62,.5,42.27,0c-3.45-.09-6.11.88-7.55,4.2-6.87,0-6.67-.13-13.46,0A15,15,0,0,0,7.5,13c-.87,1.73-1.66,3.13-3.63,3.87-1.74.65-2.74,2.28-3.44,4-.16.4.12,1-.43,1.22v7.26c.46.1.29.53.39.8a7.87,7.87,0,0,0,8,5.33,7.68,7.68,0,0,0,7.11-6.41,21.9,21.9,0,0,0,0-6.95,7.73,7.73,0,0,0-4.86-6A11.7,11.7,0,0,1,21.9,8.4c6.23,0,5.47,0,11.71,0a1.49,1.49,0,0,1,1.62.89,6.13,6.13,0,0,0,5.45,3.3c1.16.07,2.32.11,3.48.24A31.14,31.14,0,0,1,69.69,55.07a33.19,33.19,0,0,1-4.8,8.29c-1.12,1.42-.57,3.16,1,3.5a2.39,2.39,0,0,0,2.48-1.18,35.37,35.37,0,0,0-27-57.28c-1.73,0-2.76-.83-2.77-2.1s1-2.14,2.88-2.07c1.49,0,3,.13,4.45.32a39.54,39.54,0,0,1,34,34.08c.28,2.08,1.32,3,3.46,3H97c1.17,0,2.33,0,3.5,0M11.43,23.22c.06.78,0,1.58,0,2.36s.05,1.59,0,2.37a3.61,3.61,0,0,1-3.6,3.35,3.57,3.57,0,0,1-3.59-3.36,41.47,41.47,0,0,1,0-4.73,3.57,3.57,0,0,1,3.59-3.35A3.64,3.64,0,0,1,11.43,23.22ZM7.85,67.62a3.58,3.58,0,0,1-3.63-3.46c-.07-1.53-.08-3.06,0-4.59a3.59,3.59,0,0,1,3.57-3.39,3.63,3.63,0,0,1,3.63,3.33c.07.78,0,1.57,0,2.36h0c0,.74,0,1.49,0,2.23A3.63,3.63,0,0,1,7.85,67.62Z"/><text class="cls-2" transform="translate(99.69 62.8)">Proche.ma</text><path class="cls-1" d="M108.51,41.56a16.88,16.88,0,0,1-6.45-6.35A17.9,17.9,0,0,1,99.69,26a17.78,17.78,0,0,1,2.37-9.15,17,17,0,0,1,6.45-6.33,18.78,18.78,0,0,1,17.9,0,16.78,16.78,0,0,1,6.43,6.33A18,18,0,0,1,135.19,26a18.09,18.09,0,0,1-2.35,9.17,16.69,16.69,0,0,1-6.43,6.35,18.71,18.71,0,0,1-17.9,0Zm15.08-4.25a10.87,10.87,0,0,0,4.22-4.5A14.41,14.41,0,0,0,129.34,26a14.24,14.24,0,0,0-1.53-6.75,10.68,10.68,0,0,0-4.22-4.45,13,13,0,0,0-12.3,0,10.76,10.76,0,0,0-4.23,4.45A14.36,14.36,0,0,0,105.54,26a14.53,14.53,0,0,0,1.52,6.77,11,11,0,0,0,4.23,4.5,12.76,12.76,0,0,0,12.3,0Z"/><path class="cls-1" d="M143.76,16.89a16.9,16.9,0,0,1,6.45-6.33A19,19,0,0,1,169,11a15.54,15.54,0,0,1,6.28,7.73h-6.85a9.15,9.15,0,0,0-3.75-4.1,11.13,11.13,0,0,0-5.55-1.35A12.06,12.06,0,0,0,153,14.84a10.76,10.76,0,0,0-4.23,4.45A14.24,14.24,0,0,0,147.24,26a14.29,14.29,0,0,0,1.52,6.75A11,11,0,0,0,153,37.26a12,12,0,0,0,6.15,1.58,11.13,11.13,0,0,0,5.55-1.35,9.2,9.2,0,0,0,3.75-4.1h6.85a15.43,15.43,0,0,1-6.28,7.7,18.23,18.23,0,0,1-9.87,2.7,17.92,17.92,0,0,1-8.95-2.28,17,17,0,0,1-6.43-6.32A17.78,17.78,0,0,1,141.39,26,17.78,17.78,0,0,1,143.76,16.89Z"/><path class="cls-1" d="M206.89,8.74v4.65h-9.25v30.1h-5.7V13.39h-9.3V8.74Z"/><path class="cls-1" d="M220.84,13.34v10.2h12v4.65h-12V38.84h13.5v4.65h-19.2V8.69h19.2v4.65Z"/><path class="cls-1" d="M249.49,8.74V30.89q0,3.95,2.07,6a9.41,9.41,0,0,0,11.6,0c1.38-1.34,2.08-3.32,2.08-6V8.74h5.7v22a13.34,13.34,0,0,1-1.85,7.2,11.62,11.62,0,0,1-4.95,4.4,16.86,16.86,0,0,1-13.68,0,11.25,11.25,0,0,1-4.87-4.4,13.59,13.59,0,0,1-1.8-7.2v-22Z"/><path class="cls-1" d="M298.89,43.49l-8-13.9h-4.35v13.9h-5.7V8.74h12a14.83,14.83,0,0,1,6.77,1.4,9.69,9.69,0,0,1,4.15,3.75,10.14,10.14,0,0,1,1.38,5.25,10.39,10.39,0,0,1-2,6.17,10.05,10.05,0,0,1-6.07,3.78l8.6,14.4ZM286.54,25h6.3a6.63,6.63,0,0,0,4.82-1.6,5.78,5.78,0,0,0,1.63-4.3,5.6,5.6,0,0,0-1.6-4.23,6.8,6.8,0,0,0-4.85-1.52h-6.3Z"/></g></g></svg>