<svg xmlns="http://www.w3.org/2000/svg" viewBox="0 0 21.5 21.5"><defs><style>.cls-1,.cls-2{fill:none;stroke:#292d32;stroke-width:1.5px;}.cls-1{stroke-miterlimit:10;}.cls-2{stroke-linecap:round;stroke-linejoin:round;}</style></defs><g id="Layer_2" data-name="Layer 2"><g id="Layer_1-2" data-name="Layer 1"><path class="cls-1" d="M20.72,17.08a2.55,2.55,0,0,1-.25,1.09,4.13,4.13,0,0,1-.68,1,4.51,4.51,0,0,1-1.64,1.18,5,5,0,0,1-1.95.38A8.33,8.33,0,0,1,12.94,20,17.56,17.56,0,0,1,9.5,18a28.75,28.75,0,0,1-3.28-2.8A28.41,28.41,0,0,1,3.43,12a17.83,17.83,0,0,1-2-3.41A8.42,8.42,0,0,1,.75,5.29a5.17,5.17,0,0,1,.36-1.93A4.6,4.6,0,0,1,2.26,1.69,2.93,2.93,0,0,1,4.34.75a1.88,1.88,0,0,1,.81.18,1.63,1.63,0,0,1,.67.56L8.14,4.76a3.42,3.42,0,0,1,.4.7,1.58,1.58,0,0,1,.14.61,1.36,1.36,0,0,1-.21.71,3.4,3.4,0,0,1-.56.71l-.76.79a.54.54,0,0,0-.16.4.91.91,0,0,0,0,.23l.08.2A8.3,8.3,0,0,0,8,10.39c.45.52.93,1,1.45,1.58s1.06,1,1.59,1.47a7.67,7.67,0,0,0,1.29.92l.18.08a.69.69,0,0,0,.25,0,.55.55,0,0,0,.41-.17l.76-.75a3.07,3.07,0,0,1,.72-.56,1.33,1.33,0,0,1,.71-.21,1.6,1.6,0,0,1,.61.13,3.87,3.87,0,0,1,.7.39L20,15.66a1.52,1.52,0,0,1,.55.64A2.05,2.05,0,0,1,20.72,17.08Z"/><path class="cls-2" d="M17.25,7.75a4,4,0,0,0-1.17-2.27,3.42,3.42,0,0,0-2.33-1.23"/><path class="cls-2" d="M20.75,7.75a7,7,0,0,0-7-7"/></g></g></svg>