<svg xmlns="http://www.w3.org/2000/svg" viewBox="0 0 354 715.52"><defs><style>.cls-1{fill:#42a4f8;}</style></defs><g id="Layer_2" data-name="Layer 2"><g id="Layer_1-2" data-name="Layer 1"><path class="cls-1" d="M16.21,711.78a4,4,0,0,0-5.45,1.58,4.07,4.07,0,0,0-.48,1.54c2.65.24,5.32.46,8,.62A4,4,0,0,0,16.21,711.78Z"/><path class="cls-1" d="M64.79,715.16c2.07-.16,4.15-.34,6.22-.54a4.49,4.49,0,0,0-1-.73A4,4,0,0,0,64.79,715.16Z"/><path class="cls-1" d="M45.07,709.32a4,4,0,1,0-1.59-5.46A4,4,0,0,0,45.07,709.32Z"/><path class="cls-1" d="M28.7,714.07a4,4,0,1,0-1.58-5.46A4,4,0,0,0,28.7,714.07Z"/><path class="cls-1" d="M24,697.7a4,4,0,1,0-1.58-5.45A4,4,0,0,0,24,697.7Z"/><path class="cls-1" d="M7.59,702.45A4,4,0,1,0,6,697,4,4,0,0,0,7.59,702.45Z"/><path class="cls-1" d="M2.84,686.09a4,4,0,1,0-1.58-5.45A4,4,0,0,0,2.84,686.09Z"/><path class="cls-1" d="M102.78,704.4a4,4,0,0,0-4.72,6.4q3.21-.57,6.44-1.22A4,4,0,0,0,102.78,704.4Z"/><path class="cls-1" d="M86.42,709.15a4,4,0,0,0-5.86,4.38c2.63-.33,5.28-.71,7.93-1.12A4,4,0,0,0,86.42,709.15Z"/><path class="cls-1" d="M77.79,699.82a4,4,0,1,0-1.58-5.45A4,4,0,0,0,77.79,699.82Z"/><path class="cls-1" d="M61.43,704.57a4,4,0,1,0-1.58-5.46A4,4,0,0,0,61.43,704.57Z"/><path class="cls-1" d="M56.68,688.21a4,4,0,1,0-1.58-5.46A4,4,0,0,0,56.68,688.21Z"/><path class="cls-1" d="M40.32,693a4,4,0,1,0-1.59-5.45A4,4,0,0,0,40.32,693Z"/><path class="cls-1" d="M35.57,676.59A4,4,0,1,0,34,671.14,4,4,0,0,0,35.57,676.59Z"/><path class="cls-1" d="M19.2,681.34a4,4,0,1,0-1.58-5.45A4,4,0,0,0,19.2,681.34Z"/><path class="cls-1" d="M14.45,665a4,4,0,1,0-1.58-5.46A4,4,0,0,0,14.45,665Z"/><path class="cls-1" d="M2,662.69a4.06,4.06,0,0,0-2-.48v8a4,4,0,0,0,3.55-2.07A4,4,0,0,0,2,662.69Z"/><path class="cls-1" d="M135.5,694.9a4,4,0,0,0-3.87,7,3.9,3.9,0,0,0,1.44.45c1.05-.3,2.08-.61,3.12-.94a3.62,3.62,0,0,0,.9-1.1A4,4,0,0,0,135.5,694.9Z"/><path class="cls-1" d="M119.14,699.65a4,4,0,0,0-3.87,7,4.66,4.66,0,0,0,.74.31c1.35-.31,2.69-.65,4-1a4.3,4.3,0,0,0,.7-.92A4,4,0,0,0,119.14,699.65Z"/><path class="cls-1" d="M110.52,690.32a4,4,0,1,0-1.58-5.45A4,4,0,0,0,110.52,690.32Z"/><path class="cls-1" d="M94.16,695.07a4,4,0,1,0-1.59-5.45A4,4,0,0,0,94.16,695.07Z"/><path class="cls-1" d="M89.41,678.71a4,4,0,1,0-1.59-5.46A4,4,0,0,0,89.41,678.71Z"/><path class="cls-1" d="M73,683.46A4,4,0,1,0,71.46,678,4,4,0,0,0,73,683.46Z"/><path class="cls-1" d="M68.29,667.09a4,4,0,1,0-1.58-5.45A4,4,0,0,0,68.29,667.09Z"/><path class="cls-1" d="M51.93,671.84a4,4,0,1,0-1.58-5.45A4,4,0,0,0,51.93,671.84Z"/><path class="cls-1" d="M47.18,655.48A4,4,0,1,0,45.6,650,4,4,0,0,0,47.18,655.48Z"/><path class="cls-1" d="M30.82,660.23a4,4,0,1,0-1.59-5.45A4,4,0,0,0,30.82,660.23Z"/><path class="cls-1" d="M26.07,643.87a4,4,0,1,0-1.59-5.46A4,4,0,0,0,26.07,643.87Z"/><path class="cls-1" d="M9.7,648.62a4,4,0,1,0-1.58-5.46A4,4,0,0,0,9.7,648.62Z"/><path class="cls-1" d="M5,632.25a4,4,0,1,0-1.58-5.45A4,4,0,0,0,5,632.25Z"/><path class="cls-1" d="M168.23,685.4a4,4,0,0,0-4.88,6.24c2.34-.95,4.64-1.93,6.94-3A4,4,0,0,0,168.23,685.4Z"/><path class="cls-1" d="M151.87,690.15a4,4,0,1,0-3.87,7l.4.2c1.71-.6,3.4-1.21,5.09-1.86A4,4,0,0,0,151.87,690.15Z"/><path class="cls-1" d="M143.25,680.82a4,4,0,1,0-1.59-5.45A4,4,0,0,0,143.25,680.82Z"/><path class="cls-1" d="M126.88,685.57a4,4,0,1,0-1.58-5.45A4,4,0,0,0,126.88,685.57Z"/><path class="cls-1" d="M122.13,669.21a4,4,0,1,0-1.58-5.45A4,4,0,0,0,122.13,669.21Z"/><path class="cls-1" d="M105.77,674a4,4,0,1,0-1.58-5.45A4,4,0,0,0,105.77,674Z"/><path class="cls-1" d="M101,657.6a4,4,0,1,0-1.58-5.46A4,4,0,0,0,101,657.6Z"/><path class="cls-1" d="M84.66,662.35a4,4,0,1,0-1.59-5.46A4,4,0,0,0,84.66,662.35Z"/><path class="cls-1" d="M79.91,646a4,4,0,1,0-1.59-5.45A4,4,0,0,0,79.91,646Z"/><path class="cls-1" d="M63.54,650.73A4,4,0,1,0,62,645.28,4,4,0,0,0,63.54,650.73Z"/><path class="cls-1" d="M58.79,634.37a4,4,0,1,0-1.58-5.46A4,4,0,0,0,58.79,634.37Z"/><path class="cls-1" d="M42.43,639.12a4,4,0,1,0-1.58-5.46A4,4,0,0,0,42.43,639.12Z"/><path class="cls-1" d="M37.68,622.76a4,4,0,1,0-1.58-5.46A4,4,0,0,0,37.68,622.76Z"/><path class="cls-1" d="M21.31,627.5a4,4,0,1,0-1.58-5.45A4,4,0,0,0,21.31,627.5Z"/><path class="cls-1" d="M16.57,611.14A4,4,0,1,0,15,605.69,4,4,0,0,0,16.57,611.14Z"/><path class="cls-1" d="M4.07,608.85A4,4,0,0,0,0,609v6.76l.2.14a4,4,0,1,0,3.87-7Z"/><path class="cls-1" d="M0,593V599a3.94,3.94,0,0,0,.91-1.1A4,4,0,0,0,0,593Z"/><path class="cls-1" d="M179.14,682.23a4,4,0,0,0-.44,2.61c2.32-1.11,4.61-2.25,6.9-3.42a4.51,4.51,0,0,0-1-.77A4,4,0,0,0,179.14,682.23Z"/><path class="cls-1" d="M176,671.33a4,4,0,1,0-1.58-5.46A4,4,0,0,0,176,671.33Z"/><path class="cls-1" d="M159.61,676.08a4,4,0,1,0-1.58-5.46A4,4,0,0,0,159.61,676.08Z"/><path class="cls-1" d="M154.86,659.71a4,4,0,1,0-1.58-5.45A4,4,0,0,0,154.86,659.71Z"/><path class="cls-1" d="M138.5,664.46a4,4,0,1,0-1.59-5.45A4,4,0,0,0,138.5,664.46Z"/><path class="cls-1" d="M133.75,648.1a4,4,0,1,0-1.59-5.45A4,4,0,0,0,133.75,648.1Z"/><path class="cls-1" d="M117.38,652.85a4,4,0,1,0-1.58-5.46A4,4,0,0,0,117.38,652.85Z"/><path class="cls-1" d="M112.63,636.48a4,4,0,1,0-1.58-5.45A4,4,0,0,0,112.63,636.48Z"/><path class="cls-1" d="M96.27,641.23a4,4,0,1,0-1.58-5.45A4,4,0,0,0,96.27,641.23Z"/><path class="cls-1" d="M91.52,624.87a4,4,0,1,0-1.59-5.45A4,4,0,0,0,91.52,624.87Z"/><path class="cls-1" d="M75.16,629.62a4,4,0,1,0-1.59-5.45A4,4,0,0,0,75.16,629.62Z"/><path class="cls-1" d="M70.41,613.26a4,4,0,1,0-1.59-5.46A4,4,0,0,0,70.41,613.26Z"/><path class="cls-1" d="M54,618a4,4,0,1,0-1.58-5.46A4,4,0,0,0,54,618Z"/><path class="cls-1" d="M49.29,601.64a4,4,0,1,0-1.58-5.45A4,4,0,0,0,49.29,601.64Z"/><path class="cls-1" d="M32.93,606.39a4,4,0,1,0-1.59-5.45A4,4,0,0,0,32.93,606.39Z"/><path class="cls-1" d="M28.18,590a4,4,0,1,0-1.59-5.45A4,4,0,0,0,28.18,590Z"/><path class="cls-1" d="M11.82,594.78a4,4,0,1,0-1.59-5.46A4,4,0,0,0,11.82,594.78Z"/><path class="cls-1" d="M7.06,578.42A4,4,0,1,0,5.48,573,4,4,0,0,0,7.06,578.42Z"/><path class="cls-1" d="M208.7,661.83a4,4,0,1,0-1.58-5.45A4,4,0,0,0,208.7,661.83Z"/><path class="cls-1" d="M192.34,666.58a4,4,0,1,0-1.59-5.46A4,4,0,0,0,192.34,666.58Z"/><path class="cls-1" d="M187.59,650.22a4,4,0,1,0-1.59-5.46A4,4,0,0,0,187.59,650.22Z"/><path class="cls-1" d="M171.22,655a4,4,0,1,0-1.58-5.45A4,4,0,0,0,171.22,655Z"/><path class="cls-1" d="M166.47,638.6a4,4,0,1,0-1.58-5.45A4,4,0,0,0,166.47,638.6Z"/><path class="cls-1" d="M150.11,643.35a4,4,0,1,0-1.58-5.45A4,4,0,0,0,150.11,643.35Z"/><path class="cls-1" d="M145.36,627a4,4,0,1,0-1.58-5.46A4,4,0,0,0,145.36,627Z"/><path class="cls-1" d="M129,631.74a4,4,0,1,0-1.58-5.46A4,4,0,0,0,129,631.74Z"/><path class="cls-1" d="M124.25,615.37a4,4,0,1,0-1.59-5.45A4,4,0,0,0,124.25,615.37Z"/><path class="cls-1" d="M107.88,620.12a4,4,0,1,0-1.58-5.45A4,4,0,0,0,107.88,620.12Z"/><path class="cls-1" d="M103.13,603.76a4,4,0,1,0-1.58-5.45A4,4,0,0,0,103.13,603.76Z"/><path class="cls-1" d="M86.77,608.51a4,4,0,1,0-1.59-5.46A4,4,0,0,0,86.77,608.51Z"/><path class="cls-1" d="M82,592.15a4,4,0,1,0-1.59-5.46A4,4,0,0,0,82,592.15Z"/><path class="cls-1" d="M65.66,596.9a4,4,0,1,0-1.59-5.46A4,4,0,0,0,65.66,596.9Z"/><path class="cls-1" d="M60.9,580.53a4,4,0,1,0-1.58-5.45A4,4,0,0,0,60.9,580.53Z"/><path class="cls-1" d="M44.54,585.28A4,4,0,1,0,43,579.83,4,4,0,0,0,44.54,585.28Z"/><path class="cls-1" d="M39.79,568.92a4,4,0,1,0-1.58-5.46A4,4,0,0,0,39.79,568.92Z"/><path class="cls-1" d="M23.43,573.67a4,4,0,1,0-1.59-5.46A4,4,0,0,0,23.43,573.67Z"/><path class="cls-1" d="M18.68,557.3a4,4,0,1,0-1.59-5.45A4,4,0,0,0,18.68,557.3Z"/><path class="cls-1" d="M2.31,562.05A4,4,0,1,0,.73,556.6,4,4,0,0,0,2.31,562.05Z"/><path class="cls-1" d="M1.43,538.65A4.13,4.13,0,0,0,0,538.19v8a4,4,0,0,0,3-2A4,4,0,0,0,1.43,538.65Z"/><path class="cls-1" d="M228.93,650a4,4,0,0,0-3.87,7,1,1,0,0,0,.24.11c1.89-1.38,3.79-2.79,5.67-4.21A4.07,4.07,0,0,0,228.93,650Z"/><path class="cls-1" d="M220.31,640.72a4,4,0,1,0-1.58-5.46A4,4,0,0,0,220.31,640.72Z"/><path class="cls-1" d="M204,645.47a4,4,0,1,0-1.59-5.46A4,4,0,0,0,204,645.47Z"/><path class="cls-1" d="M199.2,629.1a4,4,0,1,0-1.59-5.45A4,4,0,0,0,199.2,629.1Z"/><path class="cls-1" d="M182.84,633.85a4,4,0,1,0-1.59-5.45A4,4,0,0,0,182.84,633.85Z"/><path class="cls-1" d="M178.08,617.49A4,4,0,1,0,176.5,612,4,4,0,0,0,178.08,617.49Z"/><path class="cls-1" d="M161.72,622.24a4,4,0,1,0-1.58-5.45A4,4,0,0,0,161.72,622.24Z"/><path class="cls-1" d="M157,605.88a4,4,0,1,0-1.58-5.46A4,4,0,0,0,157,605.88Z"/><path class="cls-1" d="M140.61,610.63a4,4,0,1,0-1.59-5.46A4,4,0,0,0,140.61,610.63Z"/><path class="cls-1" d="M135.86,594.26a4,4,0,1,0-1.59-5.45A4,4,0,0,0,135.86,594.26Z"/><path class="cls-1" d="M119.49,599a4,4,0,1,0-1.58-5.45A4,4,0,0,0,119.49,599Z"/><path class="cls-1" d="M114.74,582.65a4,4,0,1,0-1.58-5.46A4,4,0,0,0,114.74,582.65Z"/><path class="cls-1" d="M98.38,587.4a4,4,0,1,0-1.58-5.46A4,4,0,0,0,98.38,587.4Z"/><path class="cls-1" d="M93.63,571a4,4,0,1,0-1.58-5.46A4,4,0,0,0,93.63,571Z"/><path class="cls-1" d="M77.27,575.78a4,4,0,1,0-1.59-5.45A4,4,0,0,0,77.27,575.78Z"/><path class="cls-1" d="M72.52,559.42A4,4,0,1,0,70.93,554,4,4,0,0,0,72.52,559.42Z"/><path class="cls-1" d="M56.15,564.17a4,4,0,1,0-1.58-5.45A4,4,0,0,0,56.15,564.17Z"/><path class="cls-1" d="M51.4,547.81a4,4,0,1,0-1.58-5.46A4,4,0,0,0,51.4,547.81Z"/><path class="cls-1" d="M35,552.56a4,4,0,1,0-1.58-5.46A4,4,0,0,0,35,552.56Z"/><path class="cls-1" d="M30.29,536.19a4,4,0,1,0-1.58-5.45A4,4,0,0,0,30.29,536.19Z"/><path class="cls-1" d="M13.93,540.94a4,4,0,1,0-1.59-5.45A4,4,0,0,0,13.93,540.94Z"/><path class="cls-1" d="M9.18,524.58a4,4,0,1,0-1.59-5.45A4,4,0,0,0,9.18,524.58Z"/><path class="cls-1" d="M256.91,624.18a4,4,0,1,0-1,7.42h0c1-.92,1.91-1.85,2.86-2.79,0,0,0,0,0,0A4,4,0,0,0,256.91,624.18Z"/><path class="cls-1" d="M236.68,636a4,4,0,1,0-1.59-5.45A4,4,0,0,0,236.68,636Z"/><path class="cls-1" d="M231.92,619.61a4,4,0,1,0-1.58-5.46A4,4,0,0,0,231.92,619.61Z"/><path class="cls-1" d="M215.56,624.36A4,4,0,1,0,214,618.9,4,4,0,0,0,215.56,624.36Z"/><path class="cls-1" d="M210.81,608a4,4,0,1,0-1.58-5.45A4,4,0,0,0,210.81,608Z"/><path class="cls-1" d="M194.45,612.74a4,4,0,1,0-1.59-5.45A4,4,0,0,0,194.45,612.74Z"/><path class="cls-1" d="M189.7,596.38a4,4,0,1,0-1.59-5.45A4,4,0,0,0,189.7,596.38Z"/><path class="cls-1" d="M173.33,601.13a4,4,0,1,0-1.58-5.46A4,4,0,0,0,173.33,601.13Z"/><path class="cls-1" d="M168.58,584.77a4,4,0,1,0-1.58-5.46A4,4,0,0,0,168.58,584.77Z"/><path class="cls-1" d="M152.22,589.51a4,4,0,1,0-1.58-5.45A4,4,0,0,0,152.22,589.51Z"/><path class="cls-1" d="M147.47,573.15a4,4,0,1,0-1.58-5.45A4,4,0,0,0,147.47,573.15Z"/><path class="cls-1" d="M131.11,577.9a4,4,0,1,0-1.59-5.45A4,4,0,0,0,131.11,577.9Z"/><path class="cls-1" d="M126.36,561.54a4,4,0,1,0-1.59-5.46A4,4,0,0,0,126.36,561.54Z"/><path class="cls-1" d="M110,566.29a4,4,0,1,0-1.58-5.46A4,4,0,0,0,110,566.29Z"/><path class="cls-1" d="M105.24,549.92a4,4,0,1,0-1.58-5.45A4,4,0,0,0,105.24,549.92Z"/><path class="cls-1" d="M88.88,554.67a4,4,0,1,0-1.58-5.45A4,4,0,0,0,88.88,554.67Z"/><path class="cls-1" d="M84.13,538.31a4,4,0,1,0-1.58-5.45A4,4,0,0,0,84.13,538.31Z"/><path class="cls-1" d="M67.77,543.06a4,4,0,1,0-1.59-5.46A4,4,0,0,0,67.77,543.06Z"/><path class="cls-1" d="M63,526.7a4,4,0,1,0-1.59-5.46A4,4,0,0,0,63,526.7Z"/><path class="cls-1" d="M46.65,531.45A4,4,0,1,0,45.07,526,4,4,0,0,0,46.65,531.45Z"/><path class="cls-1" d="M41.9,515.08a4,4,0,1,0-1.58-5.45A4,4,0,0,0,41.9,515.08Z"/><path class="cls-1" d="M25.54,519.83A4,4,0,1,0,24,514.38,4,4,0,0,0,25.54,519.83Z"/><path class="cls-1" d="M20.79,503.47A4,4,0,1,0,19.21,498,4,4,0,0,0,20.79,503.47Z"/><path class="cls-1" d="M4.43,508.22a4,4,0,1,0-1.59-5.46A4,4,0,0,0,4.43,508.22Z"/><path class="cls-1" d="M3.55,484.82A4,4,0,0,0,0,484.67V492a4,4,0,0,0,3.55-7.17Z"/><path class="cls-1" d="M264.65,610.11a4,4,0,1,0-1.58-5.46A4,4,0,0,0,264.65,610.11Z"/><path class="cls-1" d="M248.29,614.86a4,4,0,1,0-1.59-5.46A4,4,0,0,0,248.29,614.86Z"/><path class="cls-1" d="M243.54,598.5A4,4,0,1,0,242,593,4,4,0,0,0,243.54,598.5Z"/><path class="cls-1" d="M227.17,603.24a4,4,0,1,0-1.58-5.45A4,4,0,0,0,227.17,603.24Z"/><path class="cls-1" d="M222.42,586.88a4,4,0,1,0-1.58-5.45A4,4,0,0,0,222.42,586.88Z"/><path class="cls-1" d="M206.06,591.63a4,4,0,1,0-1.58-5.45A4,4,0,0,0,206.06,591.63Z"/><path class="cls-1" d="M201.31,575.27a4,4,0,1,0-1.58-5.46A4,4,0,0,0,201.31,575.27Z"/><path class="cls-1" d="M185,580a4,4,0,1,0-1.59-5.46A4,4,0,0,0,185,580Z"/><path class="cls-1" d="M180.2,563.65a4,4,0,1,0-1.59-5.45A4,4,0,0,0,180.2,563.65Z"/><path class="cls-1" d="M163.83,568.4a4,4,0,1,0-1.58-5.45A4,4,0,0,0,163.83,568.4Z"/><path class="cls-1" d="M159.08,552a4,4,0,1,0-1.58-5.46A4,4,0,0,0,159.08,552Z"/><path class="cls-1" d="M142.72,556.79a4,4,0,1,0-1.58-5.46A4,4,0,0,0,142.72,556.79Z"/><path class="cls-1" d="M138,540.43a4,4,0,1,0-1.58-5.46A4,4,0,0,0,138,540.43Z"/><path class="cls-1" d="M121.61,545.17a4,4,0,1,0-1.59-5.45A4,4,0,0,0,121.61,545.17Z"/><path class="cls-1" d="M116.86,528.81a4,4,0,1,0-1.59-5.45A4,4,0,0,0,116.86,528.81Z"/><path class="cls-1" d="M100.49,533.56a4,4,0,1,0-1.58-5.45A4,4,0,0,0,100.49,533.56Z"/><path class="cls-1" d="M95.74,517.2a4,4,0,1,0-1.58-5.46A4,4,0,0,0,95.74,517.2Z"/><path class="cls-1" d="M79.38,522a4,4,0,1,0-1.58-5.46A4,4,0,0,0,79.38,522Z"/><path class="cls-1" d="M74.63,505.58a4,4,0,1,0-1.58-5.45A4,4,0,0,0,74.63,505.58Z"/><path class="cls-1" d="M58.27,510.33a4,4,0,1,0-1.59-5.45A4,4,0,0,0,58.27,510.33Z"/><path class="cls-1" d="M53.52,494a4,4,0,1,0-1.59-5.45A4,4,0,0,0,53.52,494Z"/><path class="cls-1" d="M37.15,498.72a4,4,0,1,0-1.58-5.46A4,4,0,0,0,37.15,498.72Z"/><path class="cls-1" d="M32.4,482.36a4,4,0,1,0-1.58-5.46A4,4,0,0,0,32.4,482.36Z"/><path class="cls-1" d="M16,487.11a4,4,0,1,0-1.58-5.46A4,4,0,0,0,16,487.11Z"/><path class="cls-1" d="M11.29,470.74a4,4,0,1,0-1.58-5.45A4,4,0,0,0,11.29,470.74Z"/><path class="cls-1" d="M0,469.47v5a3.58,3.58,0,0,0,.38-.55A4,4,0,0,0,0,469.47Z"/><path class="cls-1" d="M279.43,599.9a4,4,0,0,0,1,5.07c1.68-2.06,3.33-4.16,5-6.3a4.3,4.3,0,0,0-.52-.35A4,4,0,0,0,279.43,599.9Z"/><path class="cls-1" d="M276.26,589a4,4,0,1,0-1.58-5.46A4,4,0,0,0,276.26,589Z"/><path class="cls-1" d="M259.9,593.75a4,4,0,1,0-1.58-5.46A4,4,0,0,0,259.9,593.75Z"/><path class="cls-1" d="M255.15,577.38a4,4,0,1,0-1.58-5.45A4,4,0,0,0,255.15,577.38Z"/><path class="cls-1" d="M238.79,582.13a4,4,0,1,0-1.59-5.45A4,4,0,0,0,238.79,582.13Z"/><path class="cls-1" d="M234,565.77a4,4,0,1,0-1.59-5.45A4,4,0,0,0,234,565.77Z"/><path class="cls-1" d="M217.67,570.52a4,4,0,1,0-1.58-5.46A4,4,0,0,0,217.67,570.52Z"/><path class="cls-1" d="M212.92,554.16a4,4,0,1,0-1.58-5.46A4,4,0,0,0,212.92,554.16Z"/><path class="cls-1" d="M196.56,558.9a4,4,0,1,0-1.58-5.45A4,4,0,0,0,196.56,558.9Z"/><path class="cls-1" d="M191.81,542.54a4,4,0,1,0-1.58-5.45A4,4,0,0,0,191.81,542.54Z"/><path class="cls-1" d="M175.45,547.29a4,4,0,1,0-1.59-5.45A4,4,0,0,0,175.45,547.29Z"/><path class="cls-1" d="M170.7,530.93a4,4,0,1,0-1.59-5.46A4,4,0,0,0,170.7,530.93Z"/><path class="cls-1" d="M154.33,535.68a4,4,0,1,0-1.58-5.46A4,4,0,0,0,154.33,535.68Z"/><path class="cls-1" d="M149.58,519.31a4,4,0,1,0-1.58-5.45A4,4,0,0,0,149.58,519.31Z"/><path class="cls-1" d="M133.22,524.06a4,4,0,1,0-1.58-5.45A4,4,0,0,0,133.22,524.06Z"/><path class="cls-1" d="M128.47,507.7a4,4,0,1,0-1.58-5.45A4,4,0,0,0,128.47,507.7Z"/><path class="cls-1" d="M112.11,512.45a4,4,0,1,0-1.59-5.46A4,4,0,0,0,112.11,512.45Z"/><path class="cls-1" d="M107.36,496.09a4,4,0,1,0-1.59-5.46A4,4,0,0,0,107.36,496.09Z"/><path class="cls-1" d="M91,500.83a4,4,0,1,0-1.58-5.45A4,4,0,0,0,91,500.83Z"/><path class="cls-1" d="M86.24,484.47A4,4,0,1,0,84.66,479,4,4,0,0,0,86.24,484.47Z"/><path class="cls-1" d="M69.88,489.22a4,4,0,1,0-1.58-5.45A4,4,0,0,0,69.88,489.22Z"/><path class="cls-1" d="M65.13,472.86a4,4,0,1,0-1.59-5.45A4,4,0,0,0,65.13,472.86Z"/><path class="cls-1" d="M48.76,477.61a4,4,0,1,0-1.58-5.46A4,4,0,0,0,48.76,477.61Z"/><path class="cls-1" d="M44,461.24a4,4,0,1,0-1.58-5.45A4,4,0,0,0,44,461.24Z"/><path class="cls-1" d="M27.65,466a4,4,0,1,0-1.58-5.45A4,4,0,0,0,27.65,466Z"/><path class="cls-1" d="M22.9,449.63a4,4,0,1,0-1.58-5.45A4,4,0,0,0,22.9,449.63Z"/><path class="cls-1" d="M6.54,454.38A4,4,0,1,0,5,448.92,4,4,0,0,0,6.54,454.38Z"/><path class="cls-1" d="M5.66,431A4,4,0,0,0,.2,432.56a4.19,4.19,0,0,0-.2.49V436A4,4,0,0,0,1.79,438a4,4,0,0,0,3.87-7Z"/><path class="cls-1" d="M296.5,577.21a4,4,0,1,0-3.87,7,3.93,3.93,0,0,0,2.91.37c1-1.5,2-3,3-4.52,0,0,0,0,0,0A4.07,4.07,0,0,0,296.5,577.21Z"/><path class="cls-1" d="M287.88,567.89a4,4,0,1,0-1.59-5.46A4,4,0,0,0,287.88,567.89Z"/><path class="cls-1" d="M271.51,572.64a4,4,0,1,0-1.58-5.46A4,4,0,0,0,271.51,572.64Z"/><path class="cls-1" d="M266.76,556.27a4,4,0,1,0-1.58-5.45A4,4,0,0,0,266.76,556.27Z"/><path class="cls-1" d="M250.4,561a4,4,0,1,0-1.58-5.45A4,4,0,0,0,250.4,561Z"/><path class="cls-1" d="M245.65,544.66a4,4,0,1,0-1.58-5.46A4,4,0,0,0,245.65,544.66Z"/><path class="cls-1" d="M229.29,549.41A4,4,0,1,0,227.7,544,4,4,0,0,0,229.29,549.41Z"/><path class="cls-1" d="M224.54,533a4,4,0,1,0-1.59-5.45A4,4,0,0,0,224.54,533Z"/><path class="cls-1" d="M208.17,537.79a4,4,0,1,0-1.58-5.45A4,4,0,0,0,208.17,537.79Z"/><path class="cls-1" d="M203.42,521.43a4,4,0,1,0-1.58-5.45A4,4,0,0,0,203.42,521.43Z"/><path class="cls-1" d="M187.06,526.18a4,4,0,1,0-1.58-5.45A4,4,0,0,0,187.06,526.18Z"/><path class="cls-1" d="M182.31,509.82a4,4,0,1,0-1.59-5.46A4,4,0,0,0,182.31,509.82Z"/><path class="cls-1" d="M166,514.57a4,4,0,1,0-1.59-5.46A4,4,0,0,0,166,514.57Z"/><path class="cls-1" d="M161.2,498.2a4,4,0,1,0-1.59-5.45A4,4,0,0,0,161.2,498.2Z"/><path class="cls-1" d="M144.83,503a4,4,0,1,0-1.58-5.45A4,4,0,0,0,144.83,503Z"/><path class="cls-1" d="M140.08,486.59a4,4,0,1,0-1.58-5.45A4,4,0,0,0,140.08,486.59Z"/><path class="cls-1" d="M123.72,491.34a4,4,0,1,0-1.58-5.46A4,4,0,0,0,123.72,491.34Z"/><path class="cls-1" d="M119,475a4,4,0,1,0-1.58-5.45A4,4,0,0,0,119,475Z"/><path class="cls-1" d="M102.6,479.72a4,4,0,1,0-1.58-5.45A4,4,0,0,0,102.6,479.72Z"/><path class="cls-1" d="M97.86,463.36a4,4,0,1,0-1.59-5.45A4,4,0,0,0,97.86,463.36Z"/><path class="cls-1" d="M81.49,468.11a4,4,0,1,0-1.58-5.45A4,4,0,0,0,81.49,468.11Z"/><path class="cls-1" d="M76.74,451.75a4,4,0,1,0-1.58-5.46A4,4,0,0,0,76.74,451.75Z"/><path class="cls-1" d="M60.38,456.5A4,4,0,1,0,58.79,451,4,4,0,0,0,60.38,456.5Z"/><path class="cls-1" d="M55.63,440.13A4,4,0,1,0,54,434.68,4,4,0,0,0,55.63,440.13Z"/><path class="cls-1" d="M39.26,444.88a4,4,0,1,0-1.58-5.45A4,4,0,0,0,39.26,444.88Z"/><path class="cls-1" d="M34.51,428.52a4,4,0,1,0-1.58-5.45A4,4,0,0,0,34.51,428.52Z"/><path class="cls-1" d="M18.15,433.27a4,4,0,1,0-1.58-5.46A4,4,0,0,0,18.15,433.27Z"/><path class="cls-1" d="M13.4,416.9a4,4,0,1,0-1.58-5.45A4,4,0,0,0,13.4,416.9Z"/><path class="cls-1" d="M.91,414.62a3.89,3.89,0,0,0-.91-.35V422a4,4,0,0,0,2.49-1.94A4,4,0,0,0,.91,414.62Z"/><circle class="cls-1" cx="306.18" cy="559.62" r="4.02"/><path class="cls-1" d="M299.49,546.77a4,4,0,1,0-1.58-5.45A4,4,0,0,0,299.49,546.77Z"/><path class="cls-1" d="M283.13,551.52a4,4,0,1,0-1.59-5.45A4,4,0,0,0,283.13,551.52Z"/><path class="cls-1" d="M278.38,535.16a4,4,0,1,0-1.59-5.45A4,4,0,0,0,278.38,535.16Z"/><path class="cls-1" d="M262,539.91a4,4,0,1,0-1.58-5.46A4,4,0,0,0,262,539.91Z"/><path class="cls-1" d="M257.26,523.55a4,4,0,1,0-1.58-5.46A4,4,0,0,0,257.26,523.55Z"/><path class="cls-1" d="M240.9,528.3a4,4,0,1,0-1.58-5.46A4,4,0,0,0,240.9,528.3Z"/><path class="cls-1" d="M236.15,511.93a4,4,0,1,0-1.58-5.45A4,4,0,0,0,236.15,511.93Z"/><path class="cls-1" d="M219.79,516.68a4,4,0,1,0-1.59-5.45A4,4,0,0,0,219.79,516.68Z"/><path class="cls-1" d="M215,500.32a4,4,0,1,0-1.59-5.46A4,4,0,0,0,215,500.32Z"/><path class="cls-1" d="M198.67,505.07a4,4,0,1,0-1.58-5.46A4,4,0,0,0,198.67,505.07Z"/><path class="cls-1" d="M193.92,488.71a4,4,0,1,0-1.58-5.46A4,4,0,0,0,193.92,488.71Z"/><path class="cls-1" d="M177.56,493.45A4,4,0,1,0,176,488,4,4,0,0,0,177.56,493.45Z"/><path class="cls-1" d="M172.81,477.09a4,4,0,1,0-1.59-5.45A4,4,0,0,0,172.81,477.09Z"/><path class="cls-1" d="M156.44,481.84a4,4,0,1,0-1.58-5.45A4,4,0,0,0,156.44,481.84Z"/><path class="cls-1" d="M151.69,465.48a4,4,0,1,0-1.58-5.46A4,4,0,0,0,151.69,465.48Z"/><path class="cls-1" d="M135.33,470.23a4,4,0,1,0-1.58-5.46A4,4,0,0,0,135.33,470.23Z"/><path class="cls-1" d="M130.58,453.86a4,4,0,1,0-1.58-5.45A4,4,0,0,0,130.58,453.86Z"/><path class="cls-1" d="M114.22,458.61a4,4,0,1,0-1.59-5.45A4,4,0,0,0,114.22,458.61Z"/><path class="cls-1" d="M109.47,442.25a4,4,0,1,0-1.59-5.46A4,4,0,0,0,109.47,442.25Z"/><path class="cls-1" d="M93.1,447a4,4,0,1,0-1.58-5.46A4,4,0,0,0,93.1,447Z"/><path class="cls-1" d="M88.35,430.64a4,4,0,1,0-1.58-5.46A4,4,0,0,0,88.35,430.64Z"/><path class="cls-1" d="M72,435.38a4,4,0,1,0-1.58-5.45A4,4,0,0,0,72,435.38Z"/><path class="cls-1" d="M67.24,419a4,4,0,1,0-1.58-5.45A4,4,0,0,0,67.24,419Z"/><path class="cls-1" d="M50.88,423.77a4,4,0,1,0-1.59-5.45A4,4,0,0,0,50.88,423.77Z"/><path class="cls-1" d="M46.13,407.41A4,4,0,1,0,44.54,402,4,4,0,0,0,46.13,407.41Z"/><path class="cls-1" d="M29.76,412.16a4,4,0,1,0-1.58-5.46A4,4,0,0,0,29.76,412.16Z"/><path class="cls-1" d="M25,395.79a4,4,0,1,0-1.58-5.45A4,4,0,0,0,25,395.79Z"/><circle class="cls-1" cx="10.59" cy="397.02" r="4.02"/><path class="cls-1" d="M3.9,384.18a4,4,0,1,0-1.58-5.45A4,4,0,0,0,3.9,384.18Z"/><path class="cls-1" d="M315.85,542a4.06,4.06,0,0,0,3.77.05s0,0,0,0c.69-1.49,1.39-3,2.06-4.52a4,4,0,0,0-2-2.56,4,4,0,0,0-3.87,7Z"/><path class="cls-1" d="M311.1,525.66a4,4,0,1,0-1.58-5.45A4,4,0,0,0,311.1,525.66Z"/><path class="cls-1" d="M294.74,530.41a4,4,0,1,0-1.58-5.45A4,4,0,0,0,294.74,530.41Z"/><path class="cls-1" d="M290,514.05a4,4,0,1,0-1.58-5.45A4,4,0,0,0,290,514.05Z"/><path class="cls-1" d="M273.63,518.8a4,4,0,1,0-1.59-5.46A4,4,0,0,0,273.63,518.8Z"/><path class="cls-1" d="M268.87,502.43a4,4,0,1,0-1.58-5.45A4,4,0,0,0,268.87,502.43Z"/><path class="cls-1" d="M252.51,507.18a4,4,0,1,0-1.58-5.45A4,4,0,0,0,252.51,507.18Z"/><path class="cls-1" d="M247.76,490.82a4,4,0,1,0-1.58-5.45A4,4,0,0,0,247.76,490.82Z"/><path class="cls-1" d="M231.4,495.57a4,4,0,1,0-1.58-5.45A4,4,0,0,0,231.4,495.57Z"/><path class="cls-1" d="M226.65,479.21a4,4,0,1,0-1.59-5.46A4,4,0,0,0,226.65,479.21Z"/><path class="cls-1" d="M210.28,484a4,4,0,1,0-1.58-5.46A4,4,0,0,0,210.28,484Z"/><path class="cls-1" d="M205.53,467.59a4,4,0,1,0-1.58-5.45A4,4,0,0,0,205.53,467.59Z"/><path class="cls-1" d="M189.17,472.34a4,4,0,1,0-1.58-5.45A4,4,0,0,0,189.17,472.34Z"/><path class="cls-1" d="M184.42,456a4,4,0,1,0-1.58-5.45A4,4,0,0,0,184.42,456Z"/><path class="cls-1" d="M168.06,460.73a4,4,0,1,0-1.59-5.46A4,4,0,0,0,168.06,460.73Z"/><path class="cls-1" d="M163.31,444.37a4,4,0,1,0-1.59-5.46A4,4,0,0,0,163.31,444.37Z"/><path class="cls-1" d="M146.94,449.11a4,4,0,1,0-1.58-5.45A4,4,0,0,0,146.94,449.11Z"/><path class="cls-1" d="M142.19,432.75a4,4,0,1,0-1.58-5.45A4,4,0,0,0,142.19,432.75Z"/><path class="cls-1" d="M125.83,437.5a4,4,0,1,0-1.58-5.45A4,4,0,0,0,125.83,437.5Z"/><path class="cls-1" d="M121.08,421.14a4,4,0,1,0-1.58-5.46A4,4,0,0,0,121.08,421.14Z"/><path class="cls-1" d="M104.72,425.89a4,4,0,1,0-1.59-5.46A4,4,0,0,0,104.72,425.89Z"/><path class="cls-1" d="M100,409.52a4,4,0,1,0-1.59-5.45A4,4,0,0,0,100,409.52Z"/><path class="cls-1" d="M83.6,414.27A4,4,0,1,0,82,408.82,4,4,0,0,0,83.6,414.27Z"/><path class="cls-1" d="M78.85,397.91a4,4,0,1,0-1.58-5.45A4,4,0,0,0,78.85,397.91Z"/><path class="cls-1" d="M62.49,402.66a4,4,0,1,0-1.58-5.46A4,4,0,0,0,62.49,402.66Z"/><path class="cls-1" d="M57.74,386.3a4,4,0,1,0-1.58-5.46A4,4,0,0,0,57.74,386.3Z"/><path class="cls-1" d="M41.38,391.05a4,4,0,1,0-1.59-5.46A4,4,0,0,0,41.38,391.05Z"/><path class="cls-1" d="M36.63,374.68A4,4,0,1,0,35,369.23,4,4,0,0,0,36.63,374.68Z"/><path class="cls-1" d="M20.26,379.43A4,4,0,1,0,18.68,374,4,4,0,0,0,20.26,379.43Z"/><path class="cls-1" d="M15.51,363.07a4,4,0,1,0-1.58-5.46A4,4,0,0,0,15.51,363.07Z"/><path class="cls-1" d="M3,360.78a4,4,0,0,0-3-.34v7.72a4,4,0,0,0,3-7.38Z"/><path class="cls-1" d="M0,346.34v3.19A4,4,0,0,0,0,346.34Z"/><path class="cls-1" d="M327.46,520.92a4.55,4.55,0,0,0,1,.39q1.42-3.7,2.79-7.47a4,4,0,0,0-3.81,7.08Z"/><path class="cls-1" d="M322.71,504.55a4,4,0,1,0-1.58-5.45A4,4,0,0,0,322.71,504.55Z"/><path class="cls-1" d="M306.35,509.3a4,4,0,1,0-1.58-5.45A4,4,0,0,0,306.35,509.3Z"/><path class="cls-1" d="M301.6,492.94a4,4,0,1,0-1.58-5.46A4,4,0,0,0,301.6,492.94Z"/><path class="cls-1" d="M285.24,497.69a4,4,0,1,0-1.59-5.46A4,4,0,0,0,285.24,497.69Z"/><path class="cls-1" d="M280.49,481.32a4,4,0,1,0-1.59-5.45A4,4,0,0,0,280.49,481.32Z"/><path class="cls-1" d="M264.12,486.07a4,4,0,1,0-1.58-5.45A4,4,0,0,0,264.12,486.07Z"/><path class="cls-1" d="M259.37,469.71a4,4,0,1,0-1.58-5.45A4,4,0,0,0,259.37,469.71Z"/><path class="cls-1" d="M243,474.46a4,4,0,1,0-1.58-5.45A4,4,0,0,0,243,474.46Z"/><path class="cls-1" d="M238.26,458.1a4,4,0,1,0-1.58-5.46A4,4,0,0,0,238.26,458.1Z"/><path class="cls-1" d="M221.9,462.85a4,4,0,1,0-1.59-5.46A4,4,0,0,0,221.9,462.85Z"/><path class="cls-1" d="M217.15,446.48a4,4,0,1,0-1.59-5.45A4,4,0,0,0,217.15,446.48Z"/><path class="cls-1" d="M200.78,451.23a4,4,0,1,0-1.58-5.45A4,4,0,0,0,200.78,451.23Z"/><path class="cls-1" d="M196,434.87a4,4,0,1,0-1.58-5.46A4,4,0,0,0,196,434.87Z"/><path class="cls-1" d="M179.67,439.62a4,4,0,1,0-1.58-5.46A4,4,0,0,0,179.67,439.62Z"/><path class="cls-1" d="M174.92,423.26a4,4,0,1,0-1.58-5.46A4,4,0,0,0,174.92,423.26Z"/><path class="cls-1" d="M158.56,428a4,4,0,1,0-1.59-5.45A4,4,0,0,0,158.56,428Z"/><path class="cls-1" d="M153.81,411.64a4,4,0,1,0-1.59-5.45A4,4,0,0,0,153.81,411.64Z"/><path class="cls-1" d="M137.44,416.39a4,4,0,1,0-1.58-5.45A4,4,0,0,0,137.44,416.39Z"/><path class="cls-1" d="M132.69,400a4,4,0,1,0-1.58-5.46A4,4,0,0,0,132.69,400Z"/><path class="cls-1" d="M116.33,404.78a4,4,0,1,0-1.58-5.46A4,4,0,0,0,116.33,404.78Z"/><path class="cls-1" d="M111.58,388.41A4,4,0,1,0,110,383,4,4,0,0,0,111.58,388.41Z"/><path class="cls-1" d="M95.21,393.16a4,4,0,1,0-1.58-5.45A4,4,0,0,0,95.21,393.16Z"/><path class="cls-1" d="M90.46,376.8a4,4,0,1,0-1.58-5.46A4,4,0,0,0,90.46,376.8Z"/><path class="cls-1" d="M74.1,381.55a4,4,0,1,0-1.58-5.46A4,4,0,0,0,74.1,381.55Z"/><path class="cls-1" d="M69.35,365.19a4,4,0,1,0-1.58-5.46A4,4,0,0,0,69.35,365.19Z"/><path class="cls-1" d="M53,369.94a4,4,0,1,0-1.58-5.46A4,4,0,0,0,53,369.94Z"/><path class="cls-1" d="M48.24,353.57a4,4,0,1,0-1.58-5.45A4,4,0,0,0,48.24,353.57Z"/><circle class="cls-1" cx="33.81" cy="354.8" r="4.02"/><path class="cls-1" d="M27.13,342a4,4,0,1,0-1.59-5.46A4,4,0,0,0,27.13,342Z"/><path class="cls-1" d="M10.76,346.71a4,4,0,1,0-1.58-5.46A4,4,0,0,0,10.76,346.71Z"/><path class="cls-1" d="M6,330.34a4,4,0,1,0-1.58-5.45A4,4,0,0,0,6,330.34Z"/><path class="cls-1" d="M334.33,483.44a4,4,0,1,0-1.59-5.45A4,4,0,0,0,334.33,483.44Z"/><path class="cls-1" d="M318,488.19a4,4,0,1,0-1.59-5.45A4,4,0,0,0,318,488.19Z"/><path class="cls-1" d="M313.21,471.83a4,4,0,1,0-1.58-5.46A4,4,0,0,0,313.21,471.83Z"/><path class="cls-1" d="M296.85,476.57a4,4,0,1,0-1.58-5.45A4,4,0,0,0,296.85,476.57Z"/><path class="cls-1" d="M292.1,460.21a4,4,0,1,0-1.58-5.45A4,4,0,0,0,292.1,460.21Z"/><path class="cls-1" d="M275.74,465a4,4,0,1,0-1.59-5.45A4,4,0,0,0,275.74,465Z"/><path class="cls-1" d="M271,448.6a4,4,0,1,0-1.59-5.46A4,4,0,0,0,271,448.6Z"/><path class="cls-1" d="M254.62,453.35a4,4,0,1,0-1.58-5.46A4,4,0,0,0,254.62,453.35Z"/><path class="cls-1" d="M249.87,437a4,4,0,1,0-1.58-5.45A4,4,0,0,0,249.87,437Z"/><path class="cls-1" d="M233.51,441.73a4,4,0,1,0-1.58-5.45A4,4,0,0,0,233.51,441.73Z"/><path class="cls-1" d="M228.76,425.37a4,4,0,1,0-1.58-5.45A4,4,0,0,0,228.76,425.37Z"/><path class="cls-1" d="M212.4,430.12a4,4,0,1,0-1.59-5.45A4,4,0,0,0,212.4,430.12Z"/><path class="cls-1" d="M207.65,413.76a4,4,0,1,0-1.59-5.46A4,4,0,0,0,207.65,413.76Z"/><path class="cls-1" d="M191.28,418.51a4,4,0,1,0-1.58-5.46A4,4,0,0,0,191.28,418.51Z"/><path class="cls-1" d="M186.53,402.14a4,4,0,1,0-1.58-5.45A4,4,0,0,0,186.53,402.14Z"/><path class="cls-1" d="M170.17,406.89a4,4,0,1,0-1.58-5.45A4,4,0,0,0,170.17,406.89Z"/><path class="cls-1" d="M165.42,390.53a4,4,0,1,0-1.58-5.46A4,4,0,0,0,165.42,390.53Z"/><path class="cls-1" d="M149.06,395.28a4,4,0,1,0-1.59-5.46A4,4,0,0,0,149.06,395.28Z"/><path class="cls-1" d="M144.31,378.92a4,4,0,1,0-1.59-5.46A4,4,0,0,0,144.31,378.92Z"/><path class="cls-1" d="M127.94,383.66a4,4,0,1,0-1.58-5.45A4,4,0,0,0,127.94,383.66Z"/><path class="cls-1" d="M123.19,367.3a4,4,0,1,0-1.58-5.45A4,4,0,0,0,123.19,367.3Z"/><path class="cls-1" d="M106.83,372.05a4,4,0,1,0-1.58-5.45A4,4,0,0,0,106.83,372.05Z"/><path class="cls-1" d="M102.08,355.69a4,4,0,1,0-1.58-5.46A4,4,0,0,0,102.08,355.69Z"/><path class="cls-1" d="M85.72,360.44A4,4,0,1,0,84.13,355,4,4,0,0,0,85.72,360.44Z"/><path class="cls-1" d="M81,344.07a4,4,0,1,0-1.59-5.45A4,4,0,0,0,81,344.07Z"/><path class="cls-1" d="M64.6,348.82A4,4,0,1,0,63,343.37,4,4,0,0,0,64.6,348.82Z"/><path class="cls-1" d="M59.85,332.46A4,4,0,1,0,58.27,327,4,4,0,0,0,59.85,332.46Z"/><path class="cls-1" d="M43.49,337.21a4,4,0,1,0-1.59-5.46A4,4,0,0,0,43.49,337.21Z"/><path class="cls-1" d="M38.74,320.85a4,4,0,1,0-1.58-5.46A4,4,0,0,0,38.74,320.85Z"/><path class="cls-1" d="M22.38,325.59a4,4,0,1,0-1.59-5.45A4,4,0,0,0,22.38,325.59Z"/><path class="cls-1" d="M17.62,309.23A4,4,0,1,0,16,303.78,4,4,0,0,0,17.62,309.23Z"/><path class="cls-1" d="M5.13,306.94A4,4,0,0,0,0,308.06v4.82A4,4,0,0,0,1.26,314a4,4,0,1,0,3.87-7Z"/><path class="cls-1" d="M.38,290.58a2.54,2.54,0,0,0-.38-.16v7.36A3.93,3.93,0,0,0,2,296,4,4,0,0,0,.38,290.58Z"/><path class="cls-1" d="M345.75,462.21c.49-2.43,1-4.88,1.44-7.35a4,4,0,0,0-2.83,2A4,4,0,0,0,345.75,462.21Z"/><path class="cls-1" d="M329.58,467.08a4,4,0,1,0-1.59-5.46A4,4,0,0,0,329.58,467.08Z"/><path class="cls-1" d="M324.83,450.71a4,4,0,1,0-1.59-5.45A4,4,0,0,0,324.83,450.71Z"/><path class="cls-1" d="M308.46,455.46a4,4,0,1,0-1.58-5.45A4,4,0,0,0,308.46,455.46Z"/><path class="cls-1" d="M303.71,439.1a4,4,0,1,0-1.58-5.45A4,4,0,0,0,303.71,439.1Z"/><path class="cls-1" d="M287.35,443.85a4,4,0,1,0-1.58-5.46A4,4,0,0,0,287.35,443.85Z"/><path class="cls-1" d="M282.6,427.49A4,4,0,1,0,281,422,4,4,0,0,0,282.6,427.49Z"/><path class="cls-1" d="M266.24,432.24a4,4,0,1,0-1.59-5.46A4,4,0,0,0,266.24,432.24Z"/><path class="cls-1" d="M261.49,415.87a4,4,0,1,0-1.59-5.45A4,4,0,0,0,261.49,415.87Z"/><path class="cls-1" d="M245.12,420.62a4,4,0,1,0-1.58-5.45A4,4,0,0,0,245.12,420.62Z"/><path class="cls-1" d="M240.37,404.26a4,4,0,1,0-1.58-5.45A4,4,0,0,0,240.37,404.26Z"/><path class="cls-1" d="M224,409a4,4,0,1,0-1.58-5.46A4,4,0,0,0,224,409Z"/><path class="cls-1" d="M219.26,392.64a4,4,0,1,0-1.59-5.45A4,4,0,0,0,219.26,392.64Z"/><path class="cls-1" d="M202.9,397.39a4,4,0,1,0-1.59-5.45A4,4,0,0,0,202.9,397.39Z"/><path class="cls-1" d="M198.15,381a4,4,0,1,0-1.59-5.45A4,4,0,0,0,198.15,381Z"/><path class="cls-1" d="M181.78,385.78a4,4,0,1,0-1.58-5.45A4,4,0,0,0,181.78,385.78Z"/><path class="cls-1" d="M177,369.42a4,4,0,1,0-1.58-5.46A4,4,0,0,0,177,369.42Z"/><path class="cls-1" d="M160.67,374.17a4,4,0,1,0-1.59-5.46A4,4,0,0,0,160.67,374.17Z"/><path class="cls-1" d="M155.92,357.8a4,4,0,1,0-1.59-5.45A4,4,0,0,0,155.92,357.8Z"/><path class="cls-1" d="M139.56,362.55A4,4,0,1,0,138,357.1,4,4,0,0,0,139.56,362.55Z"/><path class="cls-1" d="M134.8,346.19a4,4,0,1,0-1.58-5.45A4,4,0,0,0,134.8,346.19Z"/><path class="cls-1" d="M118.44,350.94a4,4,0,1,0-1.58-5.46A4,4,0,0,0,118.44,350.94Z"/><path class="cls-1" d="M113.69,334.58a4,4,0,1,0-1.58-5.46A4,4,0,0,0,113.69,334.58Z"/><path class="cls-1" d="M97.33,339.32a4,4,0,1,0-1.58-5.45A4,4,0,0,0,97.33,339.32Z"/><path class="cls-1" d="M92.58,323A4,4,0,1,0,91,317.51,4,4,0,0,0,92.58,323Z"/><path class="cls-1" d="M76.22,327.71a4,4,0,1,0-1.59-5.45A4,4,0,0,0,76.22,327.71Z"/><path class="cls-1" d="M71.46,311.35a4,4,0,1,0-1.58-5.45A4,4,0,0,0,71.46,311.35Z"/><path class="cls-1" d="M55.1,316.1a4,4,0,1,0-1.58-5.46A4,4,0,0,0,55.1,316.1Z"/><path class="cls-1" d="M50.35,299.73a4,4,0,1,0-1.58-5.45A4,4,0,0,0,50.35,299.73Z"/><path class="cls-1" d="M34,304.48A4,4,0,1,0,32.4,299,4,4,0,0,0,34,304.48Z"/><path class="cls-1" d="M29.24,288.12a4,4,0,1,0-1.59-5.45A4,4,0,0,0,29.24,288.12Z"/><path class="cls-1" d="M12.87,292.87a4,4,0,1,0-1.58-5.46A4,4,0,0,0,12.87,292.87Z"/><path class="cls-1" d="M8.12,276.51a4,4,0,1,0-1.58-5.46A4,4,0,0,0,8.12,276.51Z"/><path class="cls-1" d="M341.19,446a4,4,0,1,0-1.58-5.46A4,4,0,0,0,341.19,446Z"/><path class="cls-1" d="M336.44,429.6a4,4,0,1,0-1.58-5.45A4,4,0,0,0,336.44,429.6Z"/><path class="cls-1" d="M320.08,434.35a4,4,0,1,0-1.59-5.45A4,4,0,0,0,320.08,434.35Z"/><path class="cls-1" d="M315.33,418a4,4,0,1,0-1.59-5.46A4,4,0,0,0,315.33,418Z"/><path class="cls-1" d="M299,422.74a4,4,0,1,0-1.58-5.46A4,4,0,0,0,299,422.74Z"/><path class="cls-1" d="M294.21,406.38a4,4,0,1,0-1.58-5.46A4,4,0,0,0,294.21,406.38Z"/><path class="cls-1" d="M277.85,411.12a4,4,0,1,0-1.58-5.45A4,4,0,0,0,277.85,411.12Z"/><path class="cls-1" d="M273.1,394.76a4,4,0,1,0-1.58-5.45A4,4,0,0,0,273.1,394.76Z"/><path class="cls-1" d="M256.74,399.51a4,4,0,1,0-1.59-5.45A4,4,0,0,0,256.74,399.51Z"/><path class="cls-1" d="M252,383.15a4,4,0,1,0-1.59-5.46A4,4,0,0,0,252,383.15Z"/><path class="cls-1" d="M235.62,387.9a4,4,0,1,0-1.58-5.46A4,4,0,0,0,235.62,387.9Z"/><path class="cls-1" d="M230.87,371.53a4,4,0,1,0-1.58-5.45A4,4,0,0,0,230.87,371.53Z"/><path class="cls-1" d="M214.51,376.28a4,4,0,1,0-1.59-5.45A4,4,0,0,0,214.51,376.28Z"/><path class="cls-1" d="M209.76,359.92a4,4,0,1,0-1.58-5.45A4,4,0,0,0,209.76,359.92Z"/><path class="cls-1" d="M193.4,364.67a4,4,0,1,0-1.59-5.46A4,4,0,0,0,193.4,364.67Z"/><path class="cls-1" d="M188.64,348.31a4,4,0,1,0-1.58-5.46A4,4,0,0,0,188.64,348.31Z"/><path class="cls-1" d="M172.28,353.05a4,4,0,1,0-1.58-5.45A4,4,0,0,0,172.28,353.05Z"/><path class="cls-1" d="M167.53,336.69a4,4,0,1,0-1.58-5.45A4,4,0,0,0,167.53,336.69Z"/><path class="cls-1" d="M151.17,341.44a4,4,0,1,0-1.59-5.45A4,4,0,0,0,151.17,341.44Z"/><path class="cls-1" d="M146.42,325.08a4,4,0,1,0-1.59-5.46A4,4,0,0,0,146.42,325.08Z"/><path class="cls-1" d="M130.05,329.83a4,4,0,1,0-1.58-5.46A4,4,0,0,0,130.05,329.83Z"/><path class="cls-1" d="M125.3,313.46a4,4,0,1,0-1.58-5.45A4,4,0,0,0,125.3,313.46Z"/><path class="cls-1" d="M108.94,318.21a4,4,0,1,0-1.58-5.45A4,4,0,0,0,108.94,318.21Z"/><path class="cls-1" d="M104.19,301.85a4,4,0,1,0-1.58-5.45A4,4,0,0,0,104.19,301.85Z"/><path class="cls-1" d="M87.83,306.6a4,4,0,1,0-1.59-5.45A4,4,0,0,0,87.83,306.6Z"/><path class="cls-1" d="M83.08,290.24a4,4,0,1,0-1.59-5.46A4,4,0,0,0,83.08,290.24Z"/><path class="cls-1" d="M66.71,295a4,4,0,1,0-1.58-5.45A4,4,0,0,0,66.71,295Z"/><path class="cls-1" d="M62,278.62a4,4,0,1,0-1.58-5.45A4,4,0,0,0,62,278.62Z"/><path class="cls-1" d="M45.6,283.37A4,4,0,1,0,44,277.92,4,4,0,0,0,45.6,283.37Z"/><path class="cls-1" d="M40.85,267a4,4,0,1,0-1.58-5.46A4,4,0,0,0,40.85,267Z"/><path class="cls-1" d="M24.49,271.76a4,4,0,1,0-1.59-5.46A4,4,0,0,0,24.49,271.76Z"/><path class="cls-1" d="M19.74,255.4a4,4,0,1,0-1.59-5.46A4,4,0,0,0,19.74,255.4Z"/><path class="cls-1" d="M3.37,260.14a4,4,0,1,0-1.58-5.45A4,4,0,0,0,3.37,260.14Z"/><path class="cls-1" d="M2.49,236.75A3.93,3.93,0,0,0,0,236.3v7.93a4,4,0,0,0,4.08-2A4,4,0,0,0,2.49,236.75Z"/><path class="cls-1" d="M348.05,408.49a4,4,0,1,0-1.58-5.45A4,4,0,0,0,348.05,408.49Z"/><path class="cls-1" d="M331.69,413.24a4,4,0,1,0-1.59-5.45A4,4,0,0,0,331.69,413.24Z"/><path class="cls-1" d="M326.94,396.88a4,4,0,1,0-1.58-5.46A4,4,0,0,0,326.94,396.88Z"/><path class="cls-1" d="M310.57,401.63a4,4,0,1,0-1.58-5.46A4,4,0,0,0,310.57,401.63Z"/><path class="cls-1" d="M305.83,385.26a4,4,0,1,0-1.59-5.45A4,4,0,0,0,305.83,385.26Z"/><path class="cls-1" d="M289.46,390a4,4,0,1,0-1.58-5.45A4,4,0,0,0,289.46,390Z"/><path class="cls-1" d="M284.71,373.65a4,4,0,1,0-1.58-5.45A4,4,0,0,0,284.71,373.65Z"/><path class="cls-1" d="M268.35,378.4a4,4,0,1,0-1.59-5.45A4,4,0,0,0,268.35,378.4Z"/><path class="cls-1" d="M263.6,362a4,4,0,1,0-1.59-5.46A4,4,0,0,0,263.6,362Z"/><path class="cls-1" d="M247.23,366.79a4,4,0,1,0-1.58-5.46A4,4,0,0,0,247.23,366.79Z"/><circle class="cls-1" cx="244.42" cy="346.9" r="4.02" transform="translate(-177.34 393.87) rotate(-61.19)"/><path class="cls-1" d="M226.12,355.17a4,4,0,1,0-1.58-5.45A4,4,0,0,0,226.12,355.17Z"/><circle class="cls-1" cx="223.31" cy="335.29" r="4.02"/><path class="cls-1" d="M205,343.56a4,4,0,1,0-1.59-5.46A4,4,0,0,0,205,343.56Z"/><path class="cls-1" d="M200.26,327.19a4,4,0,1,0-1.59-5.45A4,4,0,0,0,200.26,327.19Z"/><path class="cls-1" d="M183.89,331.94a4,4,0,1,0-1.58-5.45A4,4,0,0,0,183.89,331.94Z"/><path class="cls-1" d="M179.14,315.58a4,4,0,1,0-1.58-5.45A4,4,0,0,0,179.14,315.58Z"/><path class="cls-1" d="M162.78,320.33a4,4,0,1,0-1.58-5.45A4,4,0,0,0,162.78,320.33Z"/><path class="cls-1" d="M158,304a4,4,0,1,0-1.58-5.46A4,4,0,0,0,158,304Z"/><path class="cls-1" d="M141.67,308.72a4,4,0,1,0-1.59-5.46A4,4,0,0,0,141.67,308.72Z"/><path class="cls-1" d="M136.92,292.35a4,4,0,1,0-1.59-5.45A4,4,0,0,0,136.92,292.35Z"/><path class="cls-1" d="M120.55,297.1a4,4,0,1,0-1.58-5.45A4,4,0,0,0,120.55,297.1Z"/><path class="cls-1" d="M115.8,280.74a4,4,0,1,0-1.58-5.46A4,4,0,0,0,115.8,280.74Z"/><path class="cls-1" d="M99.44,285.49A4,4,0,1,0,97.86,280,4,4,0,0,0,99.44,285.49Z"/><path class="cls-1" d="M94.69,269.12a4,4,0,1,0-1.58-5.45A4,4,0,0,0,94.69,269.12Z"/><path class="cls-1" d="M78.33,273.88a4,4,0,1,0-1.59-5.46A4,4,0,0,0,78.33,273.88Z"/><path class="cls-1" d="M73.58,257.51A4,4,0,1,0,72,252.06,4,4,0,0,0,73.58,257.51Z"/><path class="cls-1" d="M57.21,262.26a4,4,0,1,0-1.58-5.45A4,4,0,0,0,57.21,262.26Z"/><path class="cls-1" d="M52.46,245.9a4,4,0,1,0-1.58-5.46A4,4,0,0,0,52.46,245.9Z"/><path class="cls-1" d="M36.1,250.65a4,4,0,1,0-1.59-5.46A4,4,0,0,0,36.1,250.65Z"/><circle class="cls-1" cx="33.29" cy="230.76" r="4.02" transform="translate(-184.95 148.71) rotate(-61.19)"/><path class="cls-1" d="M15,239a4,4,0,1,0-1.59-5.45A4,4,0,0,0,15,239Z"/><path class="cls-1" d="M10.24,222.67a4,4,0,1,0-1.59-5.45A4,4,0,0,0,10.24,222.67Z"/><path class="cls-1" d="M343.3,392.13a4,4,0,1,0-1.58-5.46A4,4,0,0,0,343.3,392.13Z"/><path class="cls-1" d="M338.55,375.77a4,4,0,1,0-1.58-5.46A4,4,0,0,0,338.55,375.77Z"/><path class="cls-1" d="M322.19,380.51a4,4,0,1,0-1.59-5.45A4,4,0,0,0,322.19,380.51Z"/><path class="cls-1" d="M317.44,364.15a4,4,0,1,0-1.58-5.45A4,4,0,0,0,317.44,364.15Z"/><path class="cls-1" d="M301.08,368.9a4,4,0,1,0-1.59-5.45A4,4,0,0,0,301.08,368.9Z"/><path class="cls-1" d="M296.32,352.54a4,4,0,1,0-1.58-5.46A4,4,0,0,0,296.32,352.54Z"/><path class="cls-1" d="M280,357.29a4,4,0,1,0-1.58-5.46A4,4,0,0,0,280,357.29Z"/><path class="cls-1" d="M275.21,340.93a4,4,0,1,0-1.58-5.46A4,4,0,0,0,275.21,340.93Z"/><path class="cls-1" d="M258.85,345.67a4,4,0,1,0-1.59-5.45A4,4,0,0,0,258.85,345.67Z"/><path class="cls-1" d="M254.1,329.31a4,4,0,1,0-1.59-5.46A4,4,0,0,0,254.1,329.31Z"/><path class="cls-1" d="M237.73,334.06a4,4,0,1,0-1.58-5.45A4,4,0,0,0,237.73,334.06Z"/><path class="cls-1" d="M233,317.7a4,4,0,1,0-1.58-5.46A4,4,0,0,0,233,317.7Z"/><path class="cls-1" d="M216.62,322.45A4,4,0,1,0,215,317,4,4,0,0,0,216.62,322.45Z"/><path class="cls-1" d="M211.87,306.08a4,4,0,1,0-1.58-5.45A4,4,0,0,0,211.87,306.08Z"/><path class="cls-1" d="M195.51,310.83a4,4,0,1,0-1.59-5.45A4,4,0,0,0,195.51,310.83Z"/><path class="cls-1" d="M190.76,294.47a4,4,0,1,0-1.59-5.46A4,4,0,0,0,190.76,294.47Z"/><path class="cls-1" d="M174.39,299.22a4,4,0,1,0-1.58-5.46A4,4,0,0,0,174.39,299.22Z"/><path class="cls-1" d="M169.64,282.86a4,4,0,1,0-1.58-5.46A4,4,0,0,0,169.64,282.86Z"/><path class="cls-1" d="M153.28,287.6a4,4,0,1,0-1.58-5.45A4,4,0,0,0,153.28,287.6Z"/><path class="cls-1" d="M148.53,271.24a4,4,0,1,0-1.58-5.45A4,4,0,0,0,148.53,271.24Z"/><path class="cls-1" d="M132.17,276a4,4,0,1,0-1.59-5.45A4,4,0,0,0,132.17,276Z"/><path class="cls-1" d="M127.42,259.63a4,4,0,1,0-1.59-5.46A4,4,0,0,0,127.42,259.63Z"/><path class="cls-1" d="M111.05,264.38a4,4,0,1,0-1.58-5.46A4,4,0,0,0,111.05,264.38Z"/><path class="cls-1" d="M106.3,248a4,4,0,1,0-1.58-5.45A4,4,0,0,0,106.3,248Z"/><path class="cls-1" d="M89.94,252.76a4,4,0,1,0-1.58-5.45A4,4,0,0,0,89.94,252.76Z"/><path class="cls-1" d="M85.19,236.4a4,4,0,1,0-1.58-5.46A4,4,0,0,0,85.19,236.4Z"/><path class="cls-1" d="M68.83,241.15a4,4,0,1,0-1.59-5.46A4,4,0,0,0,68.83,241.15Z"/><path class="cls-1" d="M64.07,224.79a4,4,0,1,0-1.58-5.46A4,4,0,0,0,64.07,224.79Z"/><path class="cls-1" d="M47.71,229.53a4,4,0,1,0-1.58-5.45A4,4,0,0,0,47.71,229.53Z"/><path class="cls-1" d="M43,213.17a4,4,0,1,0-1.58-5.45A4,4,0,0,0,43,213.17Z"/><path class="cls-1" d="M26.6,217.92A4,4,0,1,0,25,212.47,4,4,0,0,0,26.6,217.92Z"/><path class="cls-1" d="M21.85,201.56a4,4,0,1,0-1.58-5.46A4,4,0,0,0,21.85,201.56Z"/><path class="cls-1" d="M5.49,206.31a4,4,0,1,0-1.59-5.46A4,4,0,0,0,5.49,206.31Z"/><path class="cls-1" d="M4.61,182.91a4,4,0,0,0-4.61.54v6a3.85,3.85,0,0,0,.73.52,4,4,0,1,0,3.88-7Z"/><path class="cls-1" d="M333.8,359.4a4,4,0,1,0-1.58-5.45A4,4,0,0,0,333.8,359.4Z"/><path class="cls-1" d="M329.05,343a4,4,0,1,0-1.58-5.45A4,4,0,0,0,329.05,343Z"/><path class="cls-1" d="M312.69,347.79a4,4,0,1,0-1.59-5.45A4,4,0,0,0,312.69,347.79Z"/><path class="cls-1" d="M307.94,331.43a4,4,0,1,0-1.59-5.46A4,4,0,0,0,307.94,331.43Z"/><path class="cls-1" d="M291.57,336.18a4,4,0,1,0-1.58-5.46A4,4,0,0,0,291.57,336.18Z"/><path class="cls-1" d="M286.82,319.81a4,4,0,1,0-1.58-5.45A4,4,0,0,0,286.82,319.81Z"/><path class="cls-1" d="M270.46,324.56a4,4,0,1,0-1.58-5.45A4,4,0,0,0,270.46,324.56Z"/><path class="cls-1" d="M265.71,308.2a4,4,0,1,0-1.58-5.45A4,4,0,0,0,265.71,308.2Z"/><path class="cls-1" d="M249.35,313a4,4,0,1,0-1.59-5.46A4,4,0,0,0,249.35,313Z"/><path class="cls-1" d="M244.6,296.59a4,4,0,1,0-1.59-5.46A4,4,0,0,0,244.6,296.59Z"/><path class="cls-1" d="M228.23,301.34a4,4,0,1,0-1.58-5.46A4,4,0,0,0,228.23,301.34Z"/><path class="cls-1" d="M223.48,285a4,4,0,1,0-1.58-5.45A4,4,0,0,0,223.48,285Z"/><path class="cls-1" d="M207.12,289.72a4,4,0,1,0-1.58-5.45A4,4,0,0,0,207.12,289.72Z"/><path class="cls-1" d="M202.37,273.36a4,4,0,1,0-1.58-5.46A4,4,0,0,0,202.37,273.36Z"/><path class="cls-1" d="M186,278.11a4,4,0,1,0-1.59-5.46A4,4,0,0,0,186,278.11Z"/><path class="cls-1" d="M181.26,261.74a4,4,0,1,0-1.59-5.45A4,4,0,0,0,181.26,261.74Z"/><path class="cls-1" d="M164.89,266.49a4,4,0,1,0-1.58-5.45A4,4,0,0,0,164.89,266.49Z"/><path class="cls-1" d="M160.14,250.13a4,4,0,1,0-1.58-5.45A4,4,0,0,0,160.14,250.13Z"/><path class="cls-1" d="M143.78,254.88a4,4,0,1,0-1.58-5.46A4,4,0,0,0,143.78,254.88Z"/><path class="cls-1" d="M139,238.52a4,4,0,1,0-1.58-5.46A4,4,0,0,0,139,238.52Z"/><path class="cls-1" d="M122.67,243.27a4,4,0,1,0-1.59-5.46A4,4,0,0,0,122.67,243.27Z"/><path class="cls-1" d="M117.91,226.9a4,4,0,1,0-1.58-5.45A4,4,0,0,0,117.91,226.9Z"/><circle class="cls-1" cx="103.49" cy="228.13" r="4.02"/><path class="cls-1" d="M96.8,215.29a4,4,0,1,0-1.58-5.46A4,4,0,0,0,96.8,215.29Z"/><path class="cls-1" d="M80.44,220a4,4,0,1,0-1.58-5.46A4,4,0,0,0,80.44,220Z"/><path class="cls-1" d="M75.69,203.67a4,4,0,1,0-1.58-5.45A4,4,0,0,0,75.69,203.67Z"/><circle class="cls-1" cx="61.26" cy="204.9" r="4.02"/><path class="cls-1" d="M54.57,192.06A4,4,0,1,0,53,186.61,4,4,0,0,0,54.57,192.06Z"/><circle class="cls-1" cx="40.15" cy="193.29" r="4.02"/><path class="cls-1" d="M33.46,180.45A4,4,0,1,0,31.88,175,4,4,0,0,0,33.46,180.45Z"/><path class="cls-1" d="M17.1,185.2a4,4,0,1,0-1.59-5.46A4,4,0,0,0,17.1,185.2Z"/><path class="cls-1" d="M12.35,168.83a4,4,0,1,0-1.59-5.45A4,4,0,0,0,12.35,168.83Z"/><path class="cls-1" d="M0,166.64v6.84A3.94,3.94,0,0,0,1.44,172,4,4,0,0,0,0,166.64Z"/><path class="cls-1" d="M345.41,338.29a3.91,3.91,0,0,0,1.39.45c-.45-2.48-.91-5-1.41-7.47a4,4,0,0,0,0,7Z"/><path class="cls-1" d="M340.66,321.93a4,4,0,0,0,2.87.39c-.56-2.61-1.17-5.21-1.8-7.83a4,4,0,0,0-1.07,7.44Z"/><path class="cls-1" d="M324.3,326.68a4,4,0,1,0-1.58-5.45A4,4,0,0,0,324.3,326.68Z"/><path class="cls-1" d="M319.55,310.32a4,4,0,1,0-1.58-5.46A4,4,0,0,0,319.55,310.32Z"/><path class="cls-1" d="M303.19,315.06a4,4,0,1,0-1.59-5.45A4,4,0,0,0,303.19,315.06Z"/><path class="cls-1" d="M298.44,298.7a4,4,0,1,0-1.59-5.45A4,4,0,0,0,298.44,298.7Z"/><path class="cls-1" d="M282.07,303.45a4,4,0,1,0-1.58-5.45A4,4,0,0,0,282.07,303.45Z"/><path class="cls-1" d="M277.32,287.09a4,4,0,1,0-1.58-5.46A4,4,0,0,0,277.32,287.09Z"/><path class="cls-1" d="M261,291.84a4,4,0,1,0-1.59-5.46A4,4,0,0,0,261,291.84Z"/><path class="cls-1" d="M256.21,275.48a4,4,0,1,0-1.58-5.46A4,4,0,0,0,256.21,275.48Z"/><path class="cls-1" d="M239.85,280.22a4,4,0,1,0-1.59-5.45A4,4,0,0,0,239.85,280.22Z"/><path class="cls-1" d="M235.09,263.86a4,4,0,1,0-1.58-5.45A4,4,0,0,0,235.09,263.86Z"/><path class="cls-1" d="M218.73,268.61a4,4,0,1,0-1.58-5.45A4,4,0,0,0,218.73,268.61Z"/><path class="cls-1" d="M214,252.25a4,4,0,1,0-1.58-5.46A4,4,0,0,0,214,252.25Z"/><path class="cls-1" d="M197.62,257a4,4,0,1,0-1.59-5.46A4,4,0,0,0,197.62,257Z"/><path class="cls-1" d="M192.87,240.63a4,4,0,1,0-1.58-5.45A4,4,0,0,0,192.87,240.63Z"/><path class="cls-1" d="M176.5,245.38a4,4,0,1,0-1.58-5.45A4,4,0,0,0,176.5,245.38Z"/><path class="cls-1" d="M171.75,229a4,4,0,1,0-1.58-5.46A4,4,0,0,0,171.75,229Z"/><path class="cls-1" d="M155.39,233.77a4,4,0,1,0-1.58-5.46A4,4,0,0,0,155.39,233.77Z"/><path class="cls-1" d="M150.64,217.41a4,4,0,1,0-1.58-5.46A4,4,0,0,0,150.64,217.41Z"/><path class="cls-1" d="M134.28,222.15a4,4,0,1,0-1.59-5.45A4,4,0,0,0,134.28,222.15Z"/><path class="cls-1" d="M129.53,205.79a4,4,0,1,0-1.58-5.45A4,4,0,0,0,129.53,205.79Z"/><path class="cls-1" d="M113.16,210.54a4,4,0,1,0-1.58-5.45A4,4,0,0,0,113.16,210.54Z"/><path class="cls-1" d="M108.41,194.18a4,4,0,1,0-1.58-5.46A4,4,0,0,0,108.41,194.18Z"/><path class="cls-1" d="M92.05,198.93a4,4,0,1,0-1.58-5.46A4,4,0,0,0,92.05,198.93Z"/><path class="cls-1" d="M87.3,182.56a4,4,0,1,0-1.58-5.45A4,4,0,0,0,87.3,182.56Z"/><path class="cls-1" d="M70.94,187.31a4,4,0,1,0-1.59-5.45A4,4,0,0,0,70.94,187.31Z"/><path class="cls-1" d="M66.19,171a4,4,0,1,0-1.59-5.45A4,4,0,0,0,66.19,171Z"/><path class="cls-1" d="M49.82,175.7a4,4,0,1,0-1.58-5.45A4,4,0,0,0,49.82,175.7Z"/><path class="cls-1" d="M45.07,159.34a4,4,0,1,0-1.58-5.46A4,4,0,0,0,45.07,159.34Z"/><path class="cls-1" d="M28.71,164.08a4,4,0,1,0-1.58-5.45A4,4,0,0,0,28.71,164.08Z"/><path class="cls-1" d="M24,147.72a4,4,0,1,0-1.58-5.45A4,4,0,0,0,24,147.72Z"/><path class="cls-1" d="M7.6,152.47A4,4,0,1,0,6,147,4,4,0,0,0,7.6,152.47Z"/><path class="cls-1" d="M2.85,136.11a4,4,0,1,0-1.59-5.46A4,4,0,0,0,2.85,136.11Z"/><path class="cls-1" d="M335.91,305.57a4,4,0,0,0,3.6.12c-.66-2.54-1.36-5.09-2.09-7.63a4,4,0,0,0-1.51,7.51Z"/><path class="cls-1" d="M331.16,289.21a4,4,0,0,0,3.67.09c-.78-2.52-1.57-5.05-2.4-7.57a4,4,0,0,0-1.27,7.48Z"/><path class="cls-1" d="M314.8,294a4,4,0,1,0-1.58-5.45A4,4,0,0,0,314.8,294Z"/><path class="cls-1" d="M310.05,277.59a4,4,0,1,0-1.58-5.45A4,4,0,0,0,310.05,277.59Z"/><path class="cls-1" d="M293.69,282.34a4,4,0,1,0-1.59-5.46A4,4,0,0,0,293.69,282.34Z"/><path class="cls-1" d="M288.93,266a4,4,0,1,0-1.58-5.46A4,4,0,0,0,288.93,266Z"/><path class="cls-1" d="M272.57,270.73a4,4,0,1,0-1.58-5.46A4,4,0,0,0,272.57,270.73Z"/><path class="cls-1" d="M267.82,254.36a4,4,0,1,0-1.58-5.45A4,4,0,0,0,267.82,254.36Z"/><path class="cls-1" d="M251.46,259.11a4,4,0,1,0-1.58-5.45A4,4,0,0,0,251.46,259.11Z"/><path class="cls-1" d="M246.71,242.75a4,4,0,1,0-1.58-5.46A4,4,0,0,0,246.71,242.75Z"/><path class="cls-1" d="M230.34,247.5a4,4,0,1,0-1.58-5.46A4,4,0,0,0,230.34,247.5Z"/><path class="cls-1" d="M225.59,231.14a4,4,0,1,0-1.58-5.46A4,4,0,0,0,225.59,231.14Z"/><path class="cls-1" d="M209.23,235.88a4,4,0,1,0-1.58-5.45A4,4,0,0,0,209.23,235.88Z"/><path class="cls-1" d="M204.48,219.52a4,4,0,1,0-1.58-5.45A4,4,0,0,0,204.48,219.52Z"/><path class="cls-1" d="M188.12,224.27a4,4,0,1,0-1.59-5.45A4,4,0,0,0,188.12,224.27Z"/><path class="cls-1" d="M183.37,207.91a4,4,0,1,0-1.59-5.46A4,4,0,0,0,183.37,207.91Z"/><path class="cls-1" d="M167,212.66a4,4,0,1,0-1.58-5.46A4,4,0,0,0,167,212.66Z"/><path class="cls-1" d="M162.25,196.29a4,4,0,1,0-1.58-5.45A4,4,0,0,0,162.25,196.29Z"/><path class="cls-1" d="M145.89,201a4,4,0,1,0-1.58-5.45A4,4,0,0,0,145.89,201Z"/><path class="cls-1" d="M141.14,184.68a4,4,0,1,0-1.58-5.45A4,4,0,0,0,141.14,184.68Z"/><path class="cls-1" d="M124.78,189.43a4,4,0,1,0-1.59-5.46A4,4,0,0,0,124.78,189.43Z"/><path class="cls-1" d="M120,173.07a4,4,0,1,0-1.59-5.46A4,4,0,0,0,120,173.07Z"/><path class="cls-1" d="M103.66,177.81a4,4,0,1,0-1.58-5.45A4,4,0,0,0,103.66,177.81Z"/><path class="cls-1" d="M98.91,161.45A4,4,0,1,0,97.33,156,4,4,0,0,0,98.91,161.45Z"/><path class="cls-1" d="M82.55,166.2A4,4,0,1,0,81,160.75,4,4,0,0,0,82.55,166.2Z"/><path class="cls-1" d="M77.8,149.84a4,4,0,1,0-1.58-5.46A4,4,0,0,0,77.8,149.84Z"/><path class="cls-1" d="M61.44,154.59a4,4,0,1,0-1.59-5.46A4,4,0,0,0,61.44,154.59Z"/><path class="cls-1" d="M56.69,138.23a4,4,0,1,0-1.59-5.46A4,4,0,0,0,56.69,138.23Z"/><path class="cls-1" d="M40.32,143a4,4,0,1,0-1.58-5.45A4,4,0,0,0,40.32,143Z"/><path class="cls-1" d="M35.57,126.61A4,4,0,1,0,34,121.16,4,4,0,0,0,35.57,126.61Z"/><path class="cls-1" d="M19.21,131.36a4,4,0,1,0-1.58-5.46A4,4,0,0,0,19.21,131.36Z"/><path class="cls-1" d="M14.46,115a4,4,0,1,0-1.58-5.46A4,4,0,0,0,14.46,115Z"/><path class="cls-1" d="M2,112.71a3.88,3.88,0,0,0-2-.48v8a4,4,0,0,0,3.55-2.06A4,4,0,0,0,2,112.71Z"/><path class="cls-1" d="M326.41,272.84a4,4,0,0,0,3.11.32c-.89-2.52-1.79-5-2.73-7.54a4,4,0,0,0-2,1.77A4,4,0,0,0,326.41,272.84Z"/><path class="cls-1" d="M321.66,256.48a4,4,0,0,0,1.8.49c-.89-2.27-1.81-4.53-2.74-6.8a3.65,3.65,0,0,0-.64.85A4,4,0,0,0,321.66,256.48Z"/><path class="cls-1" d="M305.3,261.23a4,4,0,1,0-1.58-5.46A4,4,0,0,0,305.3,261.23Z"/><path class="cls-1" d="M300.55,244.86a4,4,0,1,0-1.59-5.45A4,4,0,0,0,300.55,244.86Z"/><path class="cls-1" d="M284.18,249.61a4,4,0,1,0-1.58-5.45A4,4,0,0,0,284.18,249.61Z"/><path class="cls-1" d="M279.43,233.25a4,4,0,1,0-1.58-5.45A4,4,0,0,0,279.43,233.25Z"/><path class="cls-1" d="M263.07,238a4,4,0,1,0-1.58-5.45A4,4,0,0,0,263.07,238Z"/><path class="cls-1" d="M258.32,221.64a4,4,0,1,0-1.58-5.46A4,4,0,0,0,258.32,221.64Z"/><path class="cls-1" d="M242,226.39a4,4,0,1,0-1.59-5.46A4,4,0,0,0,242,226.39Z"/><path class="cls-1" d="M237.21,210a4,4,0,1,0-1.59-5.45A4,4,0,0,0,237.21,210Z"/><path class="cls-1" d="M220.84,214.77a4,4,0,1,0-1.58-5.45A4,4,0,0,0,220.84,214.77Z"/><path class="cls-1" d="M216.09,198.41a4,4,0,1,0-1.58-5.45A4,4,0,0,0,216.09,198.41Z"/><path class="cls-1" d="M199.73,203.16a4,4,0,1,0-1.58-5.46A4,4,0,0,0,199.73,203.16Z"/><path class="cls-1" d="M195,186.79a4,4,0,1,0-1.58-5.45A4,4,0,0,0,195,186.79Z"/><path class="cls-1" d="M178.62,191.55a4,4,0,1,0-1.59-5.46A4,4,0,0,0,178.62,191.55Z"/><path class="cls-1" d="M173.87,175.18a4,4,0,1,0-1.59-5.45A4,4,0,0,0,173.87,175.18Z"/><path class="cls-1" d="M157.5,179.93a4,4,0,1,0-1.58-5.45A4,4,0,0,0,157.5,179.93Z"/><path class="cls-1" d="M152.75,163.57a4,4,0,1,0-1.58-5.46A4,4,0,0,0,152.75,163.57Z"/><path class="cls-1" d="M136.39,168.32a4,4,0,1,0-1.58-5.46A4,4,0,0,0,136.39,168.32Z"/><path class="cls-1" d="M131.64,152a4,4,0,1,0-1.58-5.45A4,4,0,0,0,131.64,152Z"/><path class="cls-1" d="M115.28,156.7a4,4,0,1,0-1.59-5.45A4,4,0,0,0,115.28,156.7Z"/><path class="cls-1" d="M110.53,140.34a4,4,0,1,0-1.59-5.45A4,4,0,0,0,110.53,140.34Z"/><path class="cls-1" d="M94.16,145.09a4,4,0,1,0-1.58-5.46A4,4,0,0,0,94.16,145.09Z"/><path class="cls-1" d="M89.41,128.73a4,4,0,1,0-1.58-5.46A4,4,0,0,0,89.41,128.73Z"/><path class="cls-1" d="M73.05,133.48A4,4,0,1,0,71.47,128,4,4,0,0,0,73.05,133.48Z"/><path class="cls-1" d="M68.3,117.11a4,4,0,1,0-1.58-5.45A4,4,0,0,0,68.3,117.11Z"/><path class="cls-1" d="M51.94,121.86a4,4,0,1,0-1.59-5.45A4,4,0,0,0,51.94,121.86Z"/><path class="cls-1" d="M47.19,105.5A4,4,0,1,0,45.6,100,4,4,0,0,0,47.19,105.5Z"/><path class="cls-1" d="M30.82,110.25a4,4,0,1,0-1.58-5.46A4,4,0,0,0,30.82,110.25Z"/><path class="cls-1" d="M26.07,93.88a4,4,0,1,0-1.58-5.45A4,4,0,0,0,26.07,93.88Z"/><path class="cls-1" d="M9.71,98.63a4,4,0,1,0-1.58-5.45A4,4,0,0,0,9.71,98.63Z"/><path class="cls-1" d="M5,82.27a4,4,0,1,0-1.59-5.45A4,4,0,0,0,5,82.27Z"/><path class="cls-1" d="M295.8,228.5a4,4,0,1,0-1.59-5.45A4,4,0,0,0,295.8,228.5Z"/><path class="cls-1" d="M291.05,212.14a4,4,0,1,0-1.59-5.45A4,4,0,0,0,291.05,212.14Z"/><path class="cls-1" d="M274.68,216.89a4,4,0,1,0-1.58-5.45A4,4,0,0,0,274.68,216.89Z"/><path class="cls-1" d="M269.93,200.52a4,4,0,1,0-1.58-5.45A4,4,0,0,0,269.93,200.52Z"/><path class="cls-1" d="M253.57,205.27a4,4,0,1,0-1.58-5.45A4,4,0,0,0,253.57,205.27Z"/><path class="cls-1" d="M248.82,188.91a4,4,0,1,0-1.58-5.45A4,4,0,0,0,248.82,188.91Z"/><path class="cls-1" d="M232.46,193.66a4,4,0,1,0-1.59-5.45A4,4,0,0,0,232.46,193.66Z"/><path class="cls-1" d="M227.71,177.3a4,4,0,1,0-1.59-5.46A4,4,0,0,0,227.71,177.3Z"/><path class="cls-1" d="M211.34,182.05a4,4,0,1,0-1.58-5.46A4,4,0,0,0,211.34,182.05Z"/><path class="cls-1" d="M206.59,165.68a4,4,0,1,0-1.58-5.45A4,4,0,0,0,206.59,165.68Z"/><path class="cls-1" d="M190.23,170.43a4,4,0,1,0-1.58-5.45A4,4,0,0,0,190.23,170.43Z"/><path class="cls-1" d="M185.48,154.07a4,4,0,1,0-1.58-5.45A4,4,0,0,0,185.48,154.07Z"/><path class="cls-1" d="M169.12,158.82a4,4,0,1,0-1.59-5.45A4,4,0,0,0,169.12,158.82Z"/><path class="cls-1" d="M164.37,142.46a4,4,0,1,0-1.59-5.46A4,4,0,0,0,164.37,142.46Z"/><path class="cls-1" d="M148,147.21a4,4,0,1,0-1.58-5.46A4,4,0,0,0,148,147.21Z"/><path class="cls-1" d="M143.25,130.84a4,4,0,1,0-1.58-5.45A4,4,0,0,0,143.25,130.84Z"/><path class="cls-1" d="M126.89,135.59a4,4,0,1,0-1.58-5.45A4,4,0,0,0,126.89,135.59Z"/><path class="cls-1" d="M122.14,119.23a4,4,0,1,0-1.58-5.46A4,4,0,0,0,122.14,119.23Z"/><path class="cls-1" d="M105.78,124a4,4,0,1,0-1.59-5.46A4,4,0,0,0,105.78,124Z"/><path class="cls-1" d="M101,107.61a4,4,0,1,0-1.59-5.45A4,4,0,0,0,101,107.61Z"/><path class="cls-1" d="M84.66,112.36a4,4,0,1,0-1.58-5.45A4,4,0,0,0,84.66,112.36Z"/><path class="cls-1" d="M79.91,96a4,4,0,1,0-1.58-5.45A4,4,0,0,0,79.91,96Z"/><path class="cls-1" d="M63.55,100.75A4,4,0,1,0,62,95.3,4,4,0,0,0,63.55,100.75Z"/><path class="cls-1" d="M58.8,84.39a4,4,0,1,0-1.59-5.46A4,4,0,0,0,58.8,84.39Z"/><path class="cls-1" d="M42.43,89.14a4,4,0,1,0-1.58-5.46A4,4,0,0,0,42.43,89.14Z"/><path class="cls-1" d="M37.69,72.77a4,4,0,1,0-1.59-5.45A4,4,0,0,0,37.69,72.77Z"/><path class="cls-1" d="M21.32,77.52a4,4,0,1,0-1.58-5.45A4,4,0,0,0,21.32,77.52Z"/><path class="cls-1" d="M16.57,61.16A4,4,0,1,0,15,55.7,4,4,0,0,0,16.57,61.16Z"/><path class="cls-1" d="M4.08,58.87A4,4,0,0,0,0,59v6.75a1.59,1.59,0,0,0,.21.15,4,4,0,0,0,3.87-7Z"/><path class="cls-1" d="M0,43v6.1A4,4,0,0,0,.91,48,4,4,0,0,0,0,43Z"/><path class="cls-1" d="M286.3,195.78a4,4,0,0,0,5.8-2.42h0c-1-1.68-2-3.36-3-5h0a4,4,0,0,0-2.74,7.46Z"/><path class="cls-1" d="M265.18,184.16a4,4,0,1,0-1.58-5.45A4,4,0,0,0,265.18,184.16Z"/><path class="cls-1" d="M260.43,167.8a4,4,0,1,0-1.58-5.45A4,4,0,0,0,260.43,167.8Z"/><path class="cls-1" d="M244.07,172.55a4,4,0,1,0-1.58-5.45A4,4,0,0,0,244.07,172.55Z"/><path class="cls-1" d="M239.32,156.19a4,4,0,1,0-1.58-5.46A4,4,0,0,0,239.32,156.19Z"/><path class="cls-1" d="M223,160.94a4,4,0,1,0-1.59-5.46A4,4,0,0,0,223,160.94Z"/><path class="cls-1" d="M218.2,144.57a4,4,0,1,0-1.58-5.45A4,4,0,0,0,218.2,144.57Z"/><path class="cls-1" d="M201.84,149.32a4,4,0,1,0-1.58-5.45A4,4,0,0,0,201.84,149.32Z"/><path class="cls-1" d="M197.09,133a4,4,0,1,0-1.58-5.46A4,4,0,0,0,197.09,133Z"/><path class="cls-1" d="M180.73,137.71a4,4,0,1,0-1.58-5.46A4,4,0,0,0,180.73,137.71Z"/><path class="cls-1" d="M176,121.35a4,4,0,1,0-1.58-5.46A4,4,0,0,0,176,121.35Z"/><path class="cls-1" d="M159.62,126.09a4,4,0,1,0-1.59-5.45A4,4,0,0,0,159.62,126.09Z"/><path class="cls-1" d="M154.87,109.73a4,4,0,1,0-1.59-5.45A4,4,0,0,0,154.87,109.73Z"/><path class="cls-1" d="M138.5,114.48a4,4,0,1,0-1.58-5.45A4,4,0,0,0,138.5,114.48Z"/><path class="cls-1" d="M133.75,98.12a4,4,0,1,0-1.58-5.46A4,4,0,0,0,133.75,98.12Z"/><path class="cls-1" d="M117.39,102.87a4,4,0,1,0-1.59-5.46A4,4,0,0,0,117.39,102.87Z"/><path class="cls-1" d="M112.64,86.5a4,4,0,1,0-1.59-5.45A4,4,0,0,0,112.64,86.5Z"/><path class="cls-1" d="M96.28,91.25a4,4,0,1,0-1.59-5.45A4,4,0,0,0,96.28,91.25Z"/><path class="cls-1" d="M91.53,74.89a4,4,0,1,0-1.59-5.45A4,4,0,0,0,91.53,74.89Z"/><path class="cls-1" d="M75.16,79.64a4,4,0,1,0-1.58-5.45A4,4,0,0,0,75.16,79.64Z"/><path class="cls-1" d="M70.41,63.28a4,4,0,1,0-1.58-5.46A4,4,0,0,0,70.41,63.28Z"/><path class="cls-1" d="M54.05,68a4,4,0,1,0-1.59-5.45A4,4,0,0,0,54.05,68Z"/><path class="cls-1" d="M49.3,51.66a4,4,0,1,0-1.59-5.45A4,4,0,0,0,49.3,51.66Z"/><path class="cls-1" d="M32.93,56.41A4,4,0,1,0,31.35,51,4,4,0,0,0,32.93,56.41Z"/><path class="cls-1" d="M28.18,40.05a4,4,0,1,0-1.58-5.46A4,4,0,0,0,28.18,40.05Z"/><path class="cls-1" d="M11.82,44.8a4,4,0,1,0-1.58-5.46A4,4,0,0,0,11.82,44.8Z"/><path class="cls-1" d="M7.07,28.43A4,4,0,1,0,5.49,23,4,4,0,0,0,7.07,28.43Z"/><path class="cls-1" d="M255.68,151.44a4,4,0,0,0,5.46-1.59,3.93,3.93,0,0,0,.41-1.11q-1.89-2.42-3.83-4.84a4,4,0,0,0-2,7.54Z"/><path class="cls-1" d="M234.57,139.82a4,4,0,1,0-1.58-5.45A4,4,0,0,0,234.57,139.82Z"/><path class="cls-1" d="M229.82,123.46a4,4,0,0,0,5.45-1.58,4,4,0,0,0,.14-3.59s0,0,0,0c-.59-.63-1.17-1.27-1.77-1.89h0a4,4,0,0,0-3.8,7.07Z"/><path class="cls-1" d="M213.46,128.21a4,4,0,1,0-1.59-5.45A4,4,0,0,0,213.46,128.21Z"/><path class="cls-1" d="M208.71,111.85a4,4,0,1,0-1.59-5.46A4,4,0,0,0,208.71,111.85Z"/><path class="cls-1" d="M192.34,116.6a4,4,0,1,0-1.58-5.46A4,4,0,0,0,192.34,116.6Z"/><path class="cls-1" d="M187.59,100.23A4,4,0,1,0,186,94.78,4,4,0,0,0,187.59,100.23Z"/><path class="cls-1" d="M171.23,105a4,4,0,1,0-1.59-5.45A4,4,0,0,0,171.23,105Z"/><path class="cls-1" d="M166.48,88.62a4,4,0,1,0-1.58-5.45A4,4,0,0,0,166.48,88.62Z"/><path class="cls-1" d="M150.12,93.37a4,4,0,1,0-1.59-5.46A4,4,0,0,0,150.12,93.37Z"/><path class="cls-1" d="M145.36,77a4,4,0,1,0-1.58-5.45A4,4,0,0,0,145.36,77Z"/><path class="cls-1" d="M129,81.75a4,4,0,1,0-1.58-5.45A4,4,0,0,0,129,81.75Z"/><path class="cls-1" d="M124.25,65.39a4,4,0,1,0-1.58-5.45A4,4,0,0,0,124.25,65.39Z"/><path class="cls-1" d="M107.89,70.14a4,4,0,1,0-1.59-5.45A4,4,0,0,0,107.89,70.14Z"/><path class="cls-1" d="M103.14,53.78a4,4,0,1,0-1.59-5.46A4,4,0,0,0,103.14,53.78Z"/><path class="cls-1" d="M86.77,58.53a4,4,0,1,0-1.58-5.46A4,4,0,0,0,86.77,58.53Z"/><path class="cls-1" d="M82,42.16a4,4,0,1,0-1.58-5.45A4,4,0,0,0,82,42.16Z"/><path class="cls-1" d="M65.66,46.91a4,4,0,1,0-1.58-5.45A4,4,0,0,0,65.66,46.91Z"/><path class="cls-1" d="M60.91,30.55a4,4,0,1,0-1.58-5.45A4,4,0,0,0,60.91,30.55Z"/><path class="cls-1" d="M44.55,35.3A4,4,0,1,0,43,29.84,4,4,0,0,0,44.55,35.3Z"/><path class="cls-1" d="M39.8,18.93a4,4,0,1,0-1.59-5.45A4,4,0,0,0,39.8,18.93Z"/><path class="cls-1" d="M23.43,23.69a4,4,0,1,0-1.58-5.46A4,4,0,0,0,23.43,23.69Z"/><path class="cls-1" d="M18.68,7.32a4,4,0,1,0,3.87-7h0C21.46.16,20.4.07,19.34,0A4,4,0,0,0,17.1,1.87,4,4,0,0,0,18.68,7.32Z"/><path class="cls-1" d="M2.32,12.07A4,4,0,1,0,.74,6.62,4,4,0,0,0,2.32,12.07Z"/><path class="cls-1" d="M204,95.48a4,4,0,0,0,5.45-1.58,6.07,6.07,0,0,0,.31-.69h0c-1.81-1.64-3.63-3.26-5.49-4.87a3.92,3.92,0,0,0-1.84,1.7A4,4,0,0,0,204,95.48Z"/><path class="cls-1" d="M182.84,83.87a4,4,0,1,0-1.58-5.45A4,4,0,0,0,182.84,83.87Z"/><path class="cls-1" d="M161.73,72.26a4,4,0,1,0-1.59-5.46A4,4,0,0,0,161.73,72.26Z"/><path class="cls-1" d="M157,55.89a4,4,0,0,0,4.32-.29c-2.07-1.4-4.19-2.78-6.3-4.15A4,4,0,0,0,157,55.89Z"/><path class="cls-1" d="M140.61,60.64A4,4,0,1,0,139,55.19,4,4,0,0,0,140.61,60.64Z"/><path class="cls-1" d="M135.86,44.28a4,4,0,0,0,5.32-1.37q-3.42-2-6.92-4A4,4,0,0,0,135.86,44.28Z"/><path class="cls-1" d="M119.5,49a4,4,0,1,0-1.58-5.46A4,4,0,0,0,119.5,49Z"/><path class="cls-1" d="M114.75,32.67a4,4,0,0,0,5.38-1.46c-2.38-1.26-4.78-2.47-7.15-3.62A4,4,0,0,0,114.75,32.67Z"/><path class="cls-1" d="M98.39,37.42A4,4,0,1,0,96.8,32,4,4,0,0,0,98.39,37.42Z"/><path class="cls-1" d="M93.64,21.05A4,4,0,0,0,98,20.7c-2.16-.93-4.32-1.82-6.45-2.68A4,4,0,0,0,93.64,21.05Z"/><path class="cls-1" d="M77.27,25.8a4,4,0,1,0-1.58-5.45A4,4,0,0,0,77.27,25.8Z"/><path class="cls-1" d="M56.16,14.19A4,4,0,0,0,60.4,7.37h0l-2.66-.7a4,4,0,0,0-1.57,7.52Z"/></g></g></svg>